<svg width="35" height="35" fill="none" xmlns="http://www.w3.org/2000/svg"><rect x=".5" y=".5" width="34" height="34" rx="17" fill="#fff" stroke="#1D2D47"/><g clip-path="url(#clip0_701_6932)"><path d="M18 28.513a.643.643 0 01-.322-.086 38.493 38.493 0 01-5.29-3.807c-1.547-1.334-2.782-2.657-3.67-3.932-1.15-1.65-1.727-3.237-1.718-4.718.011-1.723.628-3.343 1.738-4.562 1.128-1.24 2.633-1.922 4.24-1.922 2.058 0 3.94 1.153 5.022 2.98 1.083-1.827 2.965-2.98 5.023-2.98 1.517 0 2.964.616 4.076 1.735 1.22 1.227 1.912 2.961 1.9 4.757-.008 1.478-.597 3.063-1.75 4.711-.89 1.275-2.123 2.597-3.663 3.93a38.618 38.618 0 01-5.262 3.807.644.644 0 01-.324.087z" fill="#1D2D47"/></g><defs><clipPath id="clip0_701_6932"><path fill="#fff" transform="translate(7 8)" d="M0 0h22v22H0z"/></clipPath></defs></svg>