<svg width="21" height="16" fill="none" xmlns="http://www.w3.org/2000/svg"><path d="M9.389 15.99H0V7.92c0-1.34.24-2.454.723-3.34a6.891 6.891 0 011.876-2.212A10.083 10.083 0 015.165.953 43.906 43.906 0 017.963 0l1.384 2.514c-.7.266-1.296.534-1.792.807s-.902.57-1.215.89a3.01 3.01 0 00-.692 1.1c-.147.413-.22.9-.22 1.457H9.39v9.222zm11.61 0h-9.367V7.92c0-1.342.24-2.455.722-3.342a6.933 6.933 0 011.866-2.212A9.917 9.917 0 0116.776.953 43.892 43.892 0 0119.573 0l1.405 2.514a14.21 14.21 0 00-1.791.807c-.497.273-.902.57-1.216.89-.315.323-.545.69-.692 1.1-.146.413-.22.9-.22 1.457H21v9.222h-.001z" fill="#F1592A"/></svg>