<svg width="35" height="35" fill="none" xmlns="http://www.w3.org/2000/svg"><path d="M17.5 18.594a6.562 6.562 0 100-13.125 6.562 6.562 0 000 13.125zm0-10.938a4.375 4.375 0 110 8.75 4.375 4.375 0 010-8.75z" fill="#1D2D47"/><path d="M17.5 33.907a16.406 16.406 0 0012.677-6.005l.57-.7-.57-.69a16.405 16.405 0 00-25.353 0l-.569.69.57.7A16.406 16.406 0 0017.5 33.907zm10.38-6.694a14.22 14.22 0 01-20.78 0 14.22 14.22 0 0120.78 0z" fill="#1D2D47"/><path d="M17.5 33.906a16.407 16.407 0 10.022-32.813 16.407 16.407 0 00-.021 32.813zm0-30.625a14.219 14.219 0 110 28.438 14.219 14.219 0 010-28.438z" fill="#1D2D47"/><path d="M29.336 27.213S18.322 39.517 7.11 28.438l-1.444-1.225S15.03 17.5 24.534 23.33l4.802 3.883zM17.5 17.5a5.469 5.469 0 110-10.938 5.469 5.469 0 010 10.938z" fill="#1D2D47"/></svg>