<svg width="20" height="20" fill="none" xmlns="http://www.w3.org/2000/svg"><g clip-path="url(#clip0_231_7811)"><path d="M10 0C4.486 0 0 4.486 0 10s4.486 10 10 10c2.671 0 5.215-1.077 7.104-2.966.314-.314.278-.84-.04-1.153l-1.578-1.555c.34-.466.385-1.034.104-1.572a4.272 4.272 0 00-1.69-1.75c-.285-.164-.554-.244-.822-.244-.104 0-.21.013-.312.037a2.8 2.8 0 00-1 .488.62.62 0 01-.382.117.896.896 0 01-.51-.162 12.189 12.189 0 01-2.521-2.52c-.142-.191-.256-.607-.046-.892.246-.333.405-.66.488-1.001.089-.368.02-.738-.207-1.132a4.271 4.271 0 00-1.75-1.692 1.563 1.563 0 00-.725-.187c-.405 0-.785.177-1.097.51-.288.305-.542.63-.834 1.021-.269.36-.247.774-.228 1.14l.001.007c.033.464.206 1.012.53 1.677.547 1.125 1.323 2.193 2.374 3.265.216.22 1.077 1.082 1.298 1.298 1.073 1.051 2.141 1.828 3.266 2.375.664.323 1.213.496 1.677.53h.007c.096.004.198.01.297.01.237 0 .54-.03.815-.22l1.038 1.023A8.26 8.26 0 0110 18.326c-4.591 0-8.326-3.735-8.326-8.326 0-4.591 3.735-8.326 8.326-8.326 4.591 0 8.326 3.735 8.326 8.326A.837.837 0 1020 10c0-5.514-4.486-10-10-10z" fill="#fff"/></g><defs><clipPath id="clip0_231_7811"><path fill="#fff" d="M0 0h20v20H0z"/></clipPath></defs></svg>