<svg width="20" height="20" fill="none" xmlns="http://www.w3.org/2000/svg"><path d="M15.625 0a4.38 4.38 0 00-4.375 4.375c0 2.245 3.51 6.221 3.91 6.668a.628.628 0 00.93 0c.4-.447 3.91-4.423 3.91-6.668A4.38 4.38 0 0015.625 0zm0 6.25a1.876 1.876 0 11.001-3.751 1.876 1.876 0 01-.001 3.751zM.393 7.343a.627.627 0 00-.393.58v11.452a.626.626 0 00.858.58l5.392-2.157V5L.393 7.343z" fill="#fff"/><path d="M17.02 11.88a1.88 1.88 0 01-1.395.622 1.88 1.88 0 01-1.395-.623 26.554 26.554 0 01-.48-.548V20l5.858-2.342a.623.623 0 00.392-.58V7.891c-1.024 1.733-2.392 3.333-2.98 3.988zm-6.626-5.723L7.5 5v12.797l5 2V9.76c-.799-1.076-1.633-2.372-2.106-3.603z" fill="#fff"/></svg>