<svg width="18" height="20" fill="none" xmlns="http://www.w3.org/2000/svg"><path d="M15.852.188H2.146a1.76 1.76 0 00-1.761 1.76v13.706a1.76 1.76 0 001.761 1.761h2.749v2.396l3.336-2.396h7.621c.973 0 1.762-.788 1.762-1.761V1.949c0-.973-.789-1.762-1.762-1.762z" fill="#fff"/><path d="M17.615 15.31v-2.761a1.967 1.967 0 00-1.41-.593h-4.011l5.421-7.386V2.203a1.548 1.548 0 00-1.031-.394h-8.2a1.973 1.973 0 000 3.946h3.448L6.25 13.443a1.549 1.549 0 001.253 2.459h8.702c.552 0 1.05-.227 1.409-.593z" fill="#1D2D47"/></svg>