<svg width="126" height="181" fill="none" xmlns="http://www.w3.org/2000/svg"><path d="M125.49 117.642c0 34.557-28.018 62.576-62.576 62.576S.338 152.199.338 117.642c0-34.563 28.019-62.58 62.576-62.58 34.558 0 62.576 28.016 62.576 62.58z" fill="url(#paint0_linear_224_13468)"/><path d="M62.913 173.551c30.879 0 55.911-25.031 55.911-55.909 0-30.877-25.032-55.908-55.911-55.908S7.002 86.765 7.002 117.642c0 30.878 25.032 55.909 55.91 55.909z" fill="url(#paint1_linear_224_13468)"/><path d="M62.914 174.042c-31.102 0-56.406-25.301-56.406-56.401 0-31.103 25.304-56.407 56.406-56.407s56.403 25.304 56.403 56.407c0 31.099-25.301 56.401-56.403 56.401zm0-111.817c-30.555 0-55.413 24.86-55.413 55.416 0 30.555 24.858 55.41 55.413 55.41 30.552 0 55.411-24.855 55.411-55.41-.001-30.555-24.859-55.416-55.411-55.416z" fill="url(#paint2_linear_224_13468)"/><path d="M62.913 168.565c28.127 0 50.927-22.801 50.927-50.927s-22.8-50.927-50.927-50.927c-28.126 0-50.927 22.8-50.927 50.927 0 28.126 22.801 50.927 50.927 50.927z" fill="url(#paint3_radial_224_13468)"/><path d="M50.203 106.744h-4.715a25.95 25.95 0 01.832-1.878l1.601-3.331c.128-.265.26-.536.391-.826l.385-.85a36.71 36.71 0 00.662-1.558c.21-.52.403-1.026.581-1.504a15.7 15.7 0 00.731-2.284c.178-.739.266-1.416.266-2.013 0-.916-.216-1.684-.643-2.284-.438-.621-1.147-1.039-2.12-1.243a10.44 10.44 0 00-.913-.138c-1.214-.154-2.608-.03-3.995.292a17.077 17.077 0 00-3.02 1.028c-2.263.938-4.48 2.242-6.584 3.88-2.1 1.634-3.894 3.374-5.325 5.17-.87 1.102-1.578 2.196-2.115 3.256-.553 1.091-.855 2.13-.913 3.118v.345c0 .221.013.455.04.709.031.258.087.526.172.773.202.664.6 1.28 1.18 1.833.587.557 1.444.839 2.563.839h.168l-.008-.449.154.449.188-.005a7.33 7.33 0 001.068-.159c.364-.085.73-.213 1.078-.367.957-.406 1.929-.991 2.882-1.745a27.473 27.473 0 002.598-2.343 29.015 29.015 0 001.918-2.252c.547-.712.948-1.3 1.192-1.732l.082-.144-.031-.164c-.032-.133-.064-.285-.106-.433a4.185 4.185 0 01-.093-.399c-.056-.21-.115-.427-.18-.635a5.208 5.208 0 00-.21-.573 12.136 12.136 0 00-.481-1.422c-.242-.582-.343-.829-.744-.829h-.019c-.23.04-.489.183-1.481 1.551a56.639 56.639 0 01-2.258 2.893c-.334.404-.675.81-1.014 1.203-.338.388-.683.747-1.039 1.076a10.408 10.408 0 01-1.684 1.387c-.503.326-.959.491-1.302.499a.73.73 0 00-.223-.043c.019-.116.082-.377.332-.852.25-.473.563-.972.91-1.461.158-.181.32-.375.473-.571.155-.197.311-.396.47-.606.064-.087.13-.167.213-.247.104-.101.197-.215.263-.3.534-.59 1.046-1.126 1.53-1.633.486-.492.972-.972 1.453-1.43a26.513 26.513 0 012.371-1.973 26.38 26.38 0 012.877-1.811l.14-.059c.083-.032.155-.064.285-.124.056-.022.117-.043.197-.08a9.387 9.387 0 012.377-.815c.778-.152 1.419-.224 1.902-.224.24 0 .438.014.666.056 0 .109-.015.247-.047.42a4.822 4.822 0 01-.173.608 2.065 2.065 0 01-.09.303l-.234.585c-.31.8-.656 1.67-1.041 2.619a86.84 86.84 0 01-1.225 2.879 85.878 85.878 0 01-1.023 2.186c-.345.716-.682 1.416-1.006 2.058l-1.025 1.775h-2.635c-.17 0-.42.069-.659.366a4.537 4.537 0 00-.332.489 7.827 7.827 0 00-.374.672l-.223.431c-.088.156-.16.308-.189.387-.491.837-.56 1.134-.515 1.36.114.558.84.513 1.105.558l1.652-.034a4.88 4.88 0 01-.31.611 46.502 46.502 0 01-1.631 2.515 3.187 3.187 0 00-.309.356 2.803 2.803 0 00-.228.34 60.305 60.305 0 01-1.514 1.873c-.472.565-.797.95-.977 1.155l-.648.741h2.611c.29 0 .598-.014.903-.035a49.75 49.75 0 001.674-.103c.66-.048.96-.123 1.128-.292.332-.261.68-.643 1.055-1.164.369-.516.751-1.108 1.155-1.777.1-.202.205-.399.319-.603.114-.196.226-.395.369-.621l.967-1.769c.247-.464.475-.877.677-1.235l4.404.043a.838.838 0 00.356-.091c.095-.05.18-.111.276-.199.138-.148.276-.363.414-.675.12-.26.26-.642.41-1.088.153-.356.283-.662.4-.917.117-.262.215-.48.293-.663l.265-.632zm-20.6 2.512h.1l.027.372-.128-.372zm28.537-9.225c.354.441.874.678 1.565.707h.231c.678 0 1.238-.191 1.671-.574.396-.355.685-.746.828-1.094.085-.122.136-.26.162-.409.01-.053.027-.103.042-.164.043-.112.061-.245.061-.367v-.23c0-.616-.18-1.158-.542-1.612-.38-.475-.924-.736-1.622-.768l-.438.006c-.582.096-1.126.39-1.618.882-.491.491-.789 1.065-.88 1.7l-.002.125a.566.566 0 00-.04.21l.003.244c.061.493.258.944.58 1.345zm3.828-1.423c.01-.011.019-.027.03-.04l.159.026-.19.014zm39.546-1.123c-.201-.518-.6-.577-.759-.577h-1.14c.053-.138.115-.29.184-.46l.639-1.546c.053-.14.104-.268.147-.39.031-.109.077-.223.124-.348.183-.467.346-.924.492-1.373.149-.47.252-.87.3-1.21.029-.14.051-.265.064-.376.015-.123.023-.245.023-.37 0-.501-.119-.921-.356-1.248a1.386 1.386 0 00-1.015-.584l-.161-.003c-.104 0-.205.01-.303.031a.859.859 0 00-.319.13 4.049 4.049 0 00-.537.32c-.2.14-.382.302-.507.459-.085.09-.172.18-.253.276-.093.106-.17.202-.214.277a11.62 11.62 0 00-.529.786c-.183.309-.369.664-.558 1.06a19.68 19.68 0 00-.852 2.154 30.622 30.622 0 00-.68 2.414h-2.15c-.308 0-.743.115-1.075.635a3.55 3.55 0 00-.449 1.073c-.03.15-.048.277-.064.383a3.42 3.42 0 00-.021.369c0 .26.037.478.106.672.114.316.356.507.653.507h1.567a34.898 34.898 0 01-.435 1.137l-.056.125c-.124.377-.25.733-.377 1.06a8.49 8.49 0 01-.26.629c-.075.17-.271.497-.766 1.092a29.598 29.598 0 01-1.466 1.644 1.06 1.06 0 01-.177.196 1.994 1.994 0 00-.284.303 61.896 61.896 0 01-1.66 1.66c-.327.308-.553.512-.725.659l-.55.424c-.152.128-.362.298-.627.515-.269.215-.569.452-.951.749a.553.553 0 01-.12.096l-.246.17c-.269.197-.534.38-.79.542l.077-.221c.17-.515.309-1.057.418-1.607.076-.374.138-.749.178-1.126.04-.364.071-.685.099-.956.029-.215.039-.588.039-1.118v-4.266c.016-.04.034-.085.062-.143l.114-.189a1.74 1.74 0 00.223-.284c.085-.138.178-.324.279-.55.106-.25.18-.56.202-.937l.053-.264-.006-.122a3.217 3.217 0 00-.452-1.482c-.217-.361-.663-.794-1.54-.794-.792 0-1.432.318-1.905.95a5.27 5.27 0 00-.884 1.838c-.08.279-.14.566-.186.858-.04.295-.061.55-.061.773v.143c-.33.518-.882 1.265-1.642 2.224-.81 1.028-1.796 2.108-2.868 3.166-.101.069-.191.14-.282.228l-.204.213c-.069.066-.17.148-.303.247-.135.1-.276.22-.412.35l-.725.609c-.167.146-.276.27-.345.398-.032.04-.067.077-.072.093a8.81 8.81 0 01-.574.515 11.34 11.34 0 01-.815.635c-.12.064-.226.12-.319.186-.099.066-.2.148-.21.178l-1.096.653a8.348 8.348 0 01-.739.401h-.003c.186-.374.385-.784.603-1.225.24-.499.505-.995.784-1.503l.05-.16c.024-.04.048-.085.072-.13l.748-1.503a23.404 23.404 0 00.8-1.772c.058-.13.104-.266.136-.407.06-.135.098-.281.117-.446.01-.149.018-.274.016-.425a3.112 3.112 0 00-.314-1.166c-.19-.387-.52-.725-.95-.977a2.005 2.005 0 00-.76-.332 4.232 4.232 0 00-1.317-.022c-.2.03-.377.056-.584.094-.149.039-.276.074-.385.095h-.125c-.032-.106-.053-.229-.072-.324 0-.119-.013-.236-.026-.364a4.312 4.312 0 00-.059-.353c-.068-.48-.334-.895-.794-1.24-.517-.388-1.184-.563-1.994-.47-.128.01-.266.031-.319.053a.744.744 0 00-.4.12.797.797 0 01-.12.055l-.126.062c-.313.217-.6.562-.846 1.017a3.012 3.012 0 00-.386 1.471c0 .306.059.622.16.92a2.3 2.3 0 00.348.624c-1.047 1.596-2.035 2.892-2.935 3.864-.253.279-.518.555-.797.831-.273.277-.557.537-.892.819l-.07.093h-.289v.297c-.268.218-.582.465-.94.744-.375.287-.96.688-1.766 1.219a6.773 6.773 0 01-.662.351c.117-.316.356-.882.72-1.684l1.312-2.912a497.64 497.64 0 012.157-4.669l.3-.635h-4.65l-.109.298c-.151.43-.279.773-.361.991a5.636 5.636 0 00-.162.343c-.04.093-.082.167-.143.268l-.13.225a5.66 5.66 0 01-.463.569l-.74.821-.155.149c-.29.262-.557.517-.804.773l-1.081 1.076c-.213.212-.45.433-.696.661-.292.26-.553.512-.792.744l-.502.507c-.143.143-.205.354-.244.8-.024.302-.04.642-.04 1.02v.114c0 .374.015.712.04 1.009.026.271.08.832.565.832.157 0 .325-.051.505-.152.135-.076.281-.175.46-.318a.356.356 0 00.063-.08c-.106.279-.205.55-.297.819-.144.419-.218.81-.218 1.171 0 .234.045.465.124.688.088.261.247.481.46.654.239.209.534.35.885.414.297.056.618.082 1.046.082h.13a9.895 9.895 0 001.108-.143c.374-.067.672-.144.874-.237.398-.156.797-.332 1.206-.531a21.606 21.606 0 002.719-1.575c.375-.255.741-.534 1.11-.834.176-.074.513-.268 1.406-1.051a80.036 80.036 0 002.093-1.936l.762-.771c.233-.23.462-.467.685-.698.22-.234.436-.471.64-.702a31.04 31.04 0 001.124-1.262c.16-.201.27-.369.334-.502l.07-.095c.055-.07.14-.186.241-.34.016-.014.056-.059.154-.101.125-.053.25-.088.37-.106l.273-.032.085.002c-.35.773-.696 1.496-1.028 2.162a147.7 147.7 0 00-1.049 2.13c-.258.547-.51 1.106-.757 1.676a34.706 34.706 0 00-.74 1.862 5.595 5.595 0 01-.09.377 2.066 2.066 0 00-.072.542c.026.632.284 1.18.756 1.62.56.521 1.275.736 2.3.64.176-.016.356-.059.492-.109.99-.204 1.936-.544 2.834-.998a16.698 16.698 0 002.385-1.461c.34-.234.661-.473.97-.707l.241-.194c.348-.262.749-.616 1.233-1.07.454-.43.922-.895 1.402-1.397a.664.664 0 00.188-.189l.12-.085c.77-.796 1.477-1.514 2.12-2.161.233-.229.41-.396.538-.516a7.788 7.788 0 01-.085.98c-.066.433-.149.89-.241 1.342a14.206 14.206 0 01-.638 1.853c-.268.627-.52.869-.743.991a.597.597 0 01-.157.09l-.306.056c-.117 0-.271-.026-.454-.069a9.811 9.811 0 00-.903-.152 2.62 2.62 0 00-.39-.071c-.396-.038-.856-.022-1.206.201-.295.178-.465.505-.508.962v.194c0 .135.019.284.053.422.027.138.075.289.143.452.115.27.282.528.494.764.231.269.505.455.85.571.446.106.808.181 1.087.237.677.124 1.075.101 1.386.005.115-.027.22-.072.319-.114l.138-.048c.08-.037.175-.074.284-.104.194-.05.55-.031.821-.058.095-.011.188-.022.28-.022h.265a7.1 7.1 0 001.261-.124c.449-.083 1.036-.258 1.74-.516a5.34 5.34 0 00.528-.209c.178-.08.364-.181.534-.274.224-.117.447-.25.667-.401.21-.144.41-.277.59-.415.393-.289.87-.669 1.341-1.073l1.432-1.227c.071-.066.143-.13.214-.197-.2.587-.438 1.339-.727 2.354l-.03.119a.63.63 0 00-.047.245v.138c.03.532.265 1.002.701 1.405.433.402 1.07.601 1.907.601h.25c.12 0 .25-.013.353-.042.401-.061.888-.199 1.446-.41.55-.215 1.126-.478 1.683-.781.247-.114.49-.241.71-.379.199-.122.411-.25.65-.383a22.71 22.71 0 001.6-1.062c.467-.353.783-.603.95-.776.08-.077.149-.164.205-.262.056-.088.104-.194.096-.205.164-.263.262-.531.294-.8a4.58 4.58 0 00.043-.597l.04-.385c0-.418-.064-.781-.19-1.087-.18-.419-.437-.638-.764-.638a.563.563 0 00-.268.072l-.135.079c-.25.173-.651.519-1.214 1.05-.52.497-1.227 1.038-2.085 1.602-.123.079-.255.151-.388.225-.149.08-.287.16-.415.234a2.617 2.617 0 01-.406.207c-.032.008-.053.019-.075.024 0-.019-.005-.042-.005-.075 0-.1.019-.236.05-.39.035-.157.096-.34.19-.558.156-.39.31-.784.464-1.182.157-.396.308-.789.462-1.171a415.037 415.037 0 012.003-4.877c.588-1.402 1.105-2.616 1.54-3.639h1.828c.467 0 .85-.223 1.097-.645a2.92 2.92 0 00.377-1.025.994.994 0 00.053-.319v-.24a2.82 2.82 0 00-.19-.83zm-48.138 18.331h.131l.029.367-.16-.367z" opacity=".72" fill="#000"/><path d="M48.741 89.404c-.372-.521-.986-.88-1.833-1.06-.284-.05-.579-.096-.886-.133a8.11 8.11 0 00-.968-.059c-.924 0-1.88.115-2.87.346-.994.233-1.976.568-2.954 1.004-2.24.924-4.399 2.197-6.483 3.82-2.083 1.622-3.828 3.316-5.246 5.094-.847 1.078-1.535 2.138-2.06 3.184-.529 1.039-.819 2.008-.875 2.911v.346c0 .207.019.422.043.654.023.234.077.464.156.695.18.593.529 1.142 1.06 1.639.526.505 1.328.744 2.409.717h.31c.33-.029.67-.079 1.004-.154a5.151 5.151 0 001.001-.348c.925-.39 1.852-.949 2.779-1.679a25.55 25.55 0 002.544-2.295c.72-.77 1.352-1.511 1.89-2.217.543-.713.928-1.265 1.156-1.676a3.465 3.465 0 00-.096-.407 5.686 5.686 0 01-.093-.409 13.367 13.367 0 00-.175-.613 5.763 5.763 0 00-.213-.579 13.044 13.044 0 00-.462-1.373c-.154-.37-.244-.558-.27-.558-.154.024-.553.481-1.196 1.373a57.525 57.525 0 01-2.279 2.906c-.332.415-.675.821-1.02 1.217-.348.398-.701.77-1.06 1.099a10.746 10.746 0 01-1.756 1.45c-.576.375-1.113.558-1.604.558a.297.297 0 01-.093-.019.458.458 0 00-.135-.018.3.3 0 01-.099-.022.29.29 0 00-.095-.018c-.074-.027-.13-.067-.154-.115a.522.522 0 01-.04-.231c0-.258.128-.632.388-1.118.258-.492.576-1.006.961-1.546a21.932 21.932 0 00.927-1.158c.08-.103.16-.199.253-.284.09-.093.172-.189.25-.292a84.486 84.486 0 011.543-1.642c.489-.5.977-.98 1.466-1.444a24.946 24.946 0 015.362-3.859c.05-.024.107-.05.176-.077.063-.027.12-.05.172-.077l.135-.059c.038-.013.08-.032.136-.053a9.954 9.954 0 012.49-.853c.807-.156 1.47-.236 1.986-.236.308 0 .558.022.752.064.194.037.3.093.326.172a.163.163 0 01.037.115v.157a3.405 3.405 0 01-.23 1.116 2.2 2.2 0 01-.112.39c-.053.127-.106.255-.154.382a.372.372 0 01-.021.1.254.254 0 01-.059.094c-.311.797-.653 1.674-1.044 2.624a77.66 77.66 0 01-1.234 2.893 91.225 91.225 0 01-1.02 2.199c-.351.723-.691 1.413-1.02 2.082-.208.359-.41.707-.603 1.044l-.555.963h-2.892c-.106 0-.21.064-.313.194a3.206 3.206 0 00-.309.46c-.053.074-.109.175-.175.289-.061.117-.12.228-.17.329-.08.154-.157.3-.234.441a6.189 6.189 0 00-.191.407c-.334.571-.489.914-.465 1.044.03.13.247.191.656.191l2.01-.038c.28.078.187.51-.27 1.291a38.455 38.455 0 01-1.7 2.603 3.047 3.047 0 00-.268.305c-.08.107-.154.226-.234.354a66.238 66.238 0 01-1.524 1.888c-.476.569-.803.951-.98 1.159h1.616c.282 0 .582-.014.887-.038a69.355 69.355 0 001.663-.101c.51-.037.794-.093.847-.17.306-.231.64-.598 1.002-1.102.361-.499.733-1.073 1.119-1.71.103-.21.214-.415.326-.62.117-.206.242-.411.37-.616.337-.616.655-1.211.96-1.777.311-.563.583-1.057.814-1.466h4.592c.026.021.05.037.076.037a.4.4 0 00.152-.037.55.55 0 00.156-.117c.104-.106.213-.281.327-.542.12-.257.252-.613.404-1.078.153-.365.29-.67.408-.927.115-.261.21-.476.287-.654h-4.667c.205-.643.558-1.487 1.063-2.528.497-1.042 1.03-2.154 1.6-3.336a32.1 32.1 0 00.384-.813c.13-.281.26-.563.383-.847.236-.513.451-1.025.658-1.546.205-.51.399-1.015.58-1.5.31-.774.546-1.515.714-2.221.167-.707.25-1.341.25-1.907.001-.825-.185-1.497-.557-2.028z" fill="url(#paint4_linear_224_13468)"/><path d="M58.521 99.22h.231c.566 0 1.023-.155 1.368-.458.348-.31.598-.645.752-1.007a.599.599 0 00.098-.23c.01-.078.03-.152.056-.231a.71.71 0 00.042-.234v-.228c0-.516-.148-.962-.446-1.328-.297-.372-.725-.576-1.288-.598h-.351c-.489.075-.945.322-1.368.749-.427.425-.675.906-.756 1.447v.152a.327.327 0 00-.035.12v.188c.048.414.21.786.48 1.12.271.335.676.519 1.217.537z" fill="url(#paint5_linear_224_13468)"/><path d="M99.566 96.294h-1.774c.077-.257.212-.616.406-1.078.192-.465.404-.978.635-1.546.053-.13.096-.25.136-.367a7.28 7.28 0 01.135-.367c.18-.462.337-.91.48-1.354.144-.43.24-.82.29-1.156.027-.13.045-.241.058-.345.014-.104.022-.205.022-.31 0-.41-.09-.74-.274-.98a.948.948 0 00-.693-.412h-.114c-.08 0-.15.01-.213.024a.515.515 0 00-.212.095 3.71 3.71 0 00-.484.292c-.167.112-.313.25-.44.404-.08.08-.16.16-.232.253-.076.087-.143.17-.193.252a6.884 6.884 0 00-.502.752 10.19 10.19 0 00-.542 1.017 18.502 18.502 0 00-.826 2.104c-.274.81-.524 1.718-.758 2.722h-2.504c-.287 0-.516.14-.693.423a3.02 3.02 0 00-.391.927c-.024.13-.042.246-.053.347a2.035 2.035 0 00-.019.309c0 .204.022.377.072.52.053.14.13.213.233.213h2.2c-.027.104-.104.326-.229.677-.132.346-.273.712-.427 1.097 0 .023-.014.05-.037.074-.128.388-.261.749-.386 1.087-.132.332-.22.552-.27.65-.13.287-.404.683-.831 1.198a29.333 29.333 0 01-1.445 1.62 1.72 1.72 0 01-.253.271 1.58 1.58 0 00-.25.268c-.59.621-1.15 1.179-1.678 1.676a16.03 16.03 0 01-.837.757c-.01.002-.016-.006-.032 0a1.144 1.144 0 01-.271.188c-.024.03-.05.056-.074.08-.024.024-.053.05-.077.071-.157.136-.364.308-.638.529-.27.22-.571.457-.908.709a1.42 1.42 0 01-.191.157l-.232.154c-.411.308-.812.571-1.197.791-.385.221-.654.303-.81.25.234-.305.433-.708.6-1.216.165-.502.303-1.02.407-1.559.074-.361.132-.719.17-1.081.04-.361.072-.682.098-.966.026-.205.04-.558.04-1.06v-4.341c.026-.077.05-.149.077-.215a.524.524 0 01.116-.172.448.448 0 01.112-.194 1.13 1.13 0 00.157-.191c.074-.125.16-.295.252-.5a2.45 2.45 0 00.172-.775v-.072c0-.026.014-.064.038-.117v-.153a2.68 2.68 0 00-.388-1.275c-.231-.388-.614-.58-1.153-.58a1.84 1.84 0 00-1.548.774 4.729 4.729 0 00-.805 1.697c-.082.257-.138.52-.175.791a4.93 4.93 0 00-.059.712v.271c-.334.541-.913 1.33-1.734 2.377a35.903 35.903 0 01-2.97 3.251 1.838 1.838 0 00-.217.178c-.064.066-.13.132-.21.209a2.993 2.993 0 01-.345.293 3.677 3.677 0 00-.465.404c-.026 0-.05.016-.075.042l-.579.5c-.151.125-.225.223-.252.297-.048.056-.08.083-.136.165a11.5 11.5 0 01-1.503 1.238 1.33 1.33 0 00-.27.154 1.42 1.42 0 00-.232.191c-.385.231-.754.452-1.102.656a6.707 6.707 0 01-.791.422c-.05.024-.094.048-.133.056-.037.019-.085.008-.133-.018a.395.395 0 01-.31-.133.435.435 0 01-.117-.29.108.108 0 00.04-.074c.208-.417.43-.871.677-1.374a40.59 40.59 0 01.787-1.524c0-.051.016-.093.037-.133a.793.793 0 00.08-.133l.754-1.506c.244-.489.457-.951.635-1.392l.154-.366c.056-.112.093-.234.117-.364a.966.966 0 00.095-.351c.016-.124.022-.244.022-.345a2.643 2.643 0 00-.27-1.004c-.155-.305-.426-.573-.808-.807a1.453 1.453 0 00-.58-.253 3.293 3.293 0 00-.618-.056c-.18 0-.37.011-.56.037-.189.027-.367.053-.52.08-.184.048-.336.088-.463.114a1.86 1.86 0 01-.308.038c-.026 0-.04-.014-.04-.038h-.077a.715.715 0 01-.175-.313 4.186 4.186 0 01-.099-.462c0-.099-.002-.202-.016-.306-.016-.101-.031-.22-.055-.346-.054-.361-.258-.677-.617-.945-.363-.274-.812-.407-1.352-.407a2.78 2.78 0 00-.33.022 7.723 7.723 0 00-.368.053.353.353 0 00-.17.058 1.41 1.41 0 01-.213.099c-.258.18-.497.47-.718.868a2.592 2.592 0 00-.326 1.251c0 .26.048.515.138.778.088.253.25.494.48.728-1.133 1.748-2.185 3.153-3.163 4.205-.26.284-.525.571-.81.849-.283.279-.578.553-.886.808-.019.026-.037.064-.053.096a.114.114 0 01-.064.055c-.03.032-.045.048-.058.064-.01.011-.032.019-.059.019 0 .029-.013.053-.037.077l-.077.08c-.28.231-.616.491-1.001.786-.388.297-.996.714-1.814 1.259a7.483 7.483 0 01-.736.382 1.206 1.206 0 01-.464.114c-.101 0-.165-.021-.189-.076a.408.408 0 01-.04-.194.24.24 0 01.019-.109.268.268 0 00.021-.117c0-.026.011-.051.04-.082.1-.306.358-.916.768-1.827.411-.914.852-1.886 1.315-2.916a553.115 553.115 0 012.159-4.664h-3.629a41.25 41.25 0 01-.382 1.035c-.053.109-.106.216-.154.332a2.14 2.14 0 01-.157.285l-.076.159a.457.457 0 01-.078.117 6.112 6.112 0 01-.502.616 61.651 61.651 0 01-.847.927l-.08.075c-.281.255-.547.507-.789.751a29.6 29.6 0 00-.56.564c-.128.122-.306.302-.52.517-.218.223-.457.441-.715.677-.284.253-.542.5-.77.733-.232.232-.401.396-.497.5-.056.053-.093.225-.122.523-.024.295-.038.622-.038.986v.111c0 .359.014.686.038.965.029.284.066.428.122.428a.631.631 0 00.287-.101c.112-.061.236-.146.364-.25a.615.615 0 00.074-.095c.03-.04.056-.07.08-.099a1.36 1.36 0 00.308-.244 3.05 3.05 0 01.194-.218 1.11 1.11 0 01.117-.095c.05-.032.1-.067.154-.096v-.04c.101-.079.242-.18.425-.308l.034.042c-.05.179-.111.37-.188.577-.08.207-.17.411-.27.613v.04c-.155.387-.299.768-.429 1.142a3.16 3.16 0 00-.191 1.021c0 .18.032.358.099.544.063.178.172.332.329.457.178.157.4.258.672.311.273.05.56.076.869.076h.194a9.02 9.02 0 001.057-.138 3.47 3.47 0 00.794-.212 16.8 16.8 0 001.173-.516c.396-.197.805-.406 1.22-.638.486-.284.969-.587 1.445-.905.393-.266.778-.566 1.163-.879.008 0 .008.011.014.011.23-.107.663-.433 1.29-.986a57.985 57.985 0 002.066-1.913c.13-.122.255-.254.388-.382.122-.13.255-.258.385-.385a48.5 48.5 0 00.675-.696c.215-.233.427-.464.635-.696.592-.642.959-1.051 1.1-1.237.143-.173.236-.319.289-.423.026-.047.063-.108.116-.172a6.47 6.47 0 00.234-.327c.074-.106.189-.183.343-.25a2.36 2.36 0 01.464-.135.694.694 0 01.191-.04h.154c.184 0 .332.026.446.079.118.05.17.128.17.231v.077c0 .024-.01.045-.037.077-.385.844-.756 1.63-1.115 2.35-.364.723-.71 1.429-1.044 2.122a52.3 52.3 0 00-.751 1.663c-.244.56-.48 1.155-.712 1.775-.03.127-.061.257-.1.406a1.531 1.531 0 00-.056.399c.026.517.23.955.615 1.312.386.361.9.544 1.546.544.128 0 .264-.007.407-.021a1.76 1.76 0 00.44-.096c.951-.207 1.86-.523 2.72-.964.861-.438 1.64-.914 2.336-1.429.332-.231.648-.462.942-.693l.24-.197c.005 0 .005.006.013.006.334-.258.736-.608 1.198-1.041.46-.438.934-.917 1.426-1.429a.35.35 0 00.133-.117.409.409 0 01.138-.117c.77-.796 1.48-1.519 2.122-2.159.64-.645 1.028-.953 1.156-.927.05 0 .09.059.116.176.022.116.038.276.038.478 0 .311-.035.685-.096 1.121-.067.438-.15.9-.253 1.391a14.397 14.397 0 01-.654 1.912c-.257.601-.554.991-.89 1.172a.836.836 0 01-.289.154c-.087.029-.186.051-.289.08h-.154a2.58 2.58 0 01-.558-.08c-.22-.05-.52-.101-.906-.154-.105-.021-.214-.045-.332-.056a3.216 3.216 0 00-.363-.018c-.207 0-.394.053-.558.151-.17.106-.263.313-.29.619v.157c0 .098.011.209.04.326.025.117.062.236.112.367.104.228.247.448.427.655.179.205.383.345.617.42.438.106.788.178 1.06.236.27.05.499.077.674.077.208 0 .375-.022.502-.059a2 2 0 00.345-.135h.042c.104-.053.224-.098.367-.135a2 2 0 01.52-.059c.128 0 .247-.003.367-.016a2.9 2.9 0 01.326-.021h.265c.364 0 .755-.043 1.183-.12.425-.071.985-.239 1.675-.499a5.661 5.661 0 001.004-.462c.205-.107.412-.226.62-.367.204-.14.4-.273.575-.403.41-.303.904-.699 1.448-1.159.011-.005.013.003.019 0 .087-.076.186-.161.273-.239.011-.015.024-.018.038-.034 0 0 .005 0 .005-.003.31-.276.627-.552.959-.842a59.08 59.08 0 001.31-1.198h.116c-.05.234-.189.651-.403 1.254a42.49 42.49 0 00-.792 2.486.305.305 0 01-.022.099.404.404 0 00-.018.095.373.373 0 00-.037.117v.112c.023.414.212.784.557 1.105.348.319.882.483 1.599.483h.252c.09 0 .187-.015.29-.039a6.79 6.79 0 001.352-.385c.54-.205 1.094-.465 1.657-.773.234-.101.452-.216.656-.346.207-.127.425-.258.659-.385a22.2 22.2 0 001.559-1.044c.452-.337.754-.576.908-.735a.65.65 0 00.133-.173.937.937 0 00.096-.207c.13-.21.207-.414.234-.624.023-.2.04-.382.04-.54a.45.45 0 01.018-.135.293.293 0 00.018-.095v-.151c0-.356-.053-.662-.153-.903-.107-.247-.218-.369-.348-.369a.113.113 0 00-.08.037.098.098 0 00-.072.04c-.233.154-.618.491-1.16 1.001-.539.515-1.259 1.068-2.16 1.66a5.9 5.9 0 01-.403.228 10.49 10.49 0 00-.409.231 3.468 3.468 0 01-.457.236 1.003 1.003 0 01-.35.078.294.294 0 01-.25-.136c-.061-.091-.098-.226-.098-.409 0-.124.021-.287.058-.478.04-.191.11-.406.213-.64.154-.385.308-.778.465-1.174.154-.401.305-.791.462-1.179a405.393 405.393 0 013.665-8.794h2.12c.308 0 .547-.14.714-.425a2.63 2.63 0 00.327-.927.422.422 0 00.04-.191v-.194a2.566 2.566 0 00-.154-.715c-.078-.195-.198-.288-.35-.288z" fill="url(#paint6_linear_224_13468)"/><path d="M33.943 117.867h-2.609l.648-.744c.178-.205.508-.587.978-1.155a55.84 55.84 0 001.514-1.87c.056-.101.14-.231.23-.343a2.94 2.94 0 01.31-.359 41.271 41.271 0 001.63-2.515c.167-.284.258-.48.308-.608l-1.649.032c-.268-.04-.996 0-1.105-.555-.048-.228.024-.523.513-1.357.031-.083.103-.234.185-.391.08-.135.152-.281.226-.427.058-.112.116-.226.183-.351.071-.128.138-.234.197-.321a3.55 3.55 0 01.329-.492c.236-.297.489-.358.661-.358h2.632l1.026-1.782c.32-.643.66-1.336 1.006-2.056.348-.714.685-1.444 1.02-2.188a87.3 87.3 0 001.225-2.88c.388-.945.733-1.818 1.04-2.615l.234-.587c.04-.096.07-.194.09-.3a4.38 4.38 0 00.175-.611c.033-.17.048-.311.048-.42a3.277 3.277 0 00-.666-.053c-.486 0-1.124.074-1.904.22a9.498 9.498 0 00-2.372.816c-.083.037-.143.06-.2.077-.132.064-.204.101-.283.13l-.142.064a25.384 25.384 0 00-2.879 1.803 29.797 29.797 0 00-2.372 1.974c-.48.456-.964.937-1.447 1.428a86.129 86.129 0 00-1.535 1.637 3.67 3.67 0 01-.26.303c-.08.077-.15.153-.213.244-.157.205-.314.41-.473.606-.154.199-.314.388-.473.574a13.29 13.29 0 00-.906 1.455c-.252.481-.318.736-.332.855a.62.62 0 01.218.04c.345-.005.805-.173 1.304-.5.547-.35 1.11-.815 1.681-1.381.359-.332.704-.69 1.039-1.078.345-.395.68-.794 1.011-1.203a56.005 56.005 0 002.26-2.895c.996-1.371 1.252-1.51 1.488-1.546h.013c.401 0 .505.242.746.829.162.385.322.866.478 1.418.067.141.141.346.21.566.072.215.127.43.183.64.024.149.059.27.093.396.04.154.077.302.103.433l.035.167-.085.149c-.242.43-.645 1.014-1.19 1.729a30.327 30.327 0 01-1.92 2.255 27.055 27.055 0 01-2.595 2.34c-.956.754-1.926 1.338-2.887 1.739a5.743 5.743 0 01-1.07.366 6.478 6.478 0 01-1.073.168h-.188l-.154-.447.01.447-.167.003c-1.118 0-1.976-.284-2.563-.837-.582-.555-.98-1.174-1.182-1.838a3.393 3.393 0 01-.168-.776 5.53 5.53 0 01-.042-.704v-.345c.056-.985.362-2.029.916-3.121.534-1.056 1.244-2.15 2.112-3.25 1.429-1.802 3.222-3.541 5.32-5.175 2.106-1.639 4.324-2.943 6.587-3.88.99-.444 2.008-.787 3.02-1.025 1.39-.325 2.78-.449 4-.295.316.037.618.082.911.138.972.205 1.68.624 2.119 1.24.425.603.643 1.374.643 2.288 0 .597-.09 1.274-.266 2.015-.167.72-.416 1.493-.733 2.28-.175.48-.371.985-.579 1.505a36.22 36.22 0 01-.661 1.56l-.388.849c-.13.289-.262.566-.39.826l-1.6 3.334c-.35.722-.629 1.354-.831 1.882h4.712l-.266.622c-.08.184-.175.401-.295.662-.114.262-.247.565-.398.922-.146.443-.29.823-.412 1.088-.138.309-.273.529-.417.672a1.37 1.37 0 01-.27.202.819.819 0 01-.357.085l-4.406-.034a83.3 83.3 0 00-.68 1.229l-.964 1.772c-.138.223-.256.425-.37.622-.108.205-.217.404-.316.6a26.78 26.78 0 01-1.155 1.78c-.377.523-.725.905-1.057 1.166-.168.17-.46.244-1.13.292-.517.039-1.075.069-1.67.096-.305.027-.61.038-.905.038zm-.646-.898h.646c.27 0 .554-.014.854-.04a53.85 53.85 0 001.658-.093c.39-.034.547-.066.606-.079l.008-.006c.27-.204.576-.542.905-1.001.356-.5.728-1.068 1.1-1.687.09-.18.204-.395.321-.608a25.3 25.3 0 01.377-.637l.954-1.75c.308-.569.576-1.058.812-1.471l.128-.229 4.945.014c.03-.056.106-.17.213-.404.111-.25.239-.592.385-1.033.172-.404.308-.714.424-.972l.008-.024H43.05l.186-.584c.212-.656.577-1.527 1.086-2.587l1.597-3.336c.13-.256.26-.523.385-.802l.382-.845a48.406 48.406 0 001.224-3.02 14.92 14.92 0 00.699-2.172c.157-.661.239-1.27.239-1.801 0-.722-.162-1.318-.478-1.764-.303-.43-.829-.728-1.56-.887-.26-.045-.544-.085-.844-.122-1.124-.144-2.401-.019-3.684.28a15.59 15.59 0 00-2.87.977c-2.2.908-4.349 2.175-6.389 3.76-2.047 1.592-3.785 3.278-5.171 5.023-.83 1.049-1.506 2.091-2.016 3.103-.497.983-.77 1.897-.818 2.733v.323c0 .192.01.396.034.609.024.194.067.398.136.603.162.523.478 1.006.942 1.455.415.391 1.065.59 1.944.59l.311-.003.157.451-.035-.448a6.44 6.44 0 00.935-.146 5.34 5.34 0 00.919-.314c.895-.377 1.793-.919 2.683-1.628a24.258 24.258 0 002.504-2.253 30.82 30.82 0 001.857-2.175c.457-.606.807-1.103 1.039-1.482a5.526 5.526 0 00-.053-.215 5.54 5.54 0 01-.104-.439 12.644 12.644 0 00-.165-.568 4.725 4.725 0 00-.197-.537 13.918 13.918 0 00-.461-1.368c-.152.183-.375.46-.688.892a54.56 54.56 0 01-2.295 2.94c-.335.412-.68.821-1.03 1.225-.357.409-.723.792-1.093 1.134a11.522 11.522 0 01-1.816 1.495c-.65.418-1.27.633-1.849.633l-.228-.043c-.088.016-.15-.011-.234-.039-.345-.101-.46-.253-.516-.359a.891.891 0 01-.087-.432c0-.338.143-.773.438-1.331.268-.508.603-1.044.996-1.596.175-.205.33-.388.475-.577.152-.191.306-.382.454-.589a3.54 3.54 0 01.298-.34c.07-.072.143-.149.207-.234a60.609 60.609 0 011.58-1.69 67.36 67.36 0 011.477-1.46 28.752 28.752 0 012.454-2.037c.852-.627 1.864-1.26 3.004-1.889.08-.04.149-.066.22-.098a.844.844 0 00.139-.061c.077-.032.135-.062.183-.077.975-.467 1.846-.765 2.696-.927 1.373-.266 2.326-.295 2.91-.172.125.023.476.095.63.385.053.08.1.19.1.345v.154c0 .15-.023.345-.066.584a4.324 4.324 0 01-.197.691 1.92 1.92 0 01-.116.396l-.168.452a.602.602 0 01-.087.186c-.303.783-.646 1.638-1.023 2.568a81.755 81.755 0 01-1.243 2.906 65.114 65.114 0 01-1.025 2.209c-.348.723-.69 1.419-1.022 2.09l-1.301 2.256h-3.15c-.049.135-.142.273-.229.43-.064.098-.111.181-.172.284-.064.109-.12.218-.168.317a8.915 8.915 0 01-.236.454 3.427 3.427 0 00-.17.353 9.864 9.864 0 00-.335.621h.108l2.067-.039.061.019a.647.647 0 01.439.385c.138.345.015.796-.441 1.567a40.67 40.67 0 01-1.721 2.634 2.837 2.837 0 00-.274.325 2.97 2.97 0 00-.204.305 65.53 65.53 0 01-1.567 1.95c-.125.146-.245.286-.351.414z" fill="url(#paint7_linear_224_13468)"/><path d="M58.75 100.044h-.23c-.69-.035-1.21-.274-1.567-.707a2.627 2.627 0 01-.576-1.349l-.008-.247c0-.072.019-.135.045-.207l.002-.128c.091-.637.386-1.205.882-1.702.486-.486 1.033-.787 1.615-.877l.441-.003c.693.032 1.238.287 1.618.768.361.451.542.993.542 1.61v.23c0 .125-.019.253-.062.375-.018.053-.029.107-.04.157a1.05 1.05 0 01-.164.409c-.14.35-.433.74-.83 1.091-.434.386-.992.58-1.667.58zm.559-4.324h-.232c-.42.061-.788.263-1.147.621-.356.356-.563.747-.627 1.195l-.045.298c.05.372.175.662.398.94.187.225.473.35.885.367h.21c.457 0 .805-.112 1.073-.348a2.53 2.53 0 00.638-.842l.507-.056-.444-.072c.016-.101.04-.196.075-.297l.015-.325c0-.414-.114-.76-.347-1.051-.213-.268-.526-.411-.96-.43z" fill="url(#paint8_linear_224_13468)"/><path d="M90.325 116.054h-.253c-.83 0-1.471-.199-1.904-.603-.433-.401-.67-.871-.704-1.399v-.141c0-.085.016-.157.053-.244l.03-.117c.29-1.014.526-1.769.728-2.351-.07.061-.146.125-.216.194l-1.433 1.227c-.47.403-.943.783-1.336 1.07-.19.136-.385.271-.59.412-.223.16-.447.287-.672.404a9.56 9.56 0 01-.534.273 4.02 4.02 0 01-.528.21c-.702.263-1.289.436-1.74.518a7.104 7.104 0 01-1.262.127H79.7c-.088 0-.18.003-.282.014-.27.029-.624.007-.815.063a2.381 2.381 0 00-.284.101l-.141.048a1.98 1.98 0 01-.316.117c-.314.093-.71.122-1.39-.008a34.76 34.76 0 01-1.08-.234 1.903 1.903 0 01-.856-.571 3.152 3.152 0 01-.496-.765 2.418 2.418 0 01-.139-.451 1.686 1.686 0 01-.053-.428l.003-.191c.04-.457.208-.781.5-.959.355-.221.815-.242 1.21-.199.139.013.266.037.391.069.353.043.667.098.9.149.184.045.336.069.455.069l.309-.056a.587.587 0 00.154-.087c.22-.125.478-.367.746-.994.25-.584.462-1.211.632-1.854.098-.451.18-.902.247-1.333.05-.383.082-.718.087-.988-.13.119-.308.287-.544.52-.64.643-1.35 1.36-2.117 2.154l-.117.093a.828.828 0 01-.194.183c-.478.502-.948.97-1.402 1.397-.48.457-.882.81-1.23 1.073l-.247.191a29.2 29.2 0 01-.963.712 16.755 16.755 0 01-2.388 1.456 11.6 11.6 0 01-2.828 1.004 2.382 2.382 0 01-.497.106c-1.023.094-1.74-.122-2.295-.637a2.315 2.315 0 01-.762-1.626c0-.185.023-.361.074-.544.032-.128.064-.255.085-.375a40.272 40.272 0 011.506-3.535c.335-.698.683-1.407 1.047-2.13.33-.666.675-1.389 1.03-2.164-.026 0-.058-.003-.093-.003l-.268.03c-.12.023-.244.058-.372.111-.1.043-.138.08-.151.104a6.776 6.776 0 01-.242.337l-.069.093a3.36 3.36 0 01-.338.505c-.143.183-.517.603-1.12 1.264a36.103 36.103 0 01-1.326 1.397l-.765.767a59.847 59.847 0 01-2.093 1.936c-.892.784-1.23.978-1.405 1.055a17 17 0 01-1.108.834c-.483.326-.975.635-1.474.924a25.68 25.68 0 01-1.242.65c-.41.194-.813.372-1.209.529a3.9 3.9 0 01-.877.236 9.826 9.826 0 01-1.107.143l-.13.003a5.51 5.51 0 01-1.047-.085 1.85 1.85 0 01-.885-.412 1.491 1.491 0 01-.459-.648 2.038 2.038 0 01-.122-.693c0-.359.072-.754.215-1.169.096-.273.197-.544.303-.818a.984.984 0 01-.072.074 2.84 2.84 0 01-.454.319 1.05 1.05 0 01-.502.152c-.489 0-.542-.564-.568-.832-.03-.298-.04-.629-.04-1.007v-.111c0-.377.01-.717.04-1.025.037-.447.1-.651.239-.8l.507-.504c.236-.237.5-.487.787-.747.252-.228.483-.447.698-.661l1.084-1.078c.247-.247.515-.505.802-.768l.154-.149.743-.826a6.06 6.06 0 00.463-.566l.13-.223a2.42 2.42 0 00.141-.266 9.58 9.58 0 01.162-.35c.085-.216.21-.558.363-.986l.104-.3h4.654l-.298.64a470.4 470.4 0 00-2.162 4.664l-1.312 2.911a33.87 33.87 0 00-.717 1.684 5.71 5.71 0 00.661-.348c.808-.534 1.392-.935 1.767-1.222.361-.273.674-.52.943-.744v-.297h.287l.069-.093c.337-.281.624-.544.898-.812.276-.279.539-.558.794-.834.9-.978 1.885-2.271 2.932-3.865a2.297 2.297 0 01-.343-.624 2.708 2.708 0 01-.16-.916c0-.516.128-1.01.383-1.48.246-.451.536-.791.85-1.015l.119-.06c.04-.016.076-.03.12-.054a.792.792 0 01.4-.12c.057-.023.192-.044.324-.055.805-.09 1.474.082 1.992.473.457.342.726.762.794 1.24.024.117.043.241.056.348.019.13.024.253.024.369.02.088.045.213.075.327h.122c.111-.027.242-.058.39-.103.207-.038.386-.062.582-.091.462-.058.89-.058 1.32.03a1.8 1.8 0 01.754.321c.433.26.763.59.954.977.18.359.287.752.316 1.171 0 .149-.005.279-.019.42a1.421 1.421 0 01-.116.451 2.04 2.04 0 01-.133.407c-.05.109-.098.223-.149.351-.185.448-.4.927-.653 1.421l-.752 1.506a1.046 1.046 0 01-.07.124l-.052.16c-.28.512-.54 1.012-.781 1.503a68.83 68.83 0 01-.603 1.222h.006a8.56 8.56 0 00.738-.393l1.094-.654c.014-.034.112-.116.213-.18.09-.069.199-.125.316-.186.27-.188.562-.415.815-.635.263-.223.452-.393.579-.515 0-.016.037-.056.072-.093a1.25 1.25 0 01.337-.399l.73-.611c.136-.13.274-.244.415-.35.127-.099.228-.181.295-.245l.212-.21c.086-.087.179-.165.28-.233a36.284 36.284 0 002.868-3.161c.76-.964 1.31-1.713 1.638-2.229v-.141a5.959 5.959 0 01.253-1.633c.162-.647.46-1.274.882-1.838.473-.632 1.113-.948 1.905-.948.876 0 1.322.427 1.54.794.268.45.42.943.449 1.48l.005.122-.055.263c-.022.379-.088.687-.2.939a4.64 4.64 0 01-.276.55 1.55 1.55 0 01-.226.284l-.111.186c-.024.059-.046.104-.061.149v4.264c0 .528-.016.897-.043 1.115-.026.273-.058.598-.095.956-.043.375-.099.752-.18 1.129a12.096 12.096 0 01-.42 1.61c-.024.074-.051.146-.075.215.255-.159.52-.343.786-.544l.25-.165c.053-.04.096-.069.125-.099.377-.297.68-.533.945-.746.266-.221.475-.391.63-.516l.55-.425c.169-.146.397-.351.719-.658a49.898 49.898 0 001.665-1.665c.061-.088.167-.205.279-.298.069-.055.13-.124.183-.196a33.206 33.206 0 001.464-1.637c.494-.605.688-.932.767-1.099.056-.109.138-.319.26-.627.123-.332.25-.685.375-1.065l.059-.124c.149-.373.287-.731.411-1.066.008-.026.019-.047.027-.068h-1.573c-.295 0-.536-.194-.653-.508a1.982 1.982 0 01-.104-.675 3.404 3.404 0 01.085-.746c.09-.396.242-.755.446-1.079.335-.52.77-.632 1.076-.632h2.154c.21-.877.436-1.684.678-2.412.278-.828.565-1.55.852-2.153a9.7 9.7 0 01.56-1.063c.189-.314.364-.574.526-.792.045-.066.12-.165.213-.27a3.61 3.61 0 01.257-.277c.125-.16.306-.316.505-.457.183-.13.364-.239.534-.324a1 1 0 01.319-.133c.1-.019.196-.03.308-.03l.157.004c.406.04.76.239 1.015.587.236.324.355.743.355 1.25 0 .12-.002.248-.021.367a3.953 3.953 0 01-.064.377 8.525 8.525 0 01-.302 1.204 27.63 27.63 0 01-.489 1.376 6.06 6.06 0 00-.13.35c-.042.12-.087.25-.14.391l-.644 1.548c-.069.162-.13.319-.18.457h1.137c.161 0 .557.056.762.57.095.235.159.513.185.845l.003.231a.945.945 0 01-.05.317c-.067.366-.194.72-.38 1.033-.247.42-.627.643-1.1.643h-1.824c-.438 1.025-.956 2.236-1.54 3.641a298.105 298.105 0 00-2.468 6.043c-.152.401-.308.796-.465 1.182-.095.217-.154.4-.186.56a2.058 2.058 0 00-.048.388v.077a2.537 2.537 0 00.483-.234c.128-.075.266-.154.415-.237.135-.074.263-.141.385-.217.863-.566 1.567-1.108 2.083-1.602.568-.536.967-.882 1.221-1.049l.133-.079a.505.505 0 01.269-.077c.324 0 .582.215.762.643.125.303.191.666.191 1.083l-.042.386a4.7 4.7 0 01-.04.592 1.964 1.964 0 01-.298.804c.009.019-.037.115-.095.205a1.45 1.45 0 01-.202.265c-.17.162-.48.42-.95.771-.463.34-1.005.698-1.597 1.062a17 17 0 00-.656.385c-.22.135-.46.266-.706.38a13.8 13.8 0 01-1.684.773c-.56.215-1.05.355-1.442.414-.112.029-.24.045-.362.045zm-39.083-4.029l-.025.082c-.148.38-.289.752-.414 1.121-.111.319-.17.616-.17.874 0 .13.027.255.072.388.037.109.1.191.194.268a.952.952 0 00.467.213c.244.05.51.069.787.069l.194.446-.035-.443a9.479 9.479 0 001.013-.128c.385-.074.592-.144.693-.18a24.6 24.6 0 001.163-.516c.391-.186.784-.393 1.188-.627.478-.276.948-.568 1.416-.882.385-.263.759-.557 1.136-.86l.197-.098c.149-.088.462-.311 1.092-.86a65.625 65.625 0 002.05-1.894l.762-.768c.23-.228.454-.457.67-.688.212-.228.422-.456.626-.688.582-.635.943-1.033 1.08-1.206a2.14 2.14 0 00.242-.353 1.51 1.51 0 01.17-.252c.04-.056.112-.154.205-.295a1.22 1.22 0 01.547-.417c.191-.077.377-.13.56-.16a.735.735 0 01.269-.053h.154c.245 0 .454.046.627.117.281.133.44.364.44.648 0 .146-.018.274-.1.388a62.17 62.17 0 01-1.105 2.316c-.358.72-.701 1.423-1.04 2.116-.25.534-.503 1.084-.744 1.645a41.213 41.213 0 00-.704 1.755 2.99 2.99 0 01-.082.367 1 1 0 00-.043.284c.018.375.175.702.475.981.37.348.89.464 1.602.403.107-.01.223-.034.343-.074a10.874 10.874 0 002.656-.938c.84-.427 1.601-.889 2.27-1.391.338-.229.646-.46.936-.683l.374-.284c.28-.226.635-.539 1.044-.924.456-.431.927-.904 1.408-1.413l.122-.088a.725.725 0 01.194-.189c.757-.783 1.45-1.487 2.082-2.122.898-.895 1.196-1.062 1.461-1.062.117.005.46.045.57.526.03.164.049.348.049.581 0 .329-.032.723-.098 1.187-.07.447-.152.917-.26 1.416a14.814 14.814 0 01-.68 1.992c-.3.706-.657 1.163-1.087 1.394-.09.072-.234.154-.375.191l-.573.101c-.189 0-.407-.031-.659-.09a9.544 9.544 0 00-.865-.146 1.728 1.728 0 00-.317-.059c-.212-.023-.46-.04-.642.072-.014.002-.06.072-.078.268v.117c0 .072.011.149.032.231.018.093.05.194.093.295.074.175.194.353.343.529a.992.992 0 00.42.297c.392.088.74.159 1.008.215.532.099.853.061.962.029.104-.029.194-.066.276-.106l.141-.045c.101-.048.216-.088.346-.123.257-.071.626-.045.95-.087.14-.016.263-.021.383-.021h.265c.337 0 .707-.043 1.102-.112.396-.074.935-.234 1.602-.48.149-.051.298-.109.447-.181a3.79 3.79 0 00.488-.252c.207-.104.396-.213.587-.343.202-.141.393-.271.568-.401.394-.293.885-.683 1.424-1.137l1.283-1.11c.43-.382.865-.778 1.301-1.19l.13-.119h.853l-.125.547c-.056.255-.194.685-.42 1.307a43.035 43.035 0 00-.759 2.404l-.08.358c.017.263.155.524.418.771.26.236.696.363 1.29.363h.253c.05 0 .112-.015.186-.029a6.317 6.317 0 001.294-.372 12.957 12.957 0 001.604-.741c.247-.112.444-.218.635-.337.212-.131.436-.264.675-.396a17.55 17.55 0 001.51-1.012c.538-.393.763-.59.859-.688l.068-.091a.438.438 0 00.053-.119c.141-.242.191-.391.213-.537.021-.181.037-.34.037-.481 0-.098.014-.194.04-.279 0-.385-.04-.629-.115-.815a17.02 17.02 0 00-.94.842c-.558.531-1.304 1.107-2.225 1.713-.152.087-.293.164-.436.25a4.898 4.898 0 00-.388.217c-.21.12-.388.21-.531.269-.446.18-.887.13-1.132-.221-.12-.162-.18-.385-.18-.666a3 3 0 01.069-.566 3.59 3.59 0 01.244-.733c.144-.369.298-.757.449-1.155.157-.399.313-.794.467-1.18a386.827 386.827 0 012.008-4.892 1193.7 1193.7 0 011.663-3.918l.117-.27h2.417c.122 0 .228-.032.332-.203.133-.233.223-.491.266-.767l.042-.127-.008-.189a2.044 2.044 0 00-.125-.544l-2.305-.011.172-.574c.083-.268.218-.646.423-1.126l.635-1.54c.045-.117.085-.232.121-.338.043-.125.09-.258.144-.396.178-.449.334-.887.475-1.323.136-.416.221-.776.271-1.08.03-.139.042-.245.056-.34a2.22 2.22 0 00.019-.25c0-.311-.064-.555-.184-.723-.106-.138-.217-.207-.374-.218a.992.992 0 00-.202.011c-.233.13-.38.21-.52.314-.136.09-.255.199-.359.323a3.622 3.622 0 00-.393.463 8.65 8.65 0 00-.497.738c-.17.28-.342.611-.512.978a18.144 18.144 0 00-.813 2.053 30.35 30.35 0 00-.739 2.682l-.082.346h-2.864c-.06 0-.18 0-.316.218a2.416 2.416 0 00-.377 1.089 2.08 2.08 0 00.008.533h2.614l-.146.561a8.76 8.76 0 01-.244.723c-.12.326-.25.666-.396 1.028v.101l-.085.1c-.123.37-.247.713-.367 1.031-.14.356-.239.587-.29.696-.142.308-.43.731-.883 1.281a34.13 34.13 0 01-1.466 1.646 2.081 2.081 0 01-.287.298 1.366 1.366 0 00-.183.205 52.329 52.329 0 01-1.73 1.731c-.403.386-.666.619-.857.773l-.12.069a.161.161 0 01-.042.035.981.981 0 01-.154.106l-.115.115a40.171 40.171 0 01-1.582 1.269 1.069 1.069 0 01-.215.167l-.234.157c-.401.303-.816.579-1.222.808-.39.22-.688.323-.93.323l-.241-.039-.595-.205.371-.494c.205-.263.383-.63.535-1.081.16-.483.29-.985.39-1.509.075-.355.13-.698.168-1.043.04-.356.071-.68.096-.957.026-.207.039-.544.039-1.02l.021-4.483c.027-.083.06-.165.088-.237a.93.93 0 01.144-.247.963.963 0 01.185-.27.696.696 0 00.099-.128 3.99 3.99 0 00.212-.43c.072-.157.117-.371.14-.627a.716.716 0 01.052-.286l-.014.002a2.29 2.29 0 00-.326-1.07c-.094-.152-.271-.356-.768-.356-.507 0-.882.189-1.185.585-.35.472-.597.988-.735 1.545a5.38 5.38 0 00-.168.744c-.031.244-.05.465-.05.648v.244l-.067.266c-.345.554-.922 1.341-1.764 2.411a35.882 35.882 0 01-3.01 3.304 2.193 2.193 0 00-.215.173l-.206.207c-.09.091-.22.202-.4.335a3.808 3.808 0 00-.41.361l-.68.561a.625.625 0 00-.125.127l-.09.148-.147.165a9.514 9.514 0 01-.626.563c-.28.247-.595.481-.94.725a3.52 3.52 0 00-.279.159c-.048.035-.107.08-.162.136l-1.19.728a8.141 8.141 0 01-.837.446c-.056.03-.122.058-.177.075l-.179.029a.543.543 0 01-.194-.037.782.782 0 01-.552-.287.855.855 0 01-.22-.574v-.183l.084-.098c.204-.407.428-.863.67-1.363.238-.484.488-.975.761-1.466a.718.718 0 01.099-.247l.802-1.596c.239-.473.446-.925.621-1.352.056-.131.106-.258.162-.377.04-.091.067-.179.088-.277l.037-.116a.55.55 0 00.051-.187 3.37 3.37 0 00.016-.302 2.145 2.145 0 00-.223-.802c-.115-.226-.325-.438-.638-.624a1.04 1.04 0 00-.43-.194 3.016 3.016 0 00-1.031-.016c-.191.026-.359.045-.508.074a5.82 5.82 0 01-.448.112c-.168.034-.3.051-.399.051h-.452l-.015-.207a1.198 1.198 0 01-.253-.465 2.977 2.977 0 01-.112-.528 2.699 2.699 0 00-.023-.319 6.078 6.078 0 00-.05-.308c-.035-.266-.184-.475-.447-.677-.332-.258-.762-.375-1.354-.298-.11.01-.216.034-.33.053-.104.043-.183.085-.263.112-.186.143-.363.377-.534.682-.183.34-.27.675-.27 1.044 0 .205.037.409.109.619.066.194.19.38.38.566l.255.255-.2.305c-1.141 1.769-2.223 3.203-3.21 4.266-.258.286-.535.573-.824.863-.27.271-.557.531-.85.783a.614.614 0 01-.19.218.696.696 0 01-.07.061l-.13.136a27.8 27.8 0 01-1.041.823c-.39.303-.99.72-1.84 1.28a9.109 9.109 0 01-.8.419 1.62 1.62 0 01-.646.152c-.377 0-.53-.205-.592-.332a.812.812 0 01-.085-.388c0-.127.027-.233.075-.327v-.196l.071-.053c.122-.345.372-.922.742-1.748l1.315-2.914a409.59 409.59 0 011.864-4.032h-2.605c-.115.309-.208.561-.287.76-.061.127-.112.231-.16.337a2.336 2.336 0 01-.191.359l-.045.098a.963.963 0 01-.16.234c-.06.103-.241.329-.49.605l-.95 1.025c-.286.263-.544.51-.785.747l-1.076 1.084c-.228.223-.47.454-.736.685-.276.255-.526.497-.757.722l-.446.447c-.006.04-.022.133-.038.3a11.55 11.55 0 00-.037.946v.111c0 .269.008.513.022.733a.175.175 0 00.058-.045.48.48 0 01.12-.154 1.92 1.92 0 00.28-.223c.09-.106.163-.186.221-.247a2.19 2.19 0 01.162-.135.698.698 0 01.059-.04l.096-.096.708-.512.492.436-.037.292c-.053.191-.12.396-.205.61a5.447 5.447 0 01-.251.583z" fill="url(#paint9_linear_224_13468)"/><path d="M47.16 126.874a24.39 24.39 0 00.41-1.867c.082-.382.135-.794.164-1.246l.077-1.861c0-1.047-.08-2.056-.239-3.004-.162-.983-.436-1.758-.797-2.289-.557-.864-1.242-1.498-2.037-1.876a5.463 5.463 0 00-2.395-.571h-.285c-.136 0-.265.022-.29.043a7.065 7.065 0 00-2.74.845 7.665 7.665 0 00-2.227 1.771c-.685.765-1.45 1.796-2.279 3.068-.83 1.272-1.7 2.858-2.576 4.722a60.643 60.643 0 00-1.012 2.29c-.332.794-.661 1.66-.978 2.584l-.6 1.891c-.218.701-.433 1.413-.643 2.143a5.147 5.147 0 01-.162.537c-.066.194-.127.385-.18.571a141.851 141.851 0 00-1.18 4.337 138.86 138.86 0 00-.714 2.895 4.117 4.117 0 00-.112.677 8.499 8.499 0 00-.021.55c0 .728.149 1.267.446 1.647.316.401.73.619 1.206.619.202 0 .42-.043.648-.125a2.69 2.69 0 00.706-.401 5.06 5.06 0 00.765-.759c.255-.317.48-.68.655-1.058.086-.143.16-.295.232-.449.063-.135.132-.279.215-.443a17.251 17.251 0 00.707-1.812c.16-.443.3-.876.432-1.293.133-.42.24-.8.324-1.18.05-.311.09-.576.117-.789.03-.22.042-.449.04-.671l.077-.906c.026-.29.111-.715.26-1.267.226-.903.52-1.894.874-2.949a50.416 50.416 0 011.23-3.237c.43-1.095.916-2.202 1.432-3.291a34.655 34.655 0 011.62-3.009 10.1 10.1 0 01.942-1.328c.319-.385.648-.696.985-.935a3.87 3.87 0 01.83-.484c.708-.297 1.261-.196 1.675.415.292.433.44 1.179.44 2.22 0 .396-.02.842-.074 1.341-.05.5-.138 1.041-.26 1.613-.401 1.896-.943 3.46-1.612 4.655-.666 1.182-1.363 2.104-2.061 2.731-.505.433-1.001.759-1.472.974-.464.208-.88.327-1.224.346-.781.032-1.368.298-1.745.792-.356.464-.54.974-.54 1.508 0 .537.168 1.028.495 1.466a1.82 1.82 0 001.399.757h.125c2.518 0 4.68-.945 6.42-2.823 1.718-1.849 3.012-3.904 3.848-6.098.267-.661.49-1.331.66-1.987zm53.368 9.221c-.154-.568-.455-.688-.68-.688l-.143.011-.237.13a10.21 10.21 0 01-1.2 1.039c-.439.329-.885.63-1.336.903-.927.553-1.812.999-2.632 1.317-1.047.415-1.459.5-1.668.51l-.367.04a2.62 2.62 0 01-1.12-.228c-.327-.157-.564-.314-.72-.494-.04-.038-.067-.07-.088-.093a.385.385 0 01.099-.032c.14-.024.294-.048.44-.072.293-.024.662-.069 1.11-.138.476-.07 1.029-.239 1.666-.508.295-.103.6-.225.924-.377.319-.149.646-.311 1.006-.507a13.05 13.05 0 002.378-1.814c.772-.744 1.256-1.612 1.413-2.539.061-.221.095-.425.095-.622v-.462c0-1.145-.382-2.021-1.14-2.611-1.08-.848-2.664-1.07-4.624-.627a11.71 11.71 0 00-1.97.664c-2.019.908-3.544 2.037-4.534 3.368-.778 1.033-1.246 2.141-1.403 3.293a32.38 32.38 0 00-.863.648c-.34.261-.688.529-1.025.795-.41.284-.837.57-1.283.865a10.41 10.41 0 01-1.289.725 8.572 8.572 0 01-1.298.532 3.95 3.95 0 01-1.257.194l-.557.04c-.088 0-.173-.008-.258-.014-.07-.015-.133-.026-.2-.053-.251-.068-.49-.273-.714-.605-.16-.236-.35-.762-.35-1.926 0-.305.042-.653.124-1.023a5.88 5.88 0 01.409-1.181 7.304 7.304 0 011.091-1.612c.441-.5.999-.895 1.679-1.185.228-.117.444-.202.648-.261.33-.087.632-.151.794-.012.021.029.07.124.07.332v.116c0 .253-.027.478-.07.675-.042.191-.12.385-.247.608-.072.075-.13.162-.168.228-.186.319-.42.723-.186 1.031.162.218.441.261.96.261h2.799l.112-.075c.146-.098.27-.247.4-.494.096-.172.192-.385.298-.605.108-.218.21-.468.308-.749.096-.274.175-.547.228-.821.051-.239.099-.47.139-.692a4.05 4.05 0 00.063-.675c0-.25-.023-.462-.074-.643a1.74 1.74 0 00-.276-.557 4.018 4.018 0 00-1.671-1.06 5.51 5.51 0 00-1.758-.278l-.215.002a9.5 9.5 0 00-1.62.144 18.77 18.77 0 00-1.562.34c-.967.297-1.825.688-2.55 1.174-.712.478-1.344.975-1.88 1.487a6.902 6.902 0 00-.367.385c-.096.106-.197.21-.309.327a5.79 5.79 0 00-.942 1.463 6.082 6.082 0 00-.47 1.586c-.037.152-.059.306-.082.455a1.07 1.07 0 00-.24.159l-.087.072c-.069.058-.124.103-.167.146-.17.167-.34.321-.52.464-.189.151-.386.303-.596.465a27.915 27.915 0 01-2.007 1.437 7.99 7.99 0 01-.646.374c.093-.284.284-.741.65-1.469.5-.983 1.052-2.17 1.65-3.511l.278-.632-3.003-.04c-.112 0-.223-.016-.324-.042l-.285-.072a.425.425 0 00-.087-.056l-.17-.061h-.358l-.13.224a49.71 49.71 0 01-.94 1.612 23.1 23.1 0 01-.85 1.32c-.372.523-.755.996-1.14 1.402a8.488 8.488 0 01-1.214 1.073l-.48.321a1.727 1.727 0 01-.282.168c-.117.061-.233.114-.292.143-.101.024-.202.051-.316.072-.194.048-.351.135-.585-.176-.058-.082-.19-.342-.16-1.123 0-.189.012-.406.035-.645.027-.263.054-.547.072-.813.16-.842.663-1.631 1.509-2.343a9.78 9.78 0 012.892-1.721 7.106 7.106 0 011.384-.438 6.23 6.23 0 011.315-.146h.135c.35 0 .677.027.975.09.284.056.534.131.776.232.215.068.385.141.513.196.21.096.35.131.385.131l.172.016a.582.582 0 00.581-.433c.04-.135.056-.29.056-.489l-.037-.773c0-.085-.008-.207-.024-.382-.008-.143-.016-.282-.022-.486a5.7 5.7 0 00-.1-.611c-.061-.287-.102-.391-.133-.457l-.085-.119c-.162-.16-.43-.245-.925-.303-.444-.045-.948.008-1.474-.074a3.52 3.52 0 00-.35-.019h-.965a11.915 11.915 0 00-1.333.077 13.059 13.059 0 00-3.917 1.201c-1.233.597-2.298 1.256-3.171 1.947a10.03 10.03 0 00-1.108 1.025c-.332.363-.569.696-.717 1.036-.075.17-.149.329-.223.478l-.247.499c-.146.362-.274.744-.396 1.18l-.489.385c-.239.188-.48.369-.757.568-.433.354-.866.691-1.307 1.004a41.75 41.75 0 01-1.285.874 1.626 1.626 0 01-.112.059s.003-.008.006-.008a1.71 1.71 0 01.067-.444c.223-1.028.583-2.228 1.062-3.573a73.461 73.461 0 011.65-4.178c.077-.175.151-.343.228-.51.08-.17.157-.347.225-.509.053-.112.101-.218.146-.311.032-.082.075-.172.123-.268.04-.083.071-.16.116-.319l1.788-3.766c.05-.123.106-.25.167-.386.07-.151.133-.318.18-.467.184-.467.364-.948.543-1.455.185-.51.358-1.042.517-1.597.23-.847.428-1.686.584-2.504.16-.821.242-1.538.242-2.125v-.377c-.037-.515-.236-.925-.595-1.212-.34-.273-.716-.406-1.224-.406l-.279.037-.04.037c-.305.08-.6.231-.865.446-.319.253-.574.619-.76 1.079a251.572 251.572 0 00-1.74 4.658 212.386 212.386 0 00-1.097 3.113l-.058.099a.62.62 0 00-.064.231 21.52 21.52 0 01-.228.646 48.18 48.18 0 01-.29.759c-.31.896-.592 1.703-.85 2.404a213.67 213.67 0 00-.732 2.072c-.101.308-.21.608-.325.914-.116.313-.228.626-.371.977-.042.051-.09.101-.146.157l-.186.199a.739.739 0 01-.115.143l-.215.218c-.17.223-.385.467-.645.741-.26.273-.545.547-.86.837l-1.217 1.144a39.92 39.92 0 01-.688.606 1.367 1.367 0 00-.448.736 6.063 6.063 0 00-.13.669l-.003.247a.695.695 0 01-.01.13 1.815 1.815 0 00-.027.274l-.04.371c0 .088.013.173.043.359.026.252.069.489.124.699.128.47.388.565.581.565l.205-.014.484-.39a2.67 2.67 0 00.284-.239.784.784 0 00.196-.159c.093-.072.184-.136.282-.21-.048.149-.09.293-.136.433a16.15 16.15 0 00-.385 1.52.826.826 0 00-.056.31v.213c0 .528.205 1.009.614 1.413.52.526 1.344.746 2.332.55.205-.038.404-.088.67-.155.411-.157.852-.324 1.317-.505.475-.183.948-.393 1.442-.637.58-.319 1.156-.67 1.711-1.049a9.57 9.57 0 00.927-.714c.25.953.707 1.692 1.363 2.201.786.611 1.66.927 2.61.927h.168c1.028-.026 1.812-.175 2.409-.446.582-.261 1.068-.558 1.45-.89.006-.008.016-.011.024-.016.029.152.07.298.116.438.187.51.479.688.715.741.066.027.14.045.223.067.095.018.178.024.154.013.12.032.245.051.385.069.26.027.558.027.834 0 .127-.018.258-.037.377-.059a5.378 5.378 0 001.18-.316 7.327 7.327 0 001.118-.56l.643-.407c.207-.138.424-.268.648-.393a10.162 10.162 0 001.288-.821 8.74 8.74 0 00.926-.651c.096.476.255.88.465 1.209.253.393.526.725.837 1.001.257.196.496.354.723.455.201.092.371.169.57.241.447.107.904.194 1.368.263a10.613 10.613 0 004.78-.447c1.063-.358 1.942-.772 2.62-1.232l1.907-1.31c.13-.09.253-.178.362-.262.042.247.093.486.146.693.255.993 1.041 1.753 2.372 2.252.44.127.897.239 1.362.316a7.45 7.45 0 001.39.127h.008a11.004 11.004 0 003.963-.826c1.242-.512 2.332-1.088 3.243-1.734.31-.234.608-.462.879-.686a8.73 8.73 0 00.749-.671c.159-.16.284-.401.388-.752a5.46 5.46 0 00.17-.951v-.387c0-.404-.045-.762-.136-1.086zm-7.594-1.902c-.788.385-1.654.68-2.578.871.23-.488.552-.967.955-1.428a8.412 8.412 0 011.527-1.392 5.87 5.87 0 01.845-.412 1.84 1.84 0 01.663-.143c.096 0 .184.013.253.042a.76.76 0 01.24.165c.069.054.11.107.135.168a.565.565 0 01.007.406 1.297 1.297 0 01-.124.263c-.313.491-.958.982-1.922 1.46zm-33.203 8.093h.12l.005.372-.125-.372zm5.161.277l-.059-.391c.022.008.038.016.059.023.042.006.077.006.114.011l-.114.357z" opacity=".72" fill="#000"/><path d="M45.538 125.697c.17-.64.303-1.254.404-1.846.082-.366.13-.754.154-1.179.03-.425.053-.855.08-1.294v-.542c0-1.028-.08-2.003-.234-2.929-.152-.925-.398-1.634-.733-2.117-.512-.802-1.132-1.374-1.852-1.721a4.988 4.988 0 00-2.196-.518h-.29a.759.759 0 00-.252.037c-.874.079-1.73.346-2.566.792a7.165 7.165 0 00-2.104 1.678c-.664.747-1.413 1.745-2.234 3.007-.824 1.264-1.674 2.815-2.55 4.666-.332.72-.669 1.482-1.001 2.279a38.22 38.22 0 00-.964 2.547c-.184.563-.38 1.195-.598 1.888a68.59 68.59 0 00-.637 2.126 8.34 8.34 0 01-.173.571c-.063.185-.124.369-.175.547a162.4 162.4 0 00-1.18 4.316 150.394 150.394 0 00-.709 2.895 3.307 3.307 0 00-.098.6 9.75 9.75 0 00-.019.524c0 .616.117 1.07.348 1.367.231.295.513.439.85.439.154 0 .319-.03.5-.093a2.11 2.11 0 00.579-.327c.23-.18.464-.414.695-.696a4.84 4.84 0 00.617-1.001c.077-.13.146-.266.21-.407.066-.143.135-.287.214-.446.128-.279.252-.566.364-.863.117-.303.228-.6.326-.904.157-.444.298-.865.428-1.28.127-.409.228-.783.303-1.118.055-.311.095-.563.12-.77a4.82 4.82 0 00.039-.616v-.043c.026-.278.053-.582.077-.905.024-.319.117-.762.273-1.331.229-.924.526-1.92.885-2.991.361-1.065.77-2.153 1.235-3.256a52.795 52.795 0 011.445-3.32 33.839 33.839 0 011.644-3.049c.306-.513.632-.975.98-1.387a5.951 5.951 0 011.063-1.006c.308-.231.613-.412.924-.534.309-.135.603-.194.887-.194.542 0 .988.255 1.334.77.345.516.517 1.336.517 2.468a14.524 14.524 0 01-.345 3.046c-.411 1.958-.964 3.549-1.66 4.789-.693 1.23-1.413 2.181-2.162 2.855-.54.457-1.065.811-1.58 1.036-.513.234-.977.361-1.386.39-.643.022-1.116.231-1.408.614-.3.385-.447.799-.447 1.237 0 .433.136.837.404 1.198.27.356.627.55 1.063.571 2.443.03 4.507-.863 6.19-2.68 1.687-1.809 2.938-3.795 3.761-5.96.263-.639.473-1.282.64-1.93z" fill="url(#paint10_linear_224_13468)"/><path d="M98.913 135.146c-.075-.276-.178-.39-.309-.34-.388.383-.804.744-1.253 1.078-.449.335-.906.643-1.37.927a18.265 18.265 0 01-2.7 1.352c-.85.332-1.428.515-1.737.537h-.231a.116.116 0 01-.093.04h-.138a3.14 3.14 0 01-1.312-.266c-.385-.186-.67-.377-.848-.584-.156-.154-.246-.295-.27-.422-.027-.13.023-.234.157-.309a.833.833 0 01.363-.156c.141-.027.3-.051.481-.078a14.03 14.03 0 001.081-.133c.439-.063.964-.228 1.58-.483.285-.101.583-.225.89-.366.306-.144.627-.3.962-.484a12.448 12.448 0 002.297-1.753c.707-.68 1.14-1.461 1.294-2.337a1.95 1.95 0 00.077-.494v-.47c0-1.001-.321-1.758-.967-2.255-.64-.502-1.48-.754-2.507-.754-.54 0-1.116.074-1.735.212-.618.144-1.25.356-1.89.64-1.956.871-3.408 1.944-4.362 3.219-.802 1.073-1.235 2.178-1.341 3.317-.032.014-.05-.007-.085.022a69.319 69.319 0 00-1.966 1.503c-.414.281-.842.576-1.293.868-.452.295-.893.547-1.331.752-.462.233-.92.42-1.373.56-.446.141-.879.21-1.288.21h-.271a.344.344 0 01-.172.04h-.213c-.107 0-.21-.005-.31-.018a1.944 1.944 0 01-.27-.059c-.358-.104-.68-.369-.966-.794-.282-.417-.425-1.147-.425-2.172a5.3 5.3 0 01.135-1.121 6.02 6.02 0 01.45-1.281 7.323 7.323 0 011.155-1.711 4.987 4.987 0 011.814-1.293c.255-.127.5-.226.73-.289a2.32 2.32 0 01.617-.093c.26 0 .456.061.597.188.146.13.213.348.213.659v.119c0 .276-.024.537-.075.765a2.53 2.53 0 01-.273.699.577.577 0 01-.093.133.519.519 0 00-.098.135c-.178.308-.25.489-.213.534.04.056.24.083.598.083h2.664c.077-.053.162-.16.25-.324.088-.175.189-.372.29-.606.1-.199.199-.43.289-.69.087-.258.16-.513.213-.771.05-.233.095-.456.135-.677.037-.217.056-.419.056-.597 0-.202-.019-.381-.056-.521a1.181 1.181 0 00-.173-.366 3.574 3.574 0 00-1.484-.946 5.15 5.15 0 00-1.833-.25 8.98 8.98 0 00-1.546.133c-.515.093-1.015.202-1.503.332-.925.285-1.737.654-2.433 1.113-.696.465-1.296.943-1.812 1.432a7.18 7.18 0 00-.345.367 7.567 7.567 0 01-.313.326 5.68 5.68 0 00-1.31 2.858c-.058.247-.082.5-.122.752-.093-.04-.204-.022-.34.093a.792.792 0 01-.114.098c-.053.04-.09.072-.12.096-.18.183-.363.348-.557.499-.194.154-.39.311-.598.468a26.368 26.368 0 01-2.045 1.463c-.642.409-1.068.606-1.272.582h-.076l-.04-.042a.13.13 0 01-.04-.096v-.098c.03-.359.292-1.033.789-2.024a71.606 71.606 0 001.644-3.487h-2.123a.381.381 0 01-.194-.046c-.151 0-.3-.015-.44-.055l-.367-.096c-.03-.023-.051-.043-.078-.061a.202.202 0 00-.076-.016 82.142 82.142 0 01-.946 1.623c-.295.484-.584.938-.869 1.346-.388.54-.78 1.023-1.177 1.448-.4.428-.828.805-1.293 1.14-.077.051-.157.104-.233.152-.075.055-.152.103-.229.156-.106.075-.22.152-.348.213a3.47 3.47 0 01-.385.172c-.104.027-.212.056-.326.08a1.663 1.663 0 01-.33.037c-.284 0-.523-.13-.712-.388-.194-.255-.278-.717-.252-1.386 0-.207.011-.438.038-.699.023-.253.05-.537.077-.847.183-.951.733-1.82 1.66-2.604a10.377 10.377 0 013.009-1.795 7.96 7.96 0 011.469-.46 6.56 6.56 0 011.35-.156h.188c.385 0 .74.034 1.062.096.322.069.6.148.83.252.233.079.419.148.56.212.14.064.236.098.292.098.124.027.204-.008.23-.098.025-.09.038-.212.038-.366v-.383a.389.389 0 01-.037-.175v-.215c0-.076-.008-.191-.019-.348a4.48 4.48 0 01-.024-.462 6.348 6.348 0 00-.095-.576 1.948 1.948 0 00-.093-.351c-.08-.077-.298-.133-.659-.173a12.7 12.7 0 00-1.198-.058c-.1 0-.196-.006-.286-.019a2.053 2.053 0 00-.29-.018h-.964c-.205 0-.417.005-.638.018-.217.013-.43.035-.637.056a12.441 12.441 0 00-3.78 1.16c-1.208.587-2.236 1.222-3.086 1.892a9.43 9.43 0 00-1.06.982c-.295.325-.51.625-.64.906a6.377 6.377 0 01-.23.502c-.075.154-.153.308-.23.462-.154.387-.29.792-.406 1.216l-.01.064c-.202.154-.402.311-.606.478-.25.191-.497.377-.755.557-.435.362-.88.699-1.33 1.023-.45.321-.893.624-1.33.906-.285.154-.481.188-.601.095-.112-.087-.173-.236-.173-.44 0-.078.008-.165.021-.25.016-.09.033-.189.056-.293.234-1.051.593-2.263 1.084-3.625a76.897 76.897 0 011.658-4.205c.076-.181.154-.354.233-.521.077-.167.155-.342.228-.52.054-.104.096-.202.136-.289.037-.093.082-.183.133-.292a.502.502 0 00.058-.154c.016-.05.032-.101.059-.152l.733-1.543c.263-.541.606-1.272 1.041-2.199.053-.13.112-.26.175-.406.064-.144.122-.29.173-.447.178-.456.359-.942.539-1.445.183-.502.348-1.02.505-1.562.23-.847.424-1.668.576-2.467.157-.8.233-1.48.233-2.045v-.351c-.026-.382-.17-.68-.424-.885a1.333 1.333 0 00-.85-.31h-.093c-.04 0-.074.013-.096.04-.286.05-.558.178-.812.385-.26.207-.463.502-.619.887a273.448 273.448 0 00-1.737 4.645c-.41 1.151-.781 2.213-1.118 3.185-.022.026-.048.053-.059.079a.3.3 0 00-.019.115c-.077.233-.16.47-.25.717-.09.241-.185.5-.29.749-.31.903-.591 1.705-.846 2.414-.26.707-.502 1.397-.736 2.061-.1.311-.21.619-.324.927-.117.311-.226.619-.332.924a.978.978 0 01-.114.179c-.053.063-.12.138-.194.212 0 .024-.01.048-.04.075-.024.023-.05.042-.072.042a1.937 1.937 0 01-.175.207 8.058 8.058 0 01-.175.173c-.18.231-.404.489-.675.773-.271.284-.56.568-.866.847-.08.075-.157.157-.234.229-.074.085-.154.156-.231.233-.258.231-.518.468-.773.694-.255.236-.489.441-.693.621a.948.948 0 00-.311.502 5.743 5.743 0 00-.112.613v.194c0 .08-.01.151-.024.213-.01.066-.018.135-.018.215v.077c0 .026-.01.051-.04.079v.189c0 .051.011.104.022.157.013.05.018.104.018.151.027.234.067.444.117.635.05.194.12.269.194.218.13-.101.252-.205.364-.292.116-.088.212-.173.292-.247a.527.527 0 00.117-.08c.022-.026.05-.051.075-.076.204-.157.419-.309.637-.465.218-.152.443-.319.675-.502 0 .027.013.045.04.045v.032c-.184.569-.348 1.103-.503 1.604a14.257 14.257 0 00-.385 1.52.394.394 0 00-.04.175v.215c0 .411.162.773.481 1.099.321.319.778.481 1.373.481.178 0 .364-.018.56-.061.192-.035.391-.083.595-.131.41-.156.85-.323 1.31-.504a15.84 15.84 0 001.391-.614 21.8 21.8 0 001.677-1.023 9.776 9.776 0 001.468-1.24c.005.059.011.114.022.18.175 1.156.621 2.006 1.328 2.564.706.555 1.484.829 2.334.829h.154c.95-.027 1.697-.162 2.239-.404.539-.247.988-.518 1.35-.829.127-.106.251-.213.364-.332.119-.117.228-.223.326-.324v.308c0 .358.056.68.157.961.104.284.244.438.424.465a1.1 1.1 0 00.176.058c.06.008.12.022.17.022.104.018.215.04.33.055.116.014.236.019.366.019s.25-.006.366-.019c.117-.015.242-.037.367-.055.358-.056.72-.154 1.078-.287a6.642 6.642 0 001.044-.532c.204-.122.42-.26.637-.398a11.1 11.1 0 01.675-.409c.234-.127.449-.255.654-.385.21-.128.414-.268.621-.417.41-.263.77-.526 1.076-.8.175-.149.306-.295.414-.444.005.038.008.088.014.118 0 .103.005.188.018.249.014.07.02.125.02.178.073.563.23 1.025.464 1.384a4.5 4.5 0 00.73.895c.234.177.446.31.638.401.194.087.353.162.483.212.439.104.88.183 1.328.247.452.067.887.101 1.296.101 1.156 0 2.25-.175 3.275-.521 1.031-.347 1.87-.74 2.51-1.178.821-.566 1.459-1.002 1.91-1.313.444-.302.752-.584.933-.834.064.569.149 1.084.263 1.53.217.848.905 1.491 2.066 1.929.436.13.871.231 1.31.31.438.077.873.118 1.314.118a10.629 10.629 0 003.799-.792c1.221-.505 2.27-1.065 3.144-1.684.309-.225.598-.451.866-.672.27-.217.51-.43.715-.637.103-.101.19-.287.27-.555.077-.272.128-.547.157-.834v-.383a3.704 3.704 0 00-.121-.971zm-10.356-.786c.01-.064.032-.138.056-.21.26-.64.65-1.27 1.18-1.872a8.522 8.522 0 011.638-1.485c.309-.181.614-.329.908-.444.293-.114.566-.175.826-.175a1.09 1.09 0 01.773.31.872.872 0 01.269.348.988.988 0 01.021.71c-.04.116-.095.239-.175.369-.361.566-1.06 1.105-2.101 1.618-1.046.52-2.194.866-3.455 1.046.025-.077.047-.151.06-.215z" fill="url(#paint11_linear_224_13468)"/><path d="M26.811 144.647c-.472 0-.887-.208-1.203-.616-.3-.383-.444-.919-.444-1.647 0-.159.003-.343.019-.55.018-.22.053-.443.108-.68a144.83 144.83 0 011.896-7.224c.05-.186.115-.377.184-.571.056-.165.112-.345.16-.537.21-.736.421-1.45.645-2.146l.597-1.894c.316-.922.646-1.788.978-2.581.334-.805.672-1.567 1.006-2.29.882-1.864 1.748-3.453 2.58-4.725.83-1.272 1.596-2.303 2.279-3.065a7.7 7.7 0 012.226-1.771 7.112 7.112 0 012.738-.848c.03-.024.16-.037.292-.037h.29c.81 0 1.614.188 2.395.56.79.388 1.474 1.017 2.033 1.881.364.531.637 1.31.796 2.295.16.942.242 1.957.242 3.001l-.08 1.859c-.03.454-.085.871-.162 1.248a24.49 24.49 0 01-.411 1.873c-.17.648-.391 1.32-.654 1.981-.84 2.194-2.136 4.25-3.849 6.098-1.742 1.87-3.901 2.824-6.416 2.824h-.13a1.826 1.826 0 01-1.395-.76 2.375 2.375 0 01-.497-1.461c0-.539.18-1.049.534-1.514.383-.489.97-.757 1.748-.789.35-.023.762-.141 1.225-.345.475-.217.966-.542 1.471-.975.699-.629 1.394-1.554 2.06-2.733.673-1.192 1.215-2.757 1.61-4.656.128-.571.213-1.113.269-1.612.048-.497.072-.946.072-1.346 0-1.034-.15-1.78-.444-2.215-.41-.611-.967-.707-1.674-.415a3.944 3.944 0 00-.828.484c-.34.241-.667.554-.986.934a9.82 9.82 0 00-.943 1.331 31.68 31.68 0 00-1.62 3.012 53.01 53.01 0 00-1.436 3.289 52.485 52.485 0 00-1.225 3.232 37.706 37.706 0 00-.877 2.961c-.149.542-.236.967-.258 1.259l-.077.908c0 .224-.016.446-.043.675-.023.207-.063.47-.114.789-.09.371-.194.751-.327 1.173-.13.42-.273.847-.427 1.291a17.194 17.194 0 01-.712 1.808l-.213.444a3.834 3.834 0 01-.234.449c-.175.379-.4.749-.656 1.059a4.88 4.88 0 01-.767.768 2.779 2.779 0 01-.701.393 1.9 1.9 0 01-.65.124zm14.061-30.285a.368.368 0 00-.116.019c-.9.09-1.703.337-2.49.762a6.659 6.659 0 00-1.967 1.57c-.664.736-1.402 1.729-2.207 2.964-.81 1.238-1.658 2.792-2.518 4.614a77.719 77.719 0 00-.996 2.26c-.324.77-.643 1.618-.95 2.513l-.595 1.883a96.983 96.983 0 00-.632 2.109 7.27 7.27 0 01-.184.603c-.063.175-.114.348-.164.512a155.24 155.24 0 00-1.883 7.193 3.144 3.144 0 00-.087.531c-.011.18-.02.348-.02.489 0 .504.088.884.254 1.094.329.43.55.306.847.202.135-.047.29-.138.457-.263.199-.157.406-.369.618-.624.202-.25.391-.558.558-.908.088-.155.152-.28.21-.402.063-.14.138-.298.217-.457.117-.262.24-.541.353-.826.112-.292.216-.587.317-.892.156-.433.295-.855.425-1.262.124-.401.22-.762.297-1.084.045-.278.085-.526.107-.725.023-.188.037-.377.037-.563l.077-.982c.03-.348.12-.816.287-1.416a37.96 37.96 0 01.895-3.012 50.555 50.555 0 011.243-3.294 54.15 54.15 0 011.458-3.336 33.057 33.057 0 011.66-3.089c.319-.529.662-1.017 1.025-1.442a6.152 6.152 0 011.143-1.081c.332-.25.674-.443 1.014-.59 1.097-.454 2.122-.207 2.765.741.401.598.595 1.487.595 2.72 0 .422-.024.903-.077 1.437a16.137 16.137 0 01-.279 1.708c-.416 1.986-.993 3.638-1.708 4.908-.712 1.272-1.47 2.271-2.25 2.975-.58.491-1.15.863-1.697 1.113-.562.252-1.08.393-1.546.424-.515.022-.868.168-1.08.447-.235.3-.351.616-.351.959 0 .337.106.637.31.921.197.261.428.386.731.402 2.37 0 4.255-.829 5.838-2.537 1.639-1.764 2.871-3.724 3.67-5.817.256-.632.463-1.261.625-1.88.16-.624.29-1.233.399-1.82.071-.342.122-.722.146-1.126l.076-1.291v-.515c0-.996-.076-1.955-.225-2.853-.146-.86-.367-1.514-.661-1.947-.473-.73-1.036-1.253-1.68-1.561a4.5 4.5 0 00-2-.479h-.29v.001z" fill="url(#paint12_linear_224_13468)"/><path d="M90.083 142.489h-.003c-.465 0-.933-.045-1.392-.128-.46-.076-.922-.186-1.362-.316-1.328-.504-2.117-1.256-2.373-2.247a9.62 9.62 0 01-.146-.695 5.95 5.95 0 01-.358.257l-1.91 1.312c-.674.457-1.553.874-2.62 1.238-1.07.359-2.22.542-3.42.542-.422 0-.879-.037-1.357-.104a15.207 15.207 0 01-1.37-.252 6.02 6.02 0 01-.572-.25 3.475 3.475 0 01-.72-.455 4.768 4.768 0 01-.834-.998c-.217-.332-.372-.741-.47-1.209a10.33 10.33 0 01-.922.654 12.003 12.003 0 01-1.296.821c-.217.119-.438.25-.645.385l-.646.412c-.355.22-.728.409-1.115.557a5.443 5.443 0 01-1.177.316c-.12.027-.255.045-.377.064a6.498 6.498 0 01-.837.003 5.707 5.707 0 01-.385-.075c.026.009-.056.009-.152-.016a1.206 1.206 0 01-.223-.066c-.237-.056-.531-.231-.715-.742a3.026 3.026 0 01-.12-.441c-.008.008-.015.014-.02.022a6.167 6.167 0 01-1.454.887c-.592.27-1.38.417-2.409.446h-.165c-.948 0-1.827-.311-2.61-.927-.654-.51-1.114-1.246-1.366-2.202a8 8 0 01-.927.714c-.553.38-1.132.731-1.713 1.047a17.53 17.53 0 01-1.44.646c-.462.178-.903.342-1.314.499-.266.069-.468.115-.67.154-.99.197-1.811-.021-2.337-.547-.406-.404-.61-.882-.61-1.416v-.212a.86.86 0 01.055-.306c.101-.51.234-1.02.388-1.525a8.67 8.67 0 00.13-.433c-.09.075-.185.144-.279.218a1.328 1.328 0 01-.19.154c-.08.074-.178.154-.29.242l-.484.382-.201.019c-.194 0-.457-.099-.58-.563a4.856 4.856 0 01-.13-.702 2.039 2.039 0 01-.04-.359l.037-.374c.003-.119.016-.2.03-.273a.61.61 0 00.01-.125l.003-.247c.03-.226.069-.452.122-.675a1.43 1.43 0 01.46-.733c.196-.175.427-.377.685-.606l1.214-1.147c.319-.287.6-.563.863-.84.258-.273.473-.515.646-.735l.213-.221c.037-.037.079-.087.116-.14l.186-.2a3.34 3.34 0 00.144-.159c.146-.351.254-.664.374-.972a31 31 0 00.321-.914c.234-.672.478-1.363.736-2.074.258-.71.54-1.511.848-2.407.108-.273.202-.52.295-.762.08-.216.154-.435.223-.64a.84.84 0 01.06-.234l.064-.098c.33-.959.691-1.992 1.094-3.113.412-1.145.991-2.696 1.74-4.656.186-.462.441-.829.76-1.078a2.29 2.29 0 01.868-.449l.038-.035.28-.039c.508 0 .885.135 1.223.406.358.292.557.696.592 1.211l.003.378c0 .589-.082 1.312-.242 2.13a35.183 35.183 0 01-.582 2.499 27.453 27.453 0 01-.515 1.599c-.183.502-.364.991-.545 1.459a7.72 7.72 0 01-.183.469 6.106 6.106 0 00-.162.38l-1.79 3.766a2.23 2.23 0 01-.117.316c-.05.099-.093.186-.127.268-.04.099-.09.207-.146.314-.064.16-.144.335-.224.507-.077.162-.15.338-.228.513a72.234 72.234 0 00-1.647 4.178c-.483 1.341-.84 2.541-1.062 3.572a2.193 2.193 0 00-.056.255c-.01.069-.013.13-.013.185l-.006.008c.03-.01.07-.032.111-.058a25.395 25.395 0 002.593-1.881c.279-.194.52-.372.76-.563l.488-.382c.12-.441.25-.829.396-1.185l.244-.5c.078-.143.15-.305.224-.478.154-.337.385-.672.717-1.033.31-.335.672-.67 1.107-1.023.874-.699 1.942-1.344 3.171-1.949a13.052 13.052 0 013.92-1.201c.219-.023.442-.042.67-.058a7.97 7.97 0 01.664-.022h.965c.12 0 .24.006.347.022.524.082 1.034.034 1.477.077.494.056.765.143.924.305l.085.117c.032.062.07.168.133.452.04.191.074.398.104.616.003.2.008.34.018.486.014.165.024.295.024.382l.04.773c0 .194-.021.354-.059.487a.596.596 0 01-.587.433l-.167-.016c-.037 0-.175-.035-.387-.13a4.196 4.196 0 00-.513-.194 4.434 4.434 0 00-.776-.242 5.286 5.286 0 00-.975-.085h-.13c-.436 0-.858.045-1.32.152a7.49 7.49 0 00-1.381.433 9.798 9.798 0 00-2.895 1.723c-.842.71-1.35 1.504-1.506 2.343-.022.261-.045.553-.069.811-.03.241-.043.459-.043.65-.03.776.107 1.036.162 1.118.233.311.39.226.584.176.114-.022.218-.045.319-.072.056-.026.178-.077.29-.141.108-.053.201-.109.284-.17l.478-.321a8.663 8.663 0 001.217-1.073c.382-.409.767-.876 1.136-1.402.277-.393.558-.832.853-1.318.292-.486.606-1.02.94-1.612l.127-.226h.359l.167.061c.04.018.067.034.093.053l.282.074c.103.027.212.045.323.045l3.005.035-.277.632a76.453 76.453 0 01-1.65 3.514c-.369.725-.56 1.184-.653 1.476.149-.082.359-.196.646-.382a24.842 24.842 0 002.01-1.442c.207-.152.401-.306.593-.463.18-.14.356-.292.523-.464.04-.04.096-.085.165-.138l.088-.075a.997.997 0 01.239-.157c.021-.153.047-.308.082-.454.077-.52.24-1.068.47-1.588a5.81 5.81 0 01.943-1.461c.117-.12.21-.224.314-.335.103-.116.223-.247.361-.383a14.023 14.023 0 011.886-1.484c.72-.481 1.58-.879 2.547-1.172a17.61 17.61 0 011.556-.343 9.126 9.126 0 011.623-.143l.216-.003a5.64 5.64 0 011.758.277 4.038 4.038 0 011.67 1.062c.144.191.224.364.279.555.05.188.071.393.071.643 0 .201-.021.427-.063.674-.038.226-.083.454-.139.696a6 6 0 01-.228.821 5.57 5.57 0 01-.31.749c-.099.223-.2.427-.293.606-.132.242-.257.401-.4.496l-.115.072h-2.797c-.518 0-.794-.04-.962-.261-.233-.313 0-.709.192-1.03a.788.788 0 01.164-.229c.128-.228.207-.422.244-.61.046-.194.067-.425.067-.67v-.114c0-.213-.04-.306-.067-.329-.162-.146-.464-.085-.791.003a3.951 3.951 0 00-.654.265 4.503 4.503 0 00-1.676 1.188 7.013 7.013 0 00-1.086 1.609c-.189.403-.33.799-.412 1.174a4.804 4.804 0 00-.122 1.023c0 1.166.186 1.694.345 1.928.223.332.462.536.717.611a.74.74 0 00.197.042c.087.013.173.018.258.018l.555-.037c.464 0 .855-.071 1.259-.191.42-.133.855-.308 1.304-.537.42-.196.85-.441 1.282-.722.45-.295.874-.585 1.283-.863.337-.269.691-.539 1.025-.797.309-.236.598-.457.866-.653.154-1.151.624-2.252 1.4-3.289.996-1.333 2.518-2.462 4.537-3.365.669-.289 1.33-.518 1.973-.661 1.955-.446 3.538-.226 4.622.622.754.584 1.137 1.463 1.137 2.607v.468c0 .194-.032.398-.093.621-.162.925-.637 1.79-1.416 2.534a12.745 12.745 0 01-2.38 1.82c-.359.194-.688.358-1.001.502a15.19 15.19 0 01-.925.388c-.643.26-1.19.427-1.67.499-.447.067-.816.112-1.106.138-.149.022-.306.045-.438.07a.488.488 0 00-.104.031c.022.024.05.062.088.096.159.183.393.337.72.492.329.154.695.228 1.123.228l.367-.037c.21-.011.619-.099 1.665-.513.82-.318 1.708-.764 2.638-1.315.446-.276.892-.576 1.33-.9.433-.324.84-.672 1.206-1.042l.231-.127.144-.016c.226 0 .529.123.683.693.087.316.135.685.135 1.081v.385a5.71 5.71 0 01-.172.957c-.101.345-.226.589-.385.754a9.742 9.742 0 01-.747.664c-.276.22-.571.448-.885.685-.91.642-1.997 1.224-3.243 1.734a10.982 10.982 0 01-3.963.826h.003v.005zm-34.781-3.99c.16 1.033.55 1.804 1.16 2.279.632.494 1.304.734 2.059.734l.154.451-.011-.451c.887-.027 1.58-.147 2.063-.364a5.35 5.35 0 001.243-.76c.125-.103.237-.199.338-.305l1.097-1.108v1.405c0 .306.045.582.127.81.056.149.101.186.101.186l.077.491.135-.441.141.022c.087.018.178.037.279.051.185.021.43.021.629 0 .1-.014.212-.035.33-.053a4.58 4.58 0 00.998-.266 6.5 6.5 0 00.969-.486l.632-.401c.226-.148.462-.286.699-.419.225-.125.435-.25.634-.372.2-.122.396-.261.587-.409.428-.263.77-.512 1.053-.767.14-.115.254-.239.35-.375l.651-.887.17 1.214c0 .127.005.183.016.228a1.5 1.5 0 01.022.255c.066.438.199.845.395 1.145.207.332.428.592.654.796.18.138.37.255.523.332.19.088.34.154.46.202.363.08.796.16 1.23.224.433.063.85.092 1.232.092a9.793 9.793 0 003.135-.497c.987-.334 1.793-.711 2.395-1.121l1.913-1.312c.39-.27.666-.515.82-.728l.688-.961.128 1.174a9.78 9.78 0 00.25 1.464c.178.711.762 1.237 1.787 1.625a11.6 11.6 0 001.227.287c.41.074.824.106 1.23.106a9.994 9.994 0 003.633-.754c1.182-.484 2.213-1.036 3.058-1.631.292-.216.579-.444.844-.656.255-.21.48-.409.68-.608.003-.003.072-.074.154-.364.07-.239.115-.489.138-.749v-.343a3.72 3.72 0 00-.05-.621c-.284.26-.592.512-.91.751a19.009 19.009 0 01-4.173 2.335c-.894.351-1.504.539-1.863.571l-.502.037a3.5 3.5 0 01-1.503-.313c-.446-.208-.77-.436-.999-.693-.196-.194-.326-.412-.369-.63-.063-.313.072-.605.359-.778.122-.093.31-.172.52-.215.15-.021.311-.05.5-.08.303-.026.65-.068 1.078-.13.399-.061.892-.215 1.474-.454.292-.107.579-.229.88-.364.294-.135.605-.292.934-.465a12.144 12.144 0 002.194-1.689c.646-.616 1.025-1.296 1.163-2.085a1.64 1.64 0 00.072-.419v-.468c0-.865-.258-1.485-.794-1.902-.858-.674-2.197-.837-3.867-.457a10.5 10.5 0 00-1.81.608c-1.872.842-3.279 1.875-4.18 3.081-.73.975-1.152 2.019-1.253 3.092l-.03.25-.329.154c-.27.204-.541.403-.826.626-.334.253-.677.523-1.04.802-.436.308-.869.6-1.32.895-.47.305-.935.568-1.387.78a9.34 9.34 0 01-1.426.579 4.7 4.7 0 01-1.427.237h-.185a.913.913 0 01-.258.037h-.213c-.122 0-.242-.005-.364-.024a1.475 1.475 0 01-.36-.076c-.442-.131-.853-.452-1.196-.967-.332-.502-.497-1.296-.497-2.43 0-.364.048-.778.143-1.217.099-.438.258-.9.478-1.368a8.018 8.018 0 011.225-1.821 5.474 5.474 0 011.976-1.406 4.21 4.21 0 01.79-.31c.735-.202 1.274-.131 1.636.194.24.222.36.552.36.995v.115a4 4 0 01-.087.866 3.15 3.15 0 01-.316.815c-.04.078-.093.151-.154.218h2.42c.013-.024.032-.051.053-.088.083-.162.176-.348.274-.568.103-.207.194-.425.273-.664.082-.231.15-.47.196-.709.054-.234.093-.449.133-.664.032-.188.05-.364.05-.52 0-.168-.015-.303-.042-.404a.639.639 0 00-.1-.218 3.113 3.113 0 00-1.265-.784 4.613 4.613 0 00-1.474-.236l-.201.008c-.5 0-.991.043-1.482.13-.5.088-.988.191-1.47.319a8.699 8.699 0 00-2.291 1.057 13.47 13.47 0 00-1.756 1.378 9.226 9.226 0 00-.319.337 8.52 8.52 0 01-.326.348 4.981 4.981 0 00-.776 1.217 5.347 5.347 0 00-.409 1.383 5.32 5.32 0 00-.092.553l-.117.789-.428-.192c-.034.03-.074.059-.117.096-.257.242-.46.423-.666.587a30.65 30.65 0 01-.606.476c-.719.563-1.42 1.06-2.071 1.479-.898.574-1.251.654-1.48.654h-.183l-.25-.133c-.14-.149-.21-.292-.21-.451v-.131c.022-.268.13-.791.842-2.197.412-.815.864-1.771 1.35-2.839H66.7a.867.867 0 01-.279-.042 2.437 2.437 0 01-.475-.07l-.202-.053c-.265.462-.52.903-.762 1.294-.303.502-.595.958-.882 1.376-.4.56-.807 1.062-1.217 1.5-.42.447-.879.845-1.36 1.198l-.478.313c-.104.08-.241.17-.396.247a10.54 10.54 0 01-.42.186 4.265 4.265 0 01-.398.095c-.565.128-1.129-.029-1.498-.517-.258-.343-.37-.89-.34-1.671 0-.205.01-.451.043-.725l.077-.839c.201-1.094.81-2.059 1.814-2.911a10.77 10.77 0 013.142-1.87 8.42 8.42 0 011.53-.483 6.961 6.961 0 011.447-.162h.112c.486 0 .87.029 1.226.098.354.075.664.173.922.284.178.059.35.123.492.181v-.223a.791.791 0 01-.04-.261v-.21a4.99 4.99 0 00-.016-.316 4.993 4.993 0 01-.021-.5c-.024-.13-.048-.316-.087-.48-.008-.048-.02-.082-.024-.122-.064-.011-.168-.03-.338-.046-.452-.05-1.036-.002-1.508-.082a1.709 1.709 0 00-.218-.013h-.964c-.2 0-.404.008-.614.018-.204.016-.406.032-.605.056a11.942 11.942 0 00-3.637 1.113c-1.178.576-2.185 1.196-3.006 1.843a9.68 9.68 0 00-1.01.932c-.26.287-.45.55-.56.787-.074.18-.156.361-.236.523l-.231.46a10.41 10.41 0 00-.372 1.134l-.04.138-.249.255-.484.38c-.252.199-.51.39-.772.573-.42.346-.872.691-1.33 1.025-.458.322-.904.627-1.347.914-.524.289-.864.279-1.121.066-.152-.114-.343-.353-.343-.791 0-.096.008-.199.024-.316.013-.104.034-.216.066-.335.228-1.054.598-2.289 1.092-3.665a81.885 81.885 0 011.668-4.231c.082-.186.161-.359.236-.534.074-.164.154-.332.228-.504.058-.123.098-.208.136-.292.039-.101.087-.205.145-.314.043-.147.075-.223.117-.313l1.77-3.732.167-.396c.058-.127.111-.265.16-.401.185-.481.363-.961.541-1.455.175-.491.345-1.004.497-1.535.223-.819.414-1.639.568-2.431.149-.762.22-1.423.22-1.957v-.351c-.02-.308-.153-.454-.254-.537a.9.9 0 00-.54-.207l-.008.003-.132.026a1.347 1.347 0 00-.61.295c-.195.157-.355.393-.482.706-.74 1.942-1.32 3.491-1.729 4.63a271.402 271.402 0 00-1.12 3.176l-.072.192c-.08.236-.165.478-.255.725-.093.252-.188.507-.297.762-.3.89-.582 1.692-.84 2.401-.255.706-.502 1.391-.733 2.056-.098.313-.212.627-.33.935-.116.305-.222.61-.323.916a1.714 1.714 0 01-.194.313c-.03.032-.059.07-.093.107l-.162.21a.664.664 0 01-.109.09 2.999 2.999 0 01-.146.167l-.17.17c-.157.205-.39.475-.672.767-.279.29-.577.585-.893.872l-1.235 1.158c-.26.231-.494.443-.699.621a.468.468 0 00-.172.276c-.045.189-.08.372-.107.564l.006.135c0 .109-.01.213-.026.3a.525.525 0 00-.011.122.84.84 0 01-.04.271v.079c.03.123.04.218.04.309l.019.146c.072-.059.13-.112.18-.16l.202-.161c.245-.187.46-.346.683-.503.21-.151.433-.311.659-.489l.728-.565.015 1.131c-.18.569-.345 1.1-.499 1.599a13.54 13.54 0 00-.374 1.477l-.037.108.008.192c0 .292.114.544.348.78.31.314.85.444 1.524.303.186-.037.38-.082.574-.132.362-.136.8-.303 1.26-.481.451-.178.903-.377 1.35-.601a21.524 21.524 0 001.63-.995 9.296 9.296 0 001.394-1.174l.648-.672.12.919-.322.183.037.034.302-.043zm32.537-3.014l.228-.688a.979.979 0 00.045-.159c.016-.077.04-.168.075-.263a6.938 6.938 0 011.261-2.022 9.343 9.343 0 011.726-1.566c.365-.21.688-.37.994-.487.579-.225 1.131-.276 1.583-.1.19.082.353.188.502.332.154.119.29.3.372.496.071.184.108.372.108.561 0 .152-.029.308-.082.47-.05.141-.12.295-.215.449-.414.656-1.16 1.238-2.289 1.801-1.08.526-2.287.887-3.586 1.076l-.722.1zm5.325-4.497c-.2 0-.423.048-.665.146-.268.106-.55.242-.847.415-.502.343-1.025.821-1.527 1.391-.401.465-.725.94-.956 1.429a10.47 10.47 0 002.582-.877c.964-.472 1.609-.964 1.922-1.452.05-.096.096-.189.125-.268a.56.56 0 00-.01-.404.405.405 0 00-.135-.168.757.757 0 00-.237-.167.767.767 0 00-.252-.045z" fill="url(#paint13_linear_224_13468)"/><path d="M90.222 22.25c-1.639 1.91-3.275 3.11-4.07 3.055-.374-.025-1.184-.17-1.062-1.814.385-5.103.075-5.103.497-21.64 0 0-4.97 9.23-10.253 20.455-.592 1.248-.987 2.265-1.896 2.265-1.01 0-1.203-.807-1.703-2.226C69.703 16.596 62.718-.023 62.71 0c-.008-.024-6.996 16.595-9.025 22.346-.503 1.418-.694 2.226-1.703 2.226-.908 0-1.307-1.018-1.894-2.266C44.802 11.081 39.836 1.852 39.836 1.852c.42 16.536.106 16.536.491 21.639.122 1.644-.688 1.79-1.06 1.814-.791.055-2.433-1.145-4.066-3.055-5.894-6.868-10.863-10.637-10.863-10.637 5.934 17.293 8.292 24.02 8.292 24.02h60.16s2.359-6.727 8.289-24.02c.001 0-4.966 3.769-10.857 10.637z" fill="url(#paint14_linear_224_13468)"/><mask id="a" style="mask-type:alpha" maskUnits="userSpaceOnUse" x="52" y="1" width="11" height="34"><path d="M62.594 1.23c-2.962 7.51-5.413 16.513-7.671 22.635-.385 1.041-2.377 3.344-2.86 3.602 1.97 4.385 2.934 6.931 2.934 6.931h7.597V1.23z" fill="url(#paint15_linear_224_13468)"/></mask><g mask="url(#a)"><path d="M62.596 1.234c-2.962 7.51-5.413 16.513-7.671 22.635-.385 1.041-2.377 3.344-2.86 3.601 1.97 4.386 2.934 6.932 2.934 6.932h7.596V1.234z" fill="url(#paint16_linear_224_13468)"/><path d="M93.97 37.354a177.924 177.924 0 00-60.734-.034v14.446c20.513-2.317 40.999-1.652 60.733.037V37.354z" fill="url(#paint17_linear_224_13468)"/></g><mask id="b" style="mask-type:alpha" maskUnits="userSpaceOnUse" x="33" y="49" width="61" height="3"><path d="M93.97 49.45H33.235v2.3h2.282c4.635-.688 18.308-1.841 58.451-2.284v-.017z" fill="url(#paint18_linear_224_13468)"/></mask><g mask="url(#b)"><path d="M93.97 49.45H33.235v2.3h2.282c4.635-.688 18.308-1.841 58.451-2.284v-.017z" fill="url(#paint19_linear_224_13468)"/></g><mask id="c" style="mask-type:alpha" maskUnits="userSpaceOnUse" x="76" y="3" width="25" height="32"><path d="M87.276 26.343c-2.59 2.52-3.312-1.155-3.22-2.409.3-4.015.03-10.959 1.485-20.32l-8.738 30.14s6.653 1.67 11.803-3.458c3.758-3.745 6.993-9.488 11.803-17.543.001 0-9.506 10.055-13.133 13.59z" fill="url(#paint20_linear_224_13468)"/></mask><g mask="url(#c)"><path d="M87.276 26.343c-2.59 2.52-3.312-1.155-3.22-2.409.3-4.015.03-10.959 1.485-20.32l-8.738 30.14s6.653 1.67 11.803-3.458c3.758-3.745 6.993-9.488 11.803-17.543.001 0-9.506 10.055-13.133 13.59z" fill="url(#paint21_linear_224_13468)"/></g><mask id="d" style="mask-type:alpha" maskUnits="userSpaceOnUse" x="24" y="3" width="29" height="32"><path d="M38.134 26.481c2.59 2.519 4.236-.489 4.12-2.547-.231-4.021-.032-10.959-1.488-20.32l12.101 30.14s-10.013 1.67-15.166-3.458c-3.758-3.745-8.135-9.421-12.945-17.477 0 0 9.75 10.128 13.378 13.662z" fill="url(#paint22_linear_224_13468)"/></mask><g mask="url(#d)"><path d="M38.134 26.481c2.59 2.519 4.236-.489 4.12-2.547-.231-4.021-.032-10.959-1.488-20.32l12.101 30.14s-10.013 1.67-15.166-3.458c-3.758-3.745-8.135-9.421-12.945-17.477 0 0 9.75 10.128 13.378 13.662z" fill="url(#paint23_linear_224_13468)"/><path d="M37.79 3.023a2.436 2.436 0 002.998 1.708 2.437 2.437 0 001.706-2.998A2.437 2.437 0 0039.495.025a2.44 2.44 0 00-1.706 2.998z" fill="url(#paint24_radial_224_13468)"/><path d="M24.748 13.792a2.255 2.255 0 100-4.51 2.255 2.255 0 000 4.51z" fill="url(#paint25_radial_224_13468)"/><mask id="e" style="mask-type:alpha" maskUnits="userSpaceOnUse" x="22" y="9" width="5" height="4"><path d="M26.425 11.215a2.055 2.055 0 00-2.76-.898c-.448.231-.776.6-.956 1.03a2.048 2.048 0 011.11-1.664 2.054 2.054 0 012.757.897c.287.56.287 1.19.06 1.73a2.072 2.072 0 00-.211-1.095z" fill="url(#paint26_linear_224_13468)"/></mask><g mask="url(#e)"><path d="M26.427 11.215a2.055 2.055 0 00-2.76-.898c-.449.231-.776.6-.956 1.03a2.048 2.048 0 011.11-1.664 2.054 2.054 0 012.757.897c.287.56.287 1.19.059 1.73a2.072 2.072 0 00-.21-1.095z" fill="url(#paint27_linear_224_13468)"/></g><path d="M93.658 35.01a167.643 167.643 0 00-30.056-2.729c-10.06.003-20.12.914-30.053 2.728-.715.133-1.185.808-1.052 1.5V39s.457-1.467 1.512-1.467a165.318 165.318 0 0129.594-2.69c9.906.008 19.811.903 29.593 2.69 1.055 0 1.512 1.466 1.512 1.466V36.51c.132-.693-.338-1.368-1.05-1.5z" fill="url(#paint28_linear_224_13468)"/></g><mask id="f" style="mask-type:alpha" maskUnits="userSpaceOnUse" x="32" y="32" width="63" height="7"><path d="M93.66 35.01a167.643 167.643 0 00-30.056-2.729c-10.061.003-20.12.914-30.056 2.728-.712.133-1.182.808-1.05 1.5v1.937c-.02-3.955 44.097-7.394 61.996-2.906a1.297 1.297 0 00-.834-.53z" fill="url(#paint29_linear_224_13468)"/></mask><g mask="url(#f)"><path d="M93.658 35.01a167.642 167.642 0 00-30.056-2.729c-10.06.003-20.12.914-30.056 2.728-.712.133-1.181.808-1.049 1.5v1.937c-.021-3.955 44.096-7.394 61.995-2.906a1.297 1.297 0 00-.834-.53z" fill="url(#paint30_linear_224_13468)"/></g><defs><linearGradient id="paint0_linear_224_13468" x1="62.914" y1="180.218" x2="62.914" y2="55.062" gradientUnits="userSpaceOnUse"><stop stop-color="#C55C18"/><stop offset=".182" stop-color="#FBB040"/><stop offset=".382" stop-color="#892E01"/><stop offset=".606" stop-color="#FFF8A3"/><stop offset=".788" stop-color="#FBB040"/><stop offset="1" stop-color="#C35019"/></linearGradient><linearGradient id="paint1_linear_224_13468" x1="62.913" y1="173.551" x2="62.913" y2="61.734" gradientUnits="userSpaceOnUse"><stop stop-color="#8A3E01"/><stop offset=".285" stop-color="#C55C18"/><stop offset=".709" stop-color="#FBB040"/><stop offset="1" stop-color="#FFF8A3"/></linearGradient><linearGradient id="paint2_linear_224_13468" x1="6.507" y1="117.638" x2="119.317" y2="117.638" gradientUnits="userSpaceOnUse"><stop stop-color="#612600"/><stop offset=".491" stop-color="#8F4103"/><stop offset="1" stop-color="#FBB040"/></linearGradient><linearGradient id="paint4_linear_224_13468" x1="25.892" y1="107.547" x2="97.181" y2="82.005" gradientUnits="userSpaceOnUse"><stop stop-color="#813900"/><stop offset=".279" stop-color="#FFC841"/><stop offset=".539" stop-color="#FFF8A3"/><stop offset=".776" stop-color="#FBB040"/><stop offset="1" stop-color="#C55C18"/></linearGradient><linearGradient id="paint5_linear_224_13468" x1="26.327" y1="108.781" x2="97.629" y2="83.234" gradientUnits="userSpaceOnUse"><stop stop-color="#813900"/><stop offset=".279" stop-color="#FFC841"/><stop offset=".539" stop-color="#FFF8A3"/><stop offset=".776" stop-color="#FBB040"/><stop offset="1" stop-color="#C55C18"/></linearGradient><linearGradient id="paint6_linear_224_13468" x1="31.526" y1="123.274" x2="102.816" y2="97.733" gradientUnits="userSpaceOnUse"><stop stop-color="#813900"/><stop offset=".279" stop-color="#FFC841"/><stop offset=".539" stop-color="#FFF8A3"/><stop offset=".776" stop-color="#FBB040"/><stop offset="1" stop-color="#C55C18"/></linearGradient><linearGradient id="paint7_linear_224_13468" x1="47.827" y1="122.885" x2="37.33" y2="99.439" gradientUnits="userSpaceOnUse"><stop stop-color="#C55C18"/><stop offset=".224" stop-color="#FBB040"/><stop offset=".461" stop-color="#FFF8A3"/><stop offset=".721" stop-color="#FFC841"/><stop offset="1" stop-color="#813900"/></linearGradient><linearGradient id="paint8_linear_224_13468" x1="66.578" y1="114.49" x2="56.08" y2="91.043" gradientUnits="userSpaceOnUse"><stop stop-color="#C55C18"/><stop offset=".224" stop-color="#FBB040"/><stop offset=".461" stop-color="#FFF8A3"/><stop offset=".721" stop-color="#FFC841"/><stop offset="1" stop-color="#813900"/></linearGradient><linearGradient id="paint9_linear_224_13468" x1="78.283" y1="109.247" x2="67.786" y2="85.804" gradientUnits="userSpaceOnUse"><stop stop-color="#C55C18"/><stop offset=".224" stop-color="#FBB040"/><stop offset=".461" stop-color="#FFF8A3"/><stop offset=".721" stop-color="#FFC841"/><stop offset="1" stop-color="#813900"/></linearGradient><linearGradient id="paint10_linear_224_13468" x1="25.124" y1="130.595" x2="94.991" y2="115.178" gradientUnits="userSpaceOnUse"><stop stop-color="#813900"/><stop offset=".279" stop-color="#FFC841"/><stop offset=".539" stop-color="#FFF8A3"/><stop offset=".776" stop-color="#FBB040"/><stop offset="1" stop-color="#C55C18"/></linearGradient><linearGradient id="paint11_linear_224_13468" x1="26.739" y1="137.909" x2="96.609" y2="122.492" gradientUnits="userSpaceOnUse"><stop stop-color="#813900"/><stop offset=".279" stop-color="#FFC841"/><stop offset=".539" stop-color="#FFF8A3"/><stop offset=".776" stop-color="#FBB040"/><stop offset="1" stop-color="#C55C18"/></linearGradient><linearGradient id="paint12_linear_224_13468" x1="66.017" y1="153.917" x2="31.509" y2="126.56" gradientUnits="userSpaceOnUse"><stop stop-color="#813900"/><stop offset=".279" stop-color="#FFC841"/><stop offset=".539" stop-color="#FFF8A3"/><stop offset=".776" stop-color="#FBB040"/><stop offset="1" stop-color="#C55C18"/></linearGradient><linearGradient id="paint13_linear_224_13468" x1="77.404" y1="139.554" x2="42.896" y2="112.197" gradientUnits="userSpaceOnUse"><stop stop-color="#813900"/><stop offset=".279" stop-color="#FFC841"/><stop offset=".539" stop-color="#FFF8A3"/><stop offset=".776" stop-color="#FBB040"/><stop offset="1" stop-color="#C55C18"/></linearGradient><linearGradient id="paint14_linear_224_13468" x1="28.163" y1="17.713" x2="97.162" y2="18.083" gradientUnits="userSpaceOnUse"><stop stop-color="#C55C18"/><stop offset=".182" stop-color="#FBB040"/><stop offset=".382" stop-color="#892E01"/><stop offset=".606" stop-color="#FFF8A3"/><stop offset=".788" stop-color="#FBB040"/><stop offset="1" stop-color="#C35019"/></linearGradient><linearGradient id="paint15_linear_224_13468" x1="52.062" y1="17.815" x2="63.58" y2="17.815" gradientUnits="userSpaceOnUse"><stop offset=".455"/><stop offset=".501" stop-color="#0A0A0A"/><stop offset=".581" stop-color="#262626"/><stop offset=".684" stop-color="#525252"/><stop offset=".807" stop-color="#909090"/><stop offset=".944" stop-color="#DDD"/><stop offset="1" stop-color="#fff"/></linearGradient><linearGradient id="paint16_linear_224_13468" x1="52.064" y1="17.819" x2="63.582" y2="17.819" gradientUnits="userSpaceOnUse"><stop offset=".455" stop-color="#fff"/><stop offset="1" stop-color="#fff"/></linearGradient><linearGradient id="paint17_linear_224_13468" x1="33.236" y1="43.265" x2="93.969" y2="43.265" gradientUnits="userSpaceOnUse"><stop stop-color="#C55C18"/><stop offset=".182" stop-color="#FBB040"/><stop offset=".382" stop-color="#8A3E01"/><stop offset=".606" stop-color="#FFF8A3"/><stop offset=".788" stop-color="#FBB040"/><stop offset="1" stop-color="#C55C18"/></linearGradient><linearGradient id="paint18_linear_224_13468" x1="63.26" y1="49.364" x2="60.399" y2="39.066" gradientUnits="userSpaceOnUse"><stop offset=".216" stop-color="#fff"/><stop offset=".29" stop-color="#DDD"/><stop offset=".474" stop-color="#909090"/><stop offset=".638" stop-color="#525252"/><stop offset=".777" stop-color="#262626"/><stop offset=".883" stop-color="#0A0A0A"/><stop offset=".946"/></linearGradient><linearGradient id="paint19_linear_224_13468" x1="63.26" y1="49.364" x2="60.399" y2="39.066" gradientUnits="userSpaceOnUse"><stop offset=".216" stop-color="#fff"/><stop offset=".946" stop-color="#fff"/></linearGradient><linearGradient id="paint20_linear_224_13468" x1="76.534" y1="17.562" x2="101.888" y2="23.692" gradientUnits="userSpaceOnUse"><stop stop-color="#fff"/><stop offset=".138" stop-color="#B9B9B9"/><stop offset=".28" stop-color="#787878"/><stop offset=".408" stop-color="#444"/><stop offset=".52" stop-color="#1F1F1F"/><stop offset=".61" stop-color="#080808"/><stop offset=".667"/></linearGradient><linearGradient id="paint21_linear_224_13468" x1="76.534" y1="17.562" x2="101.888" y2="23.692" gradientUnits="userSpaceOnUse"><stop stop-color="#7C2D1F"/><stop offset=".667" stop-color="#7C2D1F"/></linearGradient><linearGradient id="paint22_linear_224_13468" x1="54.008" y1="16.945" x2="22.468" y2="24.57" gradientUnits="userSpaceOnUse"><stop stop-color="#fff"/><stop offset=".056" stop-color="#DDD"/><stop offset=".193" stop-color="#909090"/><stop offset=".316" stop-color="#525252"/><stop offset=".419" stop-color="#262626"/><stop offset=".499" stop-color="#0A0A0A"/><stop offset=".545"/></linearGradient><linearGradient id="paint23_linear_224_13468" x1="54.008" y1="16.945" x2="22.468" y2="24.57" gradientUnits="userSpaceOnUse"><stop stop-color="#fff"/><stop offset=".545" stop-color="#fff"/></linearGradient><linearGradient id="paint26_linear_224_13468" x1="26.704" y1="11.446" x2="23.443" y2="10.228" gradientUnits="userSpaceOnUse"><stop offset=".455"/><stop offset=".501" stop-color="#0A0A0A"/><stop offset=".581" stop-color="#262626"/><stop offset=".684" stop-color="#525252"/><stop offset=".807" stop-color="#909090"/><stop offset=".944" stop-color="#DDD"/><stop offset="1" stop-color="#fff"/></linearGradient><linearGradient id="paint27_linear_224_13468" x1="26.706" y1="11.446" x2="23.445" y2="10.228" gradientUnits="userSpaceOnUse"><stop offset=".455" stop-color="#fff"/><stop offset="1" stop-color="#fff"/></linearGradient><linearGradient id="paint28_linear_224_13468" x1="32.475" y1="35.64" x2="157.38" y2="35.64" gradientUnits="userSpaceOnUse"><stop stop-color="#C55C18"/><stop offset=".182" stop-color="#FBB040"/><stop offset=".382" stop-color="#8A3E01"/><stop offset=".606" stop-color="#FFF8A3"/><stop offset=".788" stop-color="#FBB040"/><stop offset="1" stop-color="#C55C18"/></linearGradient><linearGradient id="paint29_linear_224_13468" x1="63.04" y1="35.349" x2="60.081" y2="24.699" gradientUnits="userSpaceOnUse"><stop offset=".054"/><stop offset=".117" stop-color="#0A0A0A"/><stop offset=".223" stop-color="#262626"/><stop offset=".361" stop-color="#525252"/><stop offset=".526" stop-color="#909090"/><stop offset=".71" stop-color="#DDD"/><stop offset=".784" stop-color="#fff"/></linearGradient><linearGradient id="paint30_linear_224_13468" x1="63.038" y1="35.349" x2="60.08" y2="24.699" gradientUnits="userSpaceOnUse"><stop offset=".054" stop-color="#fff"/><stop offset=".784" stop-color="#fff"/></linearGradient><radialGradient id="paint3_radial_224_13468" cx="0" cy="0" r="1" gradientUnits="userSpaceOnUse" gradientTransform="translate(62.913 117.637) scale(50.9269)"><stop offset=".229" stop-color="#282829"/><stop offset=".681" stop-color="#222223"/><stop offset=".969" stop-color="#060606"/><stop offset="1"/></radialGradient><radialGradient id="paint24_radial_224_13468" cx="0" cy="0" r="1" gradientUnits="userSpaceOnUse" gradientTransform="matrix(-2.35263 .6463 -.6463 -2.35261 39.936 2.055)"><stop stop-color="#FFF799"/><stop offset=".509" stop-color="#FBB040"/><stop offset="1" stop-color="#C55C18"/></radialGradient><radialGradient id="paint25_radial_224_13468" cx="0" cy="0" r="1" gradientUnits="userSpaceOnUse" gradientTransform="rotate(152.761 10.883 8.61) scale(2.25556)"><stop stop-color="#FFF799"/><stop offset=".509" stop-color="#FBB040"/><stop offset="1" stop-color="#C55C18"/></radialGradient></defs></svg>