<svg width="30" height="30" fill="none" xmlns="http://www.w3.org/2000/svg"><circle cx="15" cy="15" r="14.5" fill="#fff" stroke="#F1592A"/><path fill-rule="evenodd" clip-rule="evenodd" d="M21.123 9.854a.5.5 0 10-.707-.708l-5.209 5.21-5.146-5.147a.5.5 0 10-.707.707l5.146 5.146-5.377 5.377a.5.5 0 10.707.707l5.377-5.377 5.44 5.44a.5.5 0 10.707-.707l-5.44-5.44 5.209-5.208z" fill="#F1592A"/><path d="M21.123 9.146l.354-.353-.354.353zm0 .708l.354.353-.354-.353zm-.707-.708l-.354-.353.354.353zm-5.209 5.21l-.354.353.354.353.354-.353-.354-.354zm-5.146-5.147l-.354.353.354-.353zm-.707 0L9 8.855l.354.354zm0 .707L9 10.27l.354-.354zm5.146 5.146l.354.354.353-.354-.354-.353-.353.353zM9.123 20.44l.354.354-.354-.354zm0 .707l.354-.353-.354.353zm.707 0l.354.354-.354-.354zm5.377-5.377l.354-.353-.354-.354-.354.354.354.354zm6.146 5.44L21 20.855l.354.354zm0-.707l-.353.353.354-.353zm-5.439-5.44l-.353-.353-.354.353.354.354.353-.354zM20.77 9.5l.707.707a1 1 0 000-1.414l-.707.707zm0 0l.707-.707a1 1 0 00-1.415 0l.707.707zm-5.21 5.209L20.77 9.5l-.708-.707-5.209 5.209.708.707zM9.708 9.562l5.146 5.147.708-.707-5.147-5.147-.707.707zm0 0l.707-.707a1 1 0 00-1.414 0l.707.707zm0 0L9 8.855a1 1 0 000 1.415l.707-.708zm5.146 5.147L9.707 9.562 9 10.27l5.146 5.146.707-.707zm-5.376 6.084l5.377-5.377-.708-.707-5.377 5.377.708.707zm0 0l-.708-.707a1 1 0 000 1.414l.708-.707zm0 0l-.708.707a1 1 0 001.415 0l-.707-.707zm5.377-5.377l-5.377 5.377.707.707 5.377-5.377-.707-.707zM21 20.856l-5.44-5.44-.707.707 5.44 5.44.707-.708zm0 0l-.707.706a1 1 0 001.414 0L21 20.855zm0 0l.707.706a1 1 0 000-1.414l-.707.707zm-5.44-5.44l5.44 5.44.707-.708-5.44-5.44-.706.708zM20.77 9.5l-5.21 5.209.708.707 5.209-5.209-.707-.707z" fill="#F1592A"/></svg>