<svg width="172" height="195" fill="none" xmlns="http://www.w3.org/2000/svg"><path d="M140.986 99.254v13.416a41.995 41.995 0 0119.55 22.371 43.53 43.53 0 002.728-8.361 45.279 45.279 0 018.655 4.158 54.17 54.17 0 00-30.933-31.584z" fill="url(#paint0_linear_224_13033)"/><path d="M149.035 126.132l-17.027-18.719 8.95-8.19 17.012 18.585-8.935 8.324z" fill="url(#paint1_linear_224_13033)"/><path d="M31.043 99.254v13.416a41.992 41.992 0 00-19.553 22.371 43.62 43.62 0 01-2.727-8.361 45.2 45.2 0 00-8.654 4.158 54.154 54.154 0 0130.934-31.584z" fill="url(#paint2_linear_224_13033)"/><path d="M22.993 126.132l17.026-18.719-8.95-8.19-17.014 18.585 8.938 8.324z" fill="url(#paint3_linear_224_13033)"/><path d="M117.763 170.906H45.326l7.701-39.094h57.035l7.701 39.094z" fill="url(#paint4_linear_224_13033)"/><path d="M110.037 131.812H53.051l4.972-8.859h46.938l5.076 8.859z" fill="url(#paint5_linear_224_13033)"/><path d="M119.224 168.605H43.865v4.954h75.359v-4.954z" fill="url(#paint6_linear_224_13033)"/><path d="M100.234 138.812H62.875v21.936h37.359v-21.936z" fill="url(#paint7_linear_224_13033)"/><mask id="a" style="mask-type:alpha" maskUnits="userSpaceOnUse" x="62" y="138" width="39" height="23"><path d="M100.208 160.748H62.85v-21.936h4.096c2.074 6.646 9.457 21.873 33.262 20.014v1.922z" fill="url(#paint8_linear_224_13033)"/></mask><g mask="url(#a)"><path d="M100.21 160.748H62.852v-21.936h4.096c2.074 6.646 9.457 21.873 33.262 20.014v1.922z" fill="url(#paint9_linear_224_13033)"/></g><path d="M103.848 62.997v-5.163c12.462 0 23.757-25.293 27.963-37.49l-8.913-4.024c-5.163 8.484-13.304 8.749-13.675 8.754l-.1-5.163.048 2.583-.072-2.58c.274-.012 6.74-.342 10.32-8.03l1.075-2.314 17.649 7.962-.688 2.188c-.137.434-3.405 10.719-8.981 21.174-7.817 14.67-16.103 22.103-24.626 22.103z" fill="url(#paint10_radial_224_13033)"/><path d="M119.022 8.93l-1.076 2.313c-1.474 3.162-3.861 5.196-6.182 6.309v1.755l.106-.03s5.22-1.755 7.567-7.416l1.067-2.293-1.482-.638z" fill="url(#paint11_radial_224_13033)"/><path d="M107.707 57.045c10.881-4.362 20.332-25.78 24.097-36.702l-8.913-4.023a22.397 22.397 0 01-.991 1.482l7.875 3.553c-3.53 10.244-12.053 29.699-22.068 35.69z" fill="url(#paint12_radial_224_13033)"/><mask id="b" style="mask-type:alpha" maskUnits="userSpaceOnUse" x="103" y="12" width="36" height="51"><path d="M138.143 17.532l-12.144-5.477a72.22 72.22 0 01.038 5.679l5.774 2.61c-4.207 12.198-15.502 37.49-27.963 37.49v5.163c8.523 0 16.809-7.434 24.627-22.103 5.576-10.455 8.844-20.74 8.98-21.175l.688-2.187z" fill="url(#paint13_linear_224_13033)"/></mask><g mask="url(#b)"><path d="M138.143 17.532l-12.144-5.477a72.22 72.22 0 01.038 5.679l5.774 2.61c-4.207 12.198-15.502 37.49-27.963 37.49v5.163c8.523 0 16.809-7.434 24.627-22.103 5.576-10.455 8.844-20.74 8.98-21.175l.688-2.187z" fill="url(#paint14_linear_224_13033)"/></g><path d="M59.241 62.997v-5.163c-12.461 0-23.758-25.293-27.963-37.49l8.913-4.024c5.163 8.484 13.304 8.749 13.675 8.754l.102-5.163-.051 2.583.073-2.58c-.275-.012-6.74-.342-10.32-8.03L42.593 9.57l-17.648 7.962.69 2.188c.135.434 3.402 10.719 8.98 21.174 7.817 14.67 16.103 22.103 24.626 22.103z" fill="url(#paint15_radial_224_13033)"/><path d="M44.069 8.93l1.076 2.313c1.472 3.162 3.86 5.196 6.182 6.309v1.755l-.106-.03S46 17.522 43.653 11.86l-1.067-2.293 1.483-.638z" fill="url(#paint16_radial_224_13033)"/><path d="M55.383 57.045c-10.88-4.362-20.333-25.78-24.098-36.702l8.913-4.023c.321.525.651 1.014.992 1.482l-7.875 3.553c3.528 10.244 12.052 29.699 22.068 35.69z" fill="url(#paint17_radial_224_13033)"/><mask id="c" style="mask-type:alpha" maskUnits="userSpaceOnUse" x="24" y="12" width="36" height="51"><path d="M24.945 17.532l12.145-5.477a72.624 72.624 0 00-.038 5.679l-5.773 2.61c4.205 12.198 15.5 37.49 27.963 37.49v5.163c-8.523 0-16.809-7.434-24.627-22.103-5.577-10.455-8.844-20.74-8.98-21.175l-.69-2.187z" fill="url(#paint18_linear_224_13033)"/></mask><g mask="url(#c)"><path d="M24.945 17.532l12.145-5.477a72.624 72.624 0 00-.038 5.679l-5.773 2.61c4.205 12.198 15.5 37.49 27.963 37.49v5.163c-8.523 0-16.809-7.434-24.627-22.103-5.577-10.455-8.844-20.74-8.98-21.175l-.69-2.187z" fill="url(#paint19_linear_224_13033)"/></g><path d="M96.817 120.928c0 1.161-6.85 4.039-15.297 4.039-8.448 0-15.297-2.878-15.297-4.039 0-1.167 6.849-2.112 15.297-2.112s15.297.945 15.297 2.112z" fill="url(#paint20_linear_224_13033)"/><path d="M95.275 122.118c-8.639 3.681-18.825 3.681-27.462 0-1.425-.618-1.587-1.26-1.587-1.251-.578.831-1.156 1.656-1.734 2.49-.318.453-1.502 2.124.748 3.117 10.255 4.372 22.352 4.372 32.607 0 2.249-.993 1.067-2.664.747-3.117-.577-.834-1.154-1.659-1.733-2.49 0-.009-.162.633-1.586 1.251z" fill="url(#paint21_radial_224_13033)"/><path d="M83.68 99.625c0-10.368 3.064-14.804 3.89-15.813H75.518c.824 1.009 3.89 5.445 3.89 15.813 0 9.681-1.538 13.075-3.158 15.325l5.294 3.396 5.292-3.585c-1.62-2.25-3.157-5.455-3.157-15.136z" fill="url(#paint22_radial_224_13033)"/><mask id="d" style="mask-type:alpha" maskUnits="userSpaceOnUse" x="75" y="83" width="11" height="36"><path d="M75.488 83.813c.824 1.008 3.888 5.444 3.888 15.812 0 9.681-1.537 13.075-3.156 15.325l5.292 3.396 2.945-1.995c-3.7-6.888-6.94-18.567 1.422-32.538H75.488z" fill="url(#paint23_linear_224_13033)"/></mask><g mask="url(#d)"><path d="M75.49 83.813c.824 1.008 3.888 5.444 3.888 15.812 0 9.681-1.537 13.075-3.156 15.325l5.292 3.396 2.945-1.995c-3.7-6.888-6.941-18.567 1.422-32.538H75.49z" fill="url(#paint24_linear_224_13033)"/></g><mask id="e" style="mask-type:alpha" maskUnits="userSpaceOnUse" x="49" y="6" width="65" height="63"><path d="M111.855 25.277l1.571-16.053s-19.328-3.01-31.878-3.01c-12.552 0-31.88 3.01-31.88 3.01l4.27 43.677c0 6.144 2.96 11.493 7.03 16.008.587-16.76 8.24-43.392 50.887-43.632z" fill="url(#paint25_linear_224_13033)"/></mask><g mask="url(#e)"><path d="M111.853 25.277l1.571-16.053s-19.328-3.01-31.878-3.01c-12.552 0-31.88 3.01-31.88 3.01l4.27 43.677c0 6.144 2.96 11.493 7.03 16.008.587-16.76 8.24-43.392 50.887-43.632z" fill="url(#paint26_linear_224_13033)"/></g><mask id="f" style="mask-type:alpha" maskUnits="userSpaceOnUse" x="73" y="80" width="16" height="5"><path d="M75.264 80.258c-.796 0-1.44.648-1.44 1.443v1.08c0 .797.644 1.44 1.44 1.44h10.38a48.348 48.348 0 012.537-3.894 1.464 1.464 0 00-.416-.07h-12.5z" fill="url(#paint27_linear_224_13033)"/></mask><g mask="url(#f)"><path d="M75.264 80.258c-.796 0-1.44.648-1.44 1.443v1.08c0 .797.644 1.44 1.44 1.44h10.38a48.348 48.348 0 012.537-3.894 1.464 1.464 0 00-.416-.07h-12.5z" fill="url(#paint28_linear_224_13033)"/></g><mask id="g" style="mask-type:alpha" maskUnits="userSpaceOnUse" x="73" y="114" width="16" height="9"><path d="M76.223 114.949l-3.149 6.246c4.846 1.704 10.088 1.944 15.01.579a33.499 33.499 0 01-3.798-5.751c-2.83 1.056-5.252.597-8.063-1.074z" fill="url(#paint29_linear_224_13033)"/></mask><g mask="url(#g)"><path d="M76.223 114.949l-3.149 6.246c4.846 1.704 10.088 1.944 15.01.579a33.499 33.499 0 01-3.798-5.751c-2.83 1.056-5.252.597-8.063-1.074z" fill="url(#paint30_linear_224_13033)"/></g><mask id="h" style="mask-type:alpha" maskUnits="userSpaceOnUse" x="63" y="120" width="35" height="10"><path d="M97.687 122.055c-.276-.399-.55-.792-.826-1.188 0-.009-.162.637-1.586 1.251-8.639 3.681-18.825 3.681-27.462 0-1.425-.615-1.587-1.26-1.587-1.251l-1.734 2.49c-.318.453-1.502 2.124.748 3.117 5.106 2.175 10.672 3.267 16.237 3.276 2.938-1.952 8.962-5.559 16.21-7.695z" fill="url(#paint31_linear_224_13033)"/></mask><g mask="url(#h)"><path d="M97.687 122.055c-.276-.399-.55-.792-.826-1.188 0-.009-.162.637-1.586 1.251-8.639 3.681-18.825 3.681-27.462 0-1.425-.615-1.587-1.26-1.587-1.251l-1.734 2.49c-.318.453-1.502 2.124.748 3.117 5.106 2.175 10.672 3.267 16.237 3.276 2.938-1.952 8.962-5.559 16.21-7.695z" fill="url(#paint32_linear_224_13033)"/></g><path d="M157.957 117.821c-23.523-9.786-47.943-15.6-71.937-15.981h-.039c-23.993.381-48.414 6.195-71.938 15.981 4.2 3.969 6.3 6.069 10.383 9.57A168.175 168.175 0 0186 114.614a168.176 168.176 0 0161.576 12.777c4.085-3.501 6.183-5.601 10.381-9.57z" fill="url(#paint33_linear_224_13033)"/><path d="M56.51 111.141c.13-.408.32-.833.566-1.275.41-.726.946-1.443 1.609-2.152a10.303 10.303 0 012.132-1.763c.33-.214.667-.393 1.014-.533.345-.143.687-.24 1.022-.293.122-.019.239-.031.354-.036.114-.002.224-.004.33-.002.319.017.56.11.726.28.167.169.273.403.321.703.033.206.04.441.02.707a5.953 5.953 0 01-.13.847 20.98 20.98 0 01-.123.579c-.046.2-.095.4-.15.599l-.09.331c-.03.11-.062.215-.093.317l-.388 1.303a7.678 7.678 0 00-.239.98l1.695-.271c-.018.07-.04.156-.067.254-.027.101-.059.221-.093.36a4.75 4.75 0 01-.086.416.653.653 0 01-.087.215.242.242 0 01-.05.051.126.126 0 01-.053.024.038.038 0 01-.03-.01l-.021.004a.11.11 0 00-.021.003l-1.625.259a77.81 77.81 0 00-.457 1.279 6.115 6.115 0 00-.18.488 9.531 9.531 0 01-.307.689 1.892 1.892 0 01-.3.457c-.015.03-.114.067-.298.111-.185.045-.383.088-.598.132-.11.026-.216.047-.32.064l-.28.044a4.986 4.986 0 01-.189.03c-.05.009-.09.016-.118.019.052-.085.15-.244.29-.477.14-.233.288-.492.444-.775a1.144 1.144 0 01.144-.267c.187-.384.343-.733.466-1.043.121-.312.13-.473.022-.486l-.726.13c-.15.025-.233.014-.25-.031-.016-.045.02-.18.108-.405.01-.05.027-.104.047-.159a15.55 15.55 0 00.102-.303c.017-.046.031-.084.046-.115.027-.071.056-.134.086-.186.03-.052.063-.081.1-.087l1.05-.168a52.636 52.636 0 00.304-.794 39.608 39.608 0 00.495-1.674c.103-.38.196-.753.281-1.122.084-.368.16-.705.226-1.013a.108.108 0 00.016-.038c0-.015.003-.026 0-.037.01-.05.023-.099.034-.148a.737.737 0 00.02-.147c.016-.078.025-.156.028-.234a1.086 1.086 0 00-.01-.185l-.008-.057c-.003-.018-.01-.032-.021-.039-.014-.026-.056-.042-.13-.045a1.532 1.532 0 00-.276.023c-.187.03-.423.096-.707.2a3.64 3.64 0 00-.854.452.484.484 0 01-.046.028.339.339 0 00-.045.029l-.059.038c-.022.013-.042.027-.058.038a9.035 9.035 0 00-1.724 1.711 16.6 16.6 0 00-.449.61c-.148.21-.304.44-.466.685a.937.937 0 01-.073.119 1.238 1.238 0 00-.075.12c-.043.084-.089.165-.133.245-.043.078-.09.154-.135.229-.11.219-.196.424-.261.617-.065.192-.09.334-.076.428a.205.205 0 00.027.082c.012.017.033.028.063.033a.12.12 0 01.037.002.088.088 0 00.035.001.176.176 0 01.051-.001.09.09 0 00.037.001c.177-.029.36-.126.548-.295.188-.169.372-.379.554-.627a5.57 5.57 0 00.32-.461 16.4 16.4 0 00.302-.501c.255-.432.476-.829.657-1.188.182-.359.3-.549.356-.566.009-.002.052.061.13.187.077.126.16.283.246.471a2.938 2.938 0 01.21.411c.016.044.036.093.058.141a2.1 2.1 0 01.059.142c-.06.162-.168.388-.322.677-.156.288-.342.592-.558.913a9.54 9.54 0 01-.792.981c-.294.32-.597.577-.912.771a1.825 1.825 0 01-.343.183 2.471 2.471 0 01-.355.116l-.027.004a.232.232 0 00-.029.005c-.009.001-.019.003-.029.003l-.026.004c-.392.072-.698.033-.919-.118a1.402 1.402 0 01-.626-1.012.555.555 0 01-.01-.063 1.243 1.243 0 01-.01-.065c-.035-.329.013-.7.145-1.108zm12.338-1.8c-.245.744-.44 1.343-.585 1.798l-.35 1.122c-.11.351-.178.585-.202.702-.007.01-.012.021-.01.029a.15.15 0 01-.001.044.092.092 0 00-.004.042.192.192 0 00.023.069c.013.017.036.024.076.019a.454.454 0 00.163-.061c.061-.037.146-.095.25-.174.277-.233.479-.411.608-.537.127-.125.237-.236.332-.332l.023-.031c.008-.01.013-.021.01-.03a.04.04 0 00.022-.01c.003-.005.01-.012.017-.025.018-.01.026-.021.026-.031a.216.216 0 00.045-.041.176.176 0 01.045-.04c.042-.044.086-.062.13-.052.042.008.072.07.086.182l.004.05a.275.275 0 00.024.075c.004.029.008.057.01.085l.013.099.012.098a.316.316 0 01-.003.1c0 .095-.007.186-.025.275a.53.53 0 01-.127.244 6.694 6.694 0 01-.468.449 7.234 7.234 0 01-1.31.921 1.437 1.437 0 01-.28.112 3.66 3.66 0 01-.381.096l-.036.005-.034.002c-.113.014-.22.019-.321.011a.526.526 0 01-.26-.082.389.389 0 01-.14-.155.605.605 0 01-.06-.194 1.18 1.18 0 01.026-.381c.031-.142.066-.286.106-.435l-.002-.013a2.385 2.385 0 00.117-.457l-.015-.012-.143.13.001.015c-.016.012-.035.025-.05.042a.297.297 0 00-.04.041 1.475 1.475 0 00-.06.085.474.474 0 01-.102.105.192.192 0 00-.024.039.15.15 0 01-.024.037.987.987 0 01-.123.109.233.233 0 01-.1.047c-.02.004-.04-.047-.062-.149a4.323 4.323 0 01-.057-.35v-.021l-.004-.023a4.146 4.146 0 01-.029-.36c-.004-.109.003-.174.02-.195.033-.042.085-.111.16-.205.076-.095.158-.195.25-.302.084-.096.16-.187.23-.277l.169-.213c.04-.053.1-.129.18-.228a8.2 8.2 0 01.255-.31c.009-.009.016-.02.025-.032l.025-.031c.09-.125.17-.239.244-.344a2.046 2.046 0 00.18-.292l.021-.06a.68.68 0 00.044-.113c.013-.043.026-.086.042-.126.025-.097.058-.231.094-.397l1.324-.158zm-.738-.968a.824.824 0 01-.225-.387c-.001-.01-.001-.017-.003-.022l-.002-.021c0-.009-.003-.018-.004-.027a.17.17 0 01.01-.045.114.114 0 00-.004-.026c0-.011 0-.019-.003-.029a.922.922 0 01.212-.561.903.903 0 01.466-.334.237.237 0 01.036-.005l.049-.006.022-.003.02-.002c.208-.016.375.038.499.161a.77.77 0 01.219.466c.004.029.008.057.01.086a.345.345 0 01-.002.085.432.432 0 00-.013.088.2.2 0 01-.025.088 1.04 1.04 0 01-.23.399.736.736 0 01-.48.23l-.035.004a.586.586 0 00-.048.006c-.2.013-.355-.036-.47-.145z" fill="#8B3010"/><path d="M70.658 109.322a.82.82 0 01-.075-.278.944.944 0 01.076-.47.932.932 0 01.232-.342.394.394 0 00.075-.042.113.113 0 01.061-.027c.046-.013.09-.026.132-.034.042-.008.083-.016.12-.019a.817.817 0 01.508.102c.14.087.228.195.26.325l.033.125a.96.96 0 01.016.112c.017.064.033.12.051.167.02.045.043.08.075.106.01 0 .018-.002.029-.003 0 .01.006.015.015.013a.534.534 0 00.111-.025c.047-.014.102-.034.167-.057.055-.015.118-.03.187-.047.07-.016.138-.027.204-.033a1.24 1.24 0 01.228 0c.077.008.15.032.22.072a.753.753 0 01.325.269c.066.108.11.226.133.359.003.037.005.079.005.127a.386.386 0 01-.024.131.642.642 0 01-.03.138c-.015.043-.028.09-.044.139-.05.166-.112.344-.186.53l-.223.578a.432.432 0 01-.024.051.092.092 0 00-.01.051c-.085.198-.164.393-.236.584l-.201.525a.05.05 0 01-.011.029.16.16 0 00.05.102.141.141 0 00.12.038.066.066 0 00.049.004l.048-.026c.063-.035.154-.096.275-.183.12-.086.247-.18.38-.277a.457.457 0 01.079-.078.84.84 0 01.093-.066 4.257 4.257 0 00.508-.505.78.78 0 01.1-.144.395.395 0 01.067-.057c.009 0 .02.001.029.005a.341.341 0 01.061.044l.032.026c.03.025.06.088.088.19a1.975 1.975 0 01.066.635c-.004.096-.03.165-.073.207a7.17 7.17 0 01-.59.553 5.78 5.78 0 01-.806.604c-.3.189-.62.337-.961.445a.845.845 0 01-.16.051c-.052.009-.1.016-.148.021-.235.021-.429-.027-.584-.146a.685.685 0 01-.27-.459.575.575 0 01.008-.15 2.08 2.08 0 00.021-.152c.063-.234.13-.459.2-.675a21.323 21.323 0 01.528-1.444c.108-.276.217-.576.33-.9.007-.01.011-.019.01-.03a.13.13 0 00-.003-.027c-.003-.037-.027-.064-.07-.079a.403.403 0 00-.166-.014c-.019.004-.037.005-.056.007a.202.202 0 00-.07.021.834.834 0 00-.164.064.309.309 0 00-.119.104c-.033.06-.056.103-.073.129a.347.347 0 00-.036.068 1.224 1.224 0 01-.091.165c-.047.07-.166.233-.36.489-.068.091-.138.184-.21.276-.072.093-.147.184-.224.278l-.127.155c-.044.051-.086.103-.128.154-.249.289-.479.546-.691.77-.212.223-.358.358-.438.403-.038.013-.068-.033-.093-.141a3.185 3.185 0 01-.06-.414l-.001-.029a2.005 2.005 0 01-.006-.368c.007-.116.028-.194.063-.235.104-.105.204-.214.297-.326.094-.114.182-.227.267-.34.322-.418.66-.967 1.014-1.647a.717.717 0 01-.204-.252z" fill="#8B3010"/><path d="M75.112 110.741a.448.448 0 01.073-.069c.398-.443.735-.864 1.013-1.266.278-.403.471-.705.58-.912v-.028l-.002-.028-.003-.043a2.073 2.073 0 01.05-.557c.042-.231.127-.444.256-.641a.67.67 0 01.547-.32c.2-.014.346.048.44.184.093.137.15.288.171.457l.002.029.001.028c-.007.02-.012.035-.01.044l.001.028a.856.856 0 01-.045.287 1.692 1.692 0 01-.08.19.43.43 0 01-.052.074.185.185 0 00-.038.074.228.228 0 00-.038.067.97.97 0 00-.024.08c.002.009.003.034.006.078.001.042.006.096.01.162l.013.198c.004.076.01.156.016.241l.01.162.01.164c.012.207.026.403.038.586.012.185.015.315.01.39-.002.105-.007.224-.012.357a3.859 3.859 0 01-.039.401c-.024.2-.06.394-.11.582-.05.189-.115.342-.191.46.057.016.155-.021.291-.111.136-.09.276-.195.42-.318l.081-.063a.52.52 0 00.068-.061 26.728 26.728 0 00.537-.489.226.226 0 00.025-.03l.027-.03a.493.493 0 00.094-.076c.056-.023.105-.025.15-.004.044.021.074.093.091.215.013.038.02.081.023.134l.01.148c.007.104.002.21-.014.321a.865.865 0 01-.13.327c-.24.234-.446.423-.616.567l-.204.163a1.882 1.882 0 01-.217.148 1.97 1.97 0 01-.356.194c-.25.111-.45.186-.604.223a2.424 2.424 0 01-.528.077 1.056 1.056 0 00-.12.014 1.086 1.086 0 01-.134.017.683.683 0 00-.322.092l-.013.001a.623.623 0 01-.308.09c-.066.005-.148 0-.249-.012-.1-.013-.231-.033-.394-.06a.52.52 0 01-.237-.141.945.945 0 01-.17-.231.743.743 0 01-.073-.251l-.003-.035-.001-.021c.001-.114.033-.192.09-.233a.374.374 0 01.202-.07 1.027 1.027 0 01.258.012c.142.009.254.021.336.035.081.014.15.019.207.014l.028-.001.029-.001.103-.035a.336.336 0 00.102-.064c.119-.074.218-.225.298-.453.08-.227.146-.465.195-.716.028-.181.047-.354.06-.515.012-.162.015-.299.01-.413a.986.986 0 00-.026-.175c-.013-.042-.029-.063-.048-.061-.047-.007-.182.117-.402.367-.22.25-.464.533-.728.843a.146.146 0 00-.046.046.134.134 0 01-.047.046c-.168.199-.33.385-.49.557a5.51 5.51 0 01-.414.41c-.036.021-.063-.014-.078-.107a3.747 3.747 0 01-.035-.34l-.005-.077-.006-.078c-.008-.114-.009-.225-.008-.332a1.31 1.31 0 01.015-.209c-.001-.027.03-.072.092-.134.063-.06.13-.126.2-.198.009-.009.019-.015.028-.015.052-.06.106-.114.16-.161a1.207 1.207 0 00.193-.199z" fill="#8B3010"/><path d="M82.169 105.449c.089-.301.18-.562.275-.784a4.04 4.04 0 01.357-.668 1.193 1.193 0 01.148-.191.832.832 0 01.158-.155c.06-.044.117-.082.172-.114a.267.267 0 01.077-.037.366.366 0 01.077-.01l.021-.002h.023c.103.005.19.051.261.138a.6.6 0 01.113.359.836.836 0 01-.002.113 3.082 3.082 0 01-.105.558c-.047.163-.1.33-.158.504-.018.048-.031.093-.044.136a2.88 2.88 0 01-.044.137l-.211.575a4.2 4.2 0 00-.134.402l.653-.025c.055-.002.1.031.13.102a.907.907 0 01.068.26l.002.07a.15.15 0 01-.012.072.957.957 0 01-.106.345.29.29 0 01-.257.165l-.779.031c-.154.404-.338.891-.553 1.463a124.96 124.96 0 00-.666 1.821 43.78 43.78 0 00-.153.439c-.051.149-.102.296-.153.439a1.02 1.02 0 00-.084.414.263.263 0 00.042.149.107.107 0 00.093.045.332.332 0 00.127-.033 1.36 1.36 0 00.167-.092 5.357 5.357 0 01.291-.181c.322-.231.579-.445.769-.641.19-.198.329-.325.41-.385.01-.011.019-.016.028-.016a.043.043 0 01.028-.016c.046-.001.091.042.131.13a.87.87 0 01.072.359v.029a.11.11 0 01-.004.035.174.174 0 00-.007.05c.004.057 0 .123-.005.199a.546.546 0 01-.077.23.37.37 0 01-.08.146 3.315 3.315 0 01-.322.282 7.829 7.829 0 01-.794.557 1.777 1.777 0 01-.237.136 4.921 4.921 0 01-.597.308 2.342 2.342 0 01-.597.18l-.091.004c-.266.009-.464-.042-.596-.154a.601.601 0 01-.222-.396c0-.02 0-.034-.002-.043a.11.11 0 01.013-.043c-.001-.009.002-.021.005-.036a.114.114 0 00.005-.036c.1-.391.184-.7.255-.925.072-.225.115-.381.13-.466l-.041.001c-.156.157-.31.311-.465.459-.155.149-.306.291-.452.429-.055.04-.098.006-.132-.101a1.536 1.536 0 01-.056-.388l-.003-.057-.002-.057a2.25 2.25 0 01.042-.371c.025-.114.059-.186.105-.216a4.09 4.09 0 00.362-.348c.187-.192.384-.407.592-.641a.664.664 0 01.088-.103.634.634 0 00.089-.104c.19-.215.36-.42.508-.615.15-.195.243-.347.287-.452.018-.039.047-.12.09-.244.042-.125.084-.26.126-.404a.041.041 0 00.013-.028c.05-.144.097-.28.14-.41.041-.13.067-.213.075-.252l-.807.032c-.038.001-.068-.022-.089-.073a.565.565 0 01-.035-.191.847.847 0 01.003-.114 1.092 1.092 0 01.144-.475c.063-.106.145-.161.249-.166l.92-.036c.074-.37.153-.706.24-1.008zm6.223 2.217c.136-.287.271-.559.406-.819a14.1 14.1 0 011.014-1.67c.323-.451.613-.806.871-1.068.22-.236.486-.43.801-.581.315-.152.633-.234.956-.247a.283.283 0 01.093-.011l.106.006c.273.012.54.089.798.228.26.14.476.36.651.662.116.184.194.448.234.792a6.744 6.744 0 01.032 1.173l-.004.105-.051.473a2.843 2.843 0 01-.077.429 8.29 8.29 0 01-.18.674c-.072.234-.16.466-.266.697a6.732 6.732 0 01-1.481 2.126c-.65.637-1.423.931-2.32.88a.503.503 0 01-.379-.23.716.716 0 01.054-.892c.115-.136.29-.204.527-.202.152-.004.325-.042.516-.119.194-.076.393-.195.599-.355.285-.235.567-.572.841-1.013.277-.442.507-1.018.69-1.73a5.416 5.416 0 00.18-1.112c.018-.416-.031-.72-.15-.915-.12-.195-.278-.297-.476-.306a.841.841 0 00-.33.055 1.623 1.623 0 00-.35.184 2.15 2.15 0 00-.406.351 3.818 3.818 0 00-.384.493c-.223.33-.441.694-.654 1.091-.211.397-.408.796-.586 1.193a16.678 16.678 0 00-.885 2.261 2.826 2.826 0 00-.12.485l-.045.331-.001.014a1.59 1.59 0 01-.024.226 9.518 9.518 0 01-.056.28 6.175 6.175 0 01-.132.407 17.211 17.211 0 01-.313.787 5.628 5.628 0 01-.32.619 1.689 1.689 0 01-.51.6.796.796 0 01-.217.11.533.533 0 01-.186.027.383.383 0 01-.304-.177c-.08-.113-.114-.282-.105-.508a3.99 3.99 0 01.016-.192c.008-.071.024-.142.045-.217.057-.206.16-.555.313-1.05.15-.496.317-1.017.504-1.568.022-.064.046-.13.073-.194a2.61 2.61 0 00.073-.21c.088-.261.177-.518.27-.768l.251-.684c.129-.327.26-.633.398-.921zm7.099 1.736a50.009 50.009 0 01.475-1.064c.114-.252.24-.539.38-.86.044-.091.087-.181.127-.268l.112-.254a.09.09 0 01.01-.042.091.091 0 01.023-.027 76.723 76.723 0 011.27-2.79.765.765 0 01.25-.307.669.669 0 01.31-.118.048.048 0 01.036-.012l.035.004a.481.481 0 01.303.136.434.434 0 01.13.337.947.947 0 01-.006.065l-.004.063a4.062 4.062 0 01-.143.742c-.08.288-.174.585-.283.889-.071.194-.147.38-.228.558-.08.179-.16.349-.24.514a1.544 1.544 0 01-.076.158 3.11 3.11 0 00-.075.144l-.444.775-.313.546a.346.346 0 00-.025.054.273.273 0 01-.026.055c-.022.036-.04.071-.058.102a1.77 1.77 0 01-.058.102 6.296 6.296 0 01-.099.184 27.217 27.217 0 00-.828 1.679 10.774 10.774 0 00-.529 1.402.51.51 0 00-.013.092c-.006.075.01.132.05.168.04.035.115.03.223-.019.168-.091.339-.19.513-.295a8.94 8.94 0 00.518-.336 5.7 5.7 0 00.29-.184l.278-.185c.06-.033.102.001.127.102.026.102.033.228.021.379-.003.028-.004.059-.008.091-.003.033-.006.07-.007.107a1.257 1.257 0 01-.087.277.717.717 0 01-.153.23 3.419 3.419 0 01-.61.444 7.909 7.909 0 01-.644.327 5.783 5.783 0 01-.526.186c-.175.054-.341.102-.495.147a5.627 5.627 0 01-.224.033c-.072.007-.14.009-.207.005-.216-.016-.38-.089-.487-.216a.553.553 0 01-.146-.417c0-.027.004-.055.006-.077a.127.127 0 01.02-.063c.05-.186.113-.369.184-.548.07-.18.147-.37.23-.573v-.013c-.01-.001-.014-.006-.013-.015a6.08 6.08 0 01-.262.164c-.085.051-.167.1-.246.151l-.03.027a.14.14 0 01-.045.024.892.892 0 01-.114.084l-.143.097c-.029.016-.051-.013-.064-.084a1.62 1.62 0 01-.025-.236.185.185 0 00-.003-.057.381.381 0 01.002-.101l.001-.029c.01-.007.017-.016.017-.026l.003-.028a.336.336 0 01.012-.077.3.3 0 00.014-.078l.002-.035c.001-.014.001-.025.003-.035.016-.074.035-.149.06-.222a.334.334 0 01.128-.176l.272-.207.303-.232c.03-.026.06-.053.091-.078.03-.025.06-.053.091-.078.12-.094.236-.19.342-.286.107-.096.197-.184.27-.264.02-.016.043-.035.068-.058a.566.566 0 00.07-.072c.01 0 .018-.005.03-.012.01-.009.016-.019.016-.028.03-.027.055-.051.076-.073a.322.322 0 00.049-.06 8.75 8.75 0 01.146-.329z" fill="#8B3010"/><path d="M101.456 113.081l.028.003c.074.018.236-.036.488-.162.25-.126.519-.278.804-.456.081-.05.16-.097.237-.147.076-.048.151-.102.223-.161a.346.346 0 01.047-.031l.046-.03c.091-.067.154-.049.186.055.032.102.039.234.023.395l-.009.084a1.006 1.006 0 00-.008.07 2.804 2.804 0 01-.059.209 1.089 1.089 0 01-.067.164.793.793 0 01-.257.265c-.123.087-.263.17-.424.246-.083.05-.162.093-.243.132-.08.039-.165.078-.255.115a4.153 4.153 0 00-.262.122 27.83 27.83 0 01-.248.123 2.26 2.26 0 01-.402.149 1.7 1.7 0 01-.405.065 1.654 1.654 0 01-.271 0 1.068 1.068 0 01-.251-.056.591.591 0 01-.063-.013.246.246 0 01-.061-.029c-.065-.016-.111-.078-.137-.186a1.018 1.018 0 01-.019-.358l.003-.028.003-.027c.002-.01.002-.02.002-.029l.004-.028-.132.106a2.096 2.096 0 01-.674.357c-.207.069-.485.088-.834.061a.121.121 0 00-.027-.003 1.363 1.363 0 01-.85-.398c-.237-.229-.365-.559-.386-.99a5.073 5.073 0 01.017-.698c.026-.233.067-.427.126-.577a3.85 3.85 0 01.195-.429c.034-.054.069-.106.102-.16.034-.053.069-.111.105-.174.057-.099.147-.201.267-.306.121-.106.264-.213.428-.32.336-.211.737-.4 1.202-.57.464-.169.94-.262 1.426-.275a3.752 3.752 0 01.468.021l.05.004.05.006c.009 0 .024.002.042.005l.043.004.084.009c.029.004.057.007.086.009.038.003.072.011.105.018.032.009.066.013.105.019.159.016.305.04.435.067.129.029.207.059.233.09.007.02.015.063.021.13.007.068.012.139.013.215-.006.057-.01.114-.01.171a1.898 1.898 0 01-.015.204.142.142 0 00.007.066 2.454 2.454 0 01-.009.077c-.001.024-.004.044-.006.064a.536.536 0 01-.029.132c-.013.031-.042.04-.088.027a.376.376 0 01-.102-.046 2.16 2.16 0 00-.197-.101 1.55 1.55 0 00-.294-.123 1.993 1.993 0 00-.384-.076l-.027-.003-.023-.003-.021-.002a2.456 2.456 0 00-.499.003c-.184.02-.368.057-.554.113a3.8 3.8 0 00-1.17.539c-.369.252-.604.548-.708.888-.02.112-.042.214-.061.307-.02.093-.033.177-.04.253-.036.244-.023.417.037.517a.32.32 0 00.246.17.624.624 0 00.121-.002 1.95 1.95 0 00.123-.016c.05-.013.098-.03.147-.048a.706.706 0 00.136-.065c.03-.015.06-.032.09-.046l.09-.048a3.23 3.23 0 00.517-.366c.162-.14.325-.3.486-.483.121-.14.244-.292.371-.459.126-.168.262-.352.408-.556a.06.06 0 01.027.01.117.117 0 01.027.024l.13.05a.668.668 0 00.16.039c.018.01.041.018.069.021l.071.007c.028.003.058.006.091.011.033.003.069.005.107.01.103.01.199.021.289.032l.217.022c-.269.466-.513.87-.735 1.212-.222.343-.345.581-.367.711a.243.243 0 00-.005.035.057.057 0 00.01.037l.014.014z" fill="#8B3010"/><path d="M108.492 112.878c.018.118.017.246-.003.386l-.005.028-.004.028c-.01.084-.024.161-.039.232a.422.422 0 01-.057.156.73.73 0 01-.107.157 1.4 1.4 0 01-.388.261c-.18.088-.433.217-.761.38a3.767 3.767 0 01-.974.301 3.713 3.713 0 01-1.686-.077 6.05 6.05 0 01-.471-.158c-.045-.026-.099-.061-.165-.102a1.23 1.23 0 01-.211-.18 1.628 1.628 0 01-.223-.36 1.249 1.249 0 01-.097-.53c.001-.018.003-.041.001-.064a.457.457 0 01.006-.092 3.227 3.227 0 01.042-.51 5.08 5.08 0 01.084-.447c.036-.158.084-.312.144-.467.054-.182.134-.358.237-.524.104-.166.232-.317.385-.449.042-.031.085-.066.129-.103.042-.037.091-.076.144-.116.213-.151.456-.294.733-.427.276-.134.59-.228.942-.285.184-.021.372-.037.565-.042.191-.008.38.002.568.028.236.024.453.086.654.184.201.099.366.24.494.42a.437.437 0 01.045.143.752.752 0 01-.006.192 1.293 1.293 0 01-.051.215c-.026.078-.052.157-.084.238a2.29 2.29 0 01-.256.509c-.05.079-.095.147-.137.203a.332.332 0 01-.108.107l-.969-.135c-.13-.018-.202-.038-.213-.059-.012-.021.022-.083.105-.186a.136.136 0 01.042-.044.193.193 0 00.041-.044.996.996 0 00.201-.516.126.126 0 00.003-.021c.002-.005.002-.012.003-.021.017-.113.001-.197-.043-.251a.322.322 0 00-.209-.101.853.853 0 00-.229.005 1.568 1.568 0 00-.28.067 1.85 1.85 0 00-.726.38 2.647 2.647 0 00-.509.565 2.197 2.197 0 00-.226.441 1.95 1.95 0 00-.106.401c-.053.375-.038.646.043.815.082.169.186.281.312.337a.91.91 0 00.207.058l.076.011a.148.148 0 00.067-.006l.063.009c.013.001.025.004.035.004.149.021.31.018.481-.01a3.36 3.36 0 00.528-.135c.17-.052.343-.121.522-.206.178-.085.351-.169.514-.25l.42-.243c.135-.076.26-.146.373-.205.071-.046.117-.012.134.105z" fill="#8B3010"/><path d="M113.354 113.742c.01.106.004.226-.017.356-.003.019-.008.039-.01.063l-.014.077a1.66 1.66 0 01-.106.291.48.48 0 01-.132.186 3.617 3.617 0 01-.298.188c-.112.063-.23.126-.356.191-.356.17-.77.308-1.242.416-.474.106-.95.124-1.427.054a2.734 2.734 0 01-.468-.123 4.3 4.3 0 01-.457-.192c-.393-.229-.603-.504-.63-.825a5.281 5.281 0 01.063-1.183.555.555 0 01.006-.121l.022-.132c.076-.496.325-.947.748-1.349.421-.403 1.013-.703 1.777-.901.249-.063.49-.102.723-.116.232-.012.447-.003.644.03.372.063.66.206.862.426.203.222.273.514.212.877-.009.056-.02.113-.028.168a.651.651 0 01-.059.178 1.55 1.55 0 01-.612.766c-.299.204-.61.369-.939.496a5.89 5.89 0 01-.38.116c-.12.033-.236.058-.343.077-.24.056-.442.083-.603.078a8.3 8.3 0 01-.401-.016 3.76 3.76 0 00-.18-.002.302.302 0 00-.141.033c-.052.019-.076.054-.075.102.001.05.025.105.072.172a1.115 1.115 0 00.73.439l.05.009c.013.001.025 0 .038-.009l.047.009c.016.001.026.004.036.006.113.009.333-.021.662-.089a6.92 6.92 0 001.062-.325c.185-.073.369-.157.553-.252.184-.093.357-.198.521-.314.049-.011.079.037.09.145zm-2.426-1.014c.41-.123.698-.276.863-.459a.749.749 0 00.085-.121.415.415 0 00.041-.116.42.42 0 00-.005-.145.289.289 0 00-.076-.141.389.389 0 00-.111-.107.478.478 0 00-.15-.054.849.849 0 00-.31.014 2.11 2.11 0 00-.358.105c-.228.105-.456.25-.684.437a2.366 2.366 0 00-.541.607.463.463 0 00-.034.073.89.89 0 01-.034.073c.467.012.906-.043 1.314-.166zm14.516-1.513l.026 1.989 1.934.471-1.884.636.153 1.986-1.191-1.593-1.839.756 1.147-1.623-1.288-1.515 1.898.591 1.044-1.698zm10.599 2.887l-.18 1.983 1.873.668-1.939.439-.054 1.986-1.017-1.707-1.908.564 1.311-1.497-1.128-1.641 1.83.783 1.212-1.578zm8.987 3.671l-.124 1.986 1.892.613-1.924.498.001 1.986-1.067-1.678-1.888.615 1.265-1.533-1.173-1.608 1.85.733 1.168-1.612zm-98.062-6.558l-.026 1.989-1.93.471 1.88.636-.151 1.986 1.19-1.593 1.839.756-1.148-1.623 1.288-1.515-1.899.591-1.044-1.698zm-10.598 2.887l.18 1.983-1.874.668 1.94.439.053 1.986 1.017-1.707 1.91.564-1.31-1.497 1.126-1.641-1.83.783-1.212-1.578zm-8.988 3.671l.121 1.986-1.89.613 1.927.498-.003 1.986 1.066-1.678 1.89.615-1.264-1.533 1.171-1.608-1.85.733-1.168-1.612z" fill="#8B3010"/><path d="M158.999 77.523l-8.703 10.906 4.927 13.057-11.655 7.668.63 13.941-13.459 3.693-3.69 13.459-13.942-.632-7.671 11.658-13.054-4.927-10.906 8.7-10.906-8.7-13.054 4.927-7.67-11.658-13.943.626-3.69-13.453-13.458-3.693.63-13.941-11.656-7.668 4.928-13.057-8.704-10.906 8.704-10.906L7.729 53.56l11.656-7.668-.63-13.942 13.459-3.692 3.69-13.456 13.941.63 7.671-11.66L70.57 8.703 81.476 0l10.906 8.703 13.054-4.93 7.671 11.659 13.942-.63 3.69 13.456 13.459 3.695-.63 13.94 11.655 7.667-4.927 13.057 8.703 10.906z" fill="url(#paint34_linear_224_13033)"/><path d="M158.031 89.74l-10.313 9.395 2.808 13.672-12.719 5.738-1.576 13.868-13.871 1.521-5.769 12.706-13.666-2.816-9.41 10.306-12.116-6.927-12.14 6.875-9.399-10.316-13.668 2.814-5.74-12.722-13.864-1.576-1.524-13.874-12.706-5.763 2.817-13.669L4.871 89.56l6.925-12.113L4.92 65.305l10.314-9.398-2.809-13.671 12.72-5.739 1.573-13.862 13.874-1.524 5.769-12.71 13.665 2.82L69.436.919l12.116 6.928L93.694.968l9.398 10.313 13.668-2.808 5.738 12.718 13.865 1.576 1.524 13.875 12.709 5.762-2.819 13.668 10.304 9.411-6.922 12.116 6.872 12.142z" fill="url(#paint35_linear_224_13033)"/><path d="M152.262 175.474l-32.58-11.665-15.02 31.177L62.908 93.125l47.594-19.512 41.76 101.861z" fill="url(#paint36_linear_224_13033)"/><mask id="i" style="mask-type:alpha" maskUnits="userSpaceOnUse" x="65" y="90" width="44" height="103"><path d="M105.985 192.187l2.704-5.614L69.303 90.5l-4.285 1.758 40.967 99.929z" fill="url(#paint37_linear_224_13033)"/></mask><g mask="url(#i)"><path d="M105.987 192.19l2.704-5.613-39.386-96.073-4.286 1.757 40.968 99.929z" fill="url(#paint38_linear_224_13033)"/></g><mask id="j" style="mask-type:alpha" maskUnits="userSpaceOnUse" x="104" y="74" width="46" height="101"><path d="M149.284 174.443l-5.862-2.098-39.385-96.076 4.282-1.757 40.965 99.931z" fill="url(#paint39_linear_224_13033)"/></mask><g mask="url(#j)"><path d="M149.282 174.443l-5.862-2.098-39.385-96.076 4.282-1.757 40.965 99.931z" fill="url(#paint40_linear_224_13033)"/></g><path d="M10.693 175.474l32.577-11.665 15.02 31.177 41.754-101.861L52.45 73.613 10.693 175.474z" fill="url(#paint41_linear_224_13033)"/><mask id="k" style="mask-type:alpha" maskUnits="userSpaceOnUse" x="54" y="90" width="44" height="103"><path d="M56.966 192.187l-2.706-5.614L93.646 90.5l4.285 1.758-40.965 99.929z" fill="url(#paint42_linear_224_13033)"/></mask><g mask="url(#k)"><path d="M56.968 192.19l-2.706-5.613 39.386-96.073 4.285 1.757-40.965 99.929z" fill="url(#paint43_linear_224_13033)"/></g><mask id="l" style="mask-type:alpha" maskUnits="userSpaceOnUse" x="13" y="74" width="46" height="101"><path d="M13.666 174.443l5.868-2.098 39.385-96.076-4.286-1.757-40.967 99.931z" fill="url(#paint44_linear_224_13033)"/></mask><g mask="url(#l)"><path d="M13.666 174.443l5.868-2.098 39.385-96.076-4.286-1.757-40.967 99.931z" fill="url(#paint45_linear_224_13033)"/></g><path d="M81.476 142.445c35.855 0 64.921-29.065 64.921-64.92 0-35.854-29.066-64.92-64.921-64.92-35.855 0-64.921 29.066-64.921 64.92 0 35.855 29.066 64.92 64.92 64.92z" fill="#fff"/><path d="M81.477 140.647c-34.808 0-63.122-28.319-63.122-63.124 0-34.804 28.313-63.12 63.121-63.12 34.808 0 63.122 28.316 63.122 63.12 0 34.805-28.313 63.124-63.122 63.124zm0-124.608c-33.902 0-61.484 27.582-61.484 61.484 0 33.901 27.582 61.483 61.484 61.483 33.901 0 61.483-27.582 61.483-61.483 0-33.901-27.582-61.484-61.484-61.484z" fill="url(#paint46_linear_224_13033)"/><path d="M81.476 17.953c-32.9 0-59.57 26.67-59.57 59.57s26.67 59.573 59.57 59.573 59.569-26.673 59.569-59.573c.001-32.9-26.668-59.57-59.569-59.57zm0 100.817c-22.78 0-41.247-18.467-41.247-41.247s18.467-41.247 41.247-41.247c22.781 0 41.247 18.467 41.247 41.247s-18.466 41.247-41.247 41.247z" fill="url(#paint47_linear_224_13033)"/><path d="M38.13 43.399l2.895-3.403 1.547 1.316-1.185 1.393 1.465 1.246 1.055-1.241 1.47 1.25-1.056 1.241 3.246 2.761-1.71 2.01-7.726-6.573zm7.922-8.122l6.697 7.617-1.981 1.742-6.698-7.617 1.982-1.742zm3.898-3.058l1.586-.983c1.058-.656 1.799-1.06 2.224-1.21.426-.151.86-.13 1.304.058.444.19.894.651 1.35 1.386.415.67.612 1.173.587 1.508-.023.333-.266.676-.726 1.026.511-.166.9-.203 1.167-.113.268.09.467.2.6.333.135.13.416.544.847 1.24l1.41 2.273-2.083 1.292-1.775-2.865c-.286-.462-.5-.725-.64-.79-.142-.066-.367-.001-.675.19l2.41 3.887-2.243 1.389-5.344-8.621zm3.156.086l1.187 1.917c.252-.157.407-.302.465-.433.058-.133-.029-.387-.266-.768l-.293-.473c-.169-.274-.329-.423-.48-.447-.15-.025-.355.042-.613.204zm12.705-4.495l-2.293.86-.264-.705c-.123-.328-.231-.526-.324-.595-.092-.068-.206-.075-.345-.025a.4.4 0 00-.268.309c-.031.15 0 .347.094.595.118.316.25.539.396.667.142.13.447.237.916.32 1.344.24 2.237.517 2.68.826.442.313.838.933 1.186 1.864.254.677.363 1.206.324 1.585-.038.381-.244.764-.615 1.15-.372.387-.86.695-1.463.92-.66.249-1.271.334-1.832.26-.563-.075-.989-.28-1.277-.613-.29-.333-.568-.855-.835-1.566l-.234-.623 2.295-.86.433 1.157c.133.355.25.572.354.65.103.077.237.086.401.023.164-.062.263-.17.293-.33.032-.16 0-.366-.095-.621-.208-.56-.422-.896-.639-1.011-.22-.114-.714-.256-1.479-.428-.767-.177-1.284-.32-1.553-.43-.27-.109-.529-.301-.782-.577-.252-.275-.473-.665-.663-1.169-.273-.728-.38-1.295-.319-1.7.06-.406.26-.782.604-1.128.343-.344.81-.627 1.396-.846.64-.241 1.226-.342 1.756-.304.53.038.926.187 1.19.447.266.26.54.766.822 1.52l.14.378zm9.01-5.064l.348 1.998-1.544.27 1.39 7.993-2.599.451-1.389-7.994-1.537.268-.347-2 5.678-.986zm10.129-.286l2.64.294c.713.08 1.257.197 1.629.352.37.153.641.349.81.58.17.234.273.504.308.813.034.309.017.779-.053 1.41l-.098.877c-.071.644-.19 1.106-.356 1.386-.165.28-.435.48-.806.598-.374.118-.846.146-1.418.081l-.703-.078-.452 4.06-2.62-.29L84.95 22.46zm2.43 2.017l-.286 2.567c.073.012.138.021.192.027.24.026.414-.013.52-.123.108-.108.182-.348.223-.722l.092-.828c.038-.344.009-.575-.088-.692-.095-.114-.314-.19-.654-.23zm10.379.383l-2.289 7.784 1.54.453-.574 1.948-4.069-1.196 2.862-9.732 2.53.744zm10.174 4.271l-3.221 9.735-2.407-1.214.695-1.691-.842-.425-.964 1.556-2.434-1.227 5.77-8.45 3.403 1.716zm-4.185 5.194c.399-1.086.919-2.415 1.56-3.985-1.114 1.613-1.904 2.805-2.37 3.575l.81.41zm11.413 5.173l-2.079-1.622 1.085-1.39c.316-.405.491-.673.525-.809.034-.135-.026-.26-.177-.38-.172-.133-.328-.158-.468-.071-.142.086-.371.33-.687.735l-2.9 3.713c-.303.39-.478.661-.524.816-.048.154.011.294.172.42.154.12.303.141.443.06.139-.082.382-.343.724-.78l.785-1.007 2.079 1.624-.243.312c-.646.828-1.163 1.369-1.55 1.623-.387.255-.883.357-1.487.304-.602-.052-1.198-.306-1.783-.764-.608-.476-1.024-.978-1.247-1.507-.223-.53-.246-1.04-.07-1.53.177-.49.571-1.127 1.182-1.91l1.824-2.336c.45-.575.808-.992 1.072-1.25a2.307 2.307 0 011.003-.556c.404-.114.839-.112 1.306.006.467.119.926.354 1.376.707.613.478 1.026.99 1.24 1.538.213.548.244 1.047.094 1.499-.151.451-.518 1.05-1.102 1.796l-.593.76zm6.287.006l2.909 3.298-1.522 1.342-1.164-1.32-1.443 1.273 1.089 1.235-1.446 1.276-1.091-1.234-1.671 1.474 1.279 1.453-1.522 1.343-3.024-3.43 7.606-6.71zm-75.287 69.531l3.063 3.252-1.478 1.391-1.253-1.332-1.401 1.32 1.118 1.186-1.405 1.323-1.117-1.186-3.1 2.922-1.809-1.92 7.382-6.956zm7.138 6.67l-6.362 7.9-2.054-1.654 6.363-7.9 2.053 1.654zm2.449 1.83l1.618.931c1.08.621 1.786 1.083 2.12 1.386.335.302.523.694.566 1.175.045.481-.15 1.095-.579 1.844-.394.686-.743 1.096-1.05 1.234-.305.137-.721.086-1.248-.154.389.372.606.698.655.975.045.277.044.506-.008.685-.054.18-.285.624-.692 1.333l-1.333 2.319-2.124-1.22 1.68-2.922c.27-.472.401-.784.392-.939-.01-.155-.172-.323-.487-.503l-2.28 3.964-2.287-1.314 5.057-8.794zm1.422 2.82l-1.125 1.955c.256.148.458.216.602.205.143-.011.326-.211.549-.598l.278-.484c.16-.28.216-.49.167-.634-.05-.144-.207-.291-.471-.444zm10.585 6.044l-2.314-.806.248-.709c.116-.332.16-.554.132-.666-.028-.11-.11-.19-.247-.238a.4.4 0 00-.404.065c-.12.095-.223.267-.31.516-.11.319-.153.576-.122.768.026.19.192.467.5.831.878 1.045 1.388 1.828 1.53 2.35.14.523.047 1.253-.28 2.191-.238.684-.494 1.158-.766 1.426-.272.267-.677.432-1.21.49-.534.06-1.104-.017-1.712-.228-.667-.234-1.191-.558-1.575-.974-.382-.418-.579-.846-.59-1.287-.009-.442.11-1.021.36-1.739l.22-.627 2.314.807-.407 1.164c-.126.36-.173.602-.144.727.03.126.127.216.293.275a.433.433 0 00.438-.066c.126-.103.233-.281.323-.537.197-.564.248-.96.155-1.187-.097-.228-.384-.653-.862-1.275-.476-.627-.782-1.068-.918-1.323-.137-.256-.214-.57-.233-.943-.018-.374.062-.816.24-1.324.255-.732.537-1.237.842-1.512.306-.273.7-.433 1.186-.477.484-.046 1.023.034 1.614.241.647.224 1.162.523 1.544.89.383.368.593.737.63 1.106.037.368-.077.934-.342 1.694l-.133.377zm9.17-1.367l-.32 2.004-1.544-.247-1.277 8.012-2.605-.414 1.276-8.013-1.54-.244.319-2.005 5.691.907zm7.02.147l2.641-.29c.714-.077 1.269-.081 1.665-.012.397.071.703.201.919.391.216.19.376.433.477.727.102.293.186.755.255 1.387l.097.877c.07.644.055 1.12-.046 1.43-.1.309-.32.562-.658.759-.336.197-.792.325-1.365.388l-.704.077.444 4.061-2.62.287-1.105-10.082zm2.812 1.438l.281 2.565c.076-.003.14-.009.194-.013.24-.028.4-.105.48-.234.082-.128.102-.379.06-.752l-.09-.829c-.039-.345-.117-.563-.235-.656-.12-.092-.35-.118-.69-.081zm8.046-3.375l2.192 7.811 1.543-.433.549 1.954-4.083 1.146-2.74-9.765 2.539-.713zm8.396-3.394l5.737 8.499-2.433 1.163-.913-1.584-.851.407.641 1.714-2.459 1.176-3.161-9.731 3.439-1.644zm1.552 6.486a122.79 122.79 0 01-2.2-3.671c.596 1.868 1.055 3.223 1.381 4.063l.819-.392zm9.409-8.465l-2.128 1.561-1.043-1.421c-.302-.413-.514-.654-.636-.725-.12-.068-.258-.046-.413.067-.175.129-.239.272-.197.432.044.16.22.446.522.86l2.788 3.797c.292.398.506.641.642.727.137.086.287.069.452-.052.158-.116.216-.252.176-.41-.04-.157-.225-.462-.554-.91l-.754-1.027 2.126-1.561.233.319c.622.847 1.003 1.491 1.143 1.932.14.442.104.946-.111 1.513-.213.566-.619 1.07-1.218 1.509-.624.458-1.219.722-1.79.793-.569.071-1.065-.044-1.489-.347-.424-.303-.931-.856-1.519-1.656l-1.753-2.39c-.433-.589-.737-1.046-.912-1.37a2.292 2.292 0 01-.264-1.116c0-.419.12-.839.361-1.257.24-.416.592-.794 1.053-1.133.627-.459 1.232-.717 1.817-.774.585-.057 1.073.047 1.467.315.393.268.871.783 1.43 1.547l.571.777zm-.521-5.511l3.044-3.174 1.464 1.405-1.219 1.271 1.389 1.331 1.14-1.189 1.393 1.337-1.141 1.189 1.609 1.543 1.341-1.397 1.464 1.405-3.166 3.301-7.318-7.022z" fill="#3C2415"/><path opacity=".5" d="M90.525 95.535V45.756l-1.127-1.026-10.962 1.026-.129.271c-1.416 3.01-3.407 5.576-5.91 7.625-2.514 2.055-6.111 3.846-10.689 5.321l-.328.101-1.128 11.177 1.128 1.023.614-.187c3.164-.962 5.84-1.99 7.948-3.048 1.867-.94 3.818-2.153 5.803-3.61v31.106H62.74l-1.124 13.754 1.124 1.026h39.953v-14.78l-1.124-1.026-11.044 1.026z" fill="#BCBEC0"/><path d="M88.921 94.982V45.207H77.612c-1.456 3.087-3.471 5.687-6.043 7.791-2.571 2.098-6.187 3.902-10.839 5.4v11.208c3.153-.955 5.776-1.966 7.869-3.017 2.092-1.054 4.258-2.43 6.494-4.129v32.522H62.091v13.828h39.002V94.982H88.921z" fill="url(#paint48_linear_224_13033)"/><path d="M101.57 109.289H61.616v-14.78h13.001v-31.1c-1.981 1.454-3.932 2.664-5.803 3.604-2.108 1.06-4.78 2.086-7.944 3.05l-.618.188v-12.2l.331-.104c4.578-1.471 8.169-3.265 10.688-5.324 2.504-2.046 4.492-4.605 5.908-7.619l.13-.273h12.088v49.778h12.172v14.78h.001zm-39.005-.949h38.052V95.458H88.449V45.679H77.91c-1.468 3.023-3.5 5.604-6.04 7.684-2.546 2.076-6.131 3.889-10.666 5.38V68.96c2.845-.888 5.26-1.83 7.182-2.8 2.059-1.032 4.219-2.408 6.421-4.082l.762-.581v33.96H62.565v12.883z" fill="url(#paint49_linear_224_13033)"/><defs><linearGradient id="paint0_linear_224_13033" x1="171.749" y1="135.072" x2="141.432" y2="104.472" gradientUnits="userSpaceOnUse"><stop stop-color="#FFF799"/><stop offset=".104" stop-color="#FFD773"/><stop offset=".218" stop-color="#FDBB4E"/><stop offset=".279" stop-color="#FBB040"/><stop offset="1" stop-color="#C55C18"/></linearGradient><linearGradient id="paint1_linear_224_13033" x1="149.022" y1="125.201" x2="140.946" y2="99.987" gradientUnits="userSpaceOnUse"><stop stop-color="#C55C18"/><stop offset=".721" stop-color="#FBB040"/><stop offset=".782" stop-color="#FDBB4E"/><stop offset=".896" stop-color="#FFD773"/><stop offset="1" stop-color="#FFF799"/></linearGradient><linearGradient id="paint2_linear_224_13033" x1="29.23" y1="102.922" x2="5.431" y2="131.539" gradientUnits="userSpaceOnUse"><stop stop-color="#C55C18"/><stop offset=".721" stop-color="#FBB040"/><stop offset=".782" stop-color="#FDBB4E"/><stop offset=".896" stop-color="#FFD773"/><stop offset="1" stop-color="#FFF799"/></linearGradient><linearGradient id="paint3_linear_224_13033" x1="22.684" y1="126.478" x2="31.154" y2="99.492" gradientUnits="userSpaceOnUse"><stop stop-color="#C55C18"/><stop offset=".721" stop-color="#FBB040"/><stop offset=".782" stop-color="#FDBB4E"/><stop offset=".896" stop-color="#FFD773"/><stop offset="1" stop-color="#FFF799"/></linearGradient><linearGradient id="paint4_linear_224_13033" x1="81.544" y1="166.99" x2="81.544" y2="142.221" gradientUnits="userSpaceOnUse"><stop stop-color="#3E0500"/><stop offset="1" stop-color="#72281A"/></linearGradient><linearGradient id="paint5_linear_224_13033" x1="81.544" y1="130.925" x2="81.544" y2="125.312" gradientUnits="userSpaceOnUse"><stop stop-color="#3E0500"/><stop offset="1" stop-color="#72281A"/></linearGradient><linearGradient id="paint6_linear_224_13033" x1="81.544" y1="173.062" x2="81.544" y2="169.924" gradientUnits="userSpaceOnUse"><stop stop-color="#3E0500"/><stop offset="1" stop-color="#72281A"/></linearGradient><linearGradient id="paint7_linear_224_13033" x1="63.644" y1="139.39" x2="100.721" y2="160.9" gradientUnits="userSpaceOnUse"><stop stop-color="#C55C18"/><stop offset=".539" stop-color="#FBB040"/><stop offset="1" stop-color="#FFF799"/></linearGradient><linearGradient id="paint8_linear_224_13033" x1="86" y1="146.044" x2="64.914" y2="163.663" gradientUnits="userSpaceOnUse"><stop stop-color="#fff"/><stop offset=".147" stop-color="#C4C4C4"/><stop offset=".636"/></linearGradient><linearGradient id="paint9_linear_224_13033" x1="86.002" y1="146.044" x2="64.916" y2="163.663" gradientUnits="userSpaceOnUse"><stop stop-color="#fff"/><stop offset=".636" stop-color="#fff"/></linearGradient><linearGradient id="paint13_linear_224_13033" x1="111.687" y1="34.268" x2="134.942" y2="49.251" gradientUnits="userSpaceOnUse"><stop stop-color="#fff"/><stop offset=".056" stop-color="#DDD"/><stop offset=".193" stop-color="#909090"/><stop offset=".316" stop-color="#525252"/><stop offset=".419" stop-color="#262626"/><stop offset=".499" stop-color="#0A0A0A"/><stop offset=".545"/></linearGradient><linearGradient id="paint14_linear_224_13033" x1="103.848" y1="12.055" x2="138.189" y2="12.085" gradientUnits="userSpaceOnUse"><stop stop-color="#FF7A00"/><stop offset=".063" stop-color="#FBB508"/><stop offset="1" stop-color="#F1592A"/></linearGradient><linearGradient id="paint18_linear_224_13033" x1="51.401" y1="34.267" x2="28.146" y2="49.251" gradientUnits="userSpaceOnUse"><stop stop-color="#fff"/><stop offset=".056" stop-color="#DDD"/><stop offset=".193" stop-color="#909090"/><stop offset=".316" stop-color="#525252"/><stop offset=".419" stop-color="#262626"/><stop offset=".499" stop-color="#0A0A0A"/><stop offset=".545"/></linearGradient><linearGradient id="paint19_linear_224_13033" x1="24.945" y1="12.055" x2="59.288" y2="12.085" gradientUnits="userSpaceOnUse"><stop stop-color="#FF7A00"/><stop offset=".063" stop-color="#FBB508"/><stop offset="1" stop-color="#F1592A"/></linearGradient><linearGradient id="paint20_linear_224_13033" x1="70.495" y1="124.087" x2="92.414" y2="118.65" gradientUnits="userSpaceOnUse"><stop stop-color="#C55C18"/><stop offset=".364" stop-color="#FBB040"/><stop offset=".739" stop-color="#FFF799"/><stop offset=".994" stop-color="#FBB040"/></linearGradient><linearGradient id="paint23_linear_224_13033" x1="98.76" y1="104.859" x2="66.554" y2="96.778" gradientUnits="userSpaceOnUse"><stop stop-color="#fff"/><stop offset=".147" stop-color="#C4C4C4"/><stop offset=".636"/></linearGradient><linearGradient id="paint24_linear_224_13033" x1="75.49" y1="83.813" x2="85.895" y2="83.817" gradientUnits="userSpaceOnUse"><stop stop-color="#FF7A00"/><stop offset=".063" stop-color="#FBB508"/><stop offset="1" stop-color="#F1592A"/></linearGradient><linearGradient id="paint25_linear_224_13033" x1="100.948" y1="49.236" x2="51.311" y2="12.528" gradientUnits="userSpaceOnUse"><stop stop-color="#fff"/><stop offset=".056" stop-color="#DDD"/><stop offset=".193" stop-color="#909090"/><stop offset=".316" stop-color="#525252"/><stop offset=".419" stop-color="#262626"/><stop offset=".499" stop-color="#0A0A0A"/><stop offset=".545"/></linearGradient><linearGradient id="paint26_linear_224_13033" x1="100.946" y1="49.236" x2="51.309" y2="12.528" gradientUnits="userSpaceOnUse"><stop stop-color="#F5A73C"/><stop offset=".545" stop-color="#DE842B"/></linearGradient><linearGradient id="paint27_linear_224_13033" x1="103.076" y1="87.653" x2="70.874" y2="79.574" gradientUnits="userSpaceOnUse"><stop stop-color="#fff"/><stop offset=".147" stop-color="#C4C4C4"/><stop offset=".636"/></linearGradient><linearGradient id="paint28_linear_224_13033" x1="73.824" y1="80.258" x2="88.199" y2="80.327" gradientUnits="userSpaceOnUse"><stop stop-color="#FF7A00"/><stop offset=".063" stop-color="#FBB508"/><stop offset="1" stop-color="#F1592A"/></linearGradient><linearGradient id="paint29_linear_224_13033" x1="94.317" y1="122.589" x2="62.107" y2="114.508" gradientUnits="userSpaceOnUse"><stop stop-color="#fff"/><stop offset=".147" stop-color="#C4C4C4"/><stop offset=".636"/></linearGradient><linearGradient id="paint30_linear_224_13033" x1="73.074" y1="114.949" x2="88.103" y2="114.988" gradientUnits="userSpaceOnUse"><stop stop-color="#FF7A00"/><stop offset=".063" stop-color="#FBB508"/><stop offset="1" stop-color="#F1592A"/></linearGradient><linearGradient id="paint31_linear_224_13033" x1="92.095" y1="127.978" x2="74.029" y2="120.95" gradientUnits="userSpaceOnUse"><stop stop-color="#fff"/><stop offset=".147" stop-color="#C4C4C4"/><stop offset=".636"/></linearGradient><linearGradient id="paint32_linear_224_13033" x1="63.897" y1="120.867" x2="97.731" y2="121.038" gradientUnits="userSpaceOnUse"><stop stop-color="#FF7A00"/><stop offset=".063" stop-color="#FBB508"/><stop offset="1" stop-color="#F1592A"/></linearGradient><linearGradient id="paint33_linear_224_13033" x1="86" y1="127.391" x2="86" y2="101.839" gradientUnits="userSpaceOnUse"><stop stop-color="#C55C18"/><stop offset=".491" stop-color="#FBB040"/><stop offset="1" stop-color="#FFF799"/></linearGradient><linearGradient id="paint34_linear_224_13033" x1="145.597" y1="126.757" x2="19.135" y2="29.652" gradientUnits="userSpaceOnUse"><stop stop-color="#C55C18"/><stop offset=".182" stop-color="#FBB040"/><stop offset=".382" stop-color="#892E01"/><stop offset=".606" stop-color="#FFF8A3"/><stop offset=".788" stop-color="#FBB040"/><stop offset="1" stop-color="#C35019"/></linearGradient><linearGradient id="paint35_linear_224_13033" x1="4.871" y1="77.524" x2="158.081" y2="77.524" gradientUnits="userSpaceOnUse"><stop stop-color="#C55C18"/><stop offset=".182" stop-color="#FBB040"/><stop offset=".382" stop-color="#892E01"/><stop offset=".606" stop-color="#FFF8A3"/><stop offset=".788" stop-color="#FBB040"/><stop offset="1" stop-color="#C35019"/></linearGradient><linearGradient id="paint36_linear_224_13033" x1="131.068" y1="182.777" x2="101.71" y2="122.179" gradientUnits="userSpaceOnUse"><stop stop-color="#FFF8A3"/><stop offset=".309" stop-color="#FBB040"/><stop offset=".667" stop-color="#C55C18"/><stop offset="1" stop-color="#892E01"/></linearGradient><linearGradient id="paint37_linear_224_13033" x1="80.537" y1="126.202" x2="106.507" y2="181.529" gradientUnits="userSpaceOnUse"><stop offset=".236" stop-color="#fff"/><stop offset=".268" stop-color="#E8E8E8"/><stop offset=".35" stop-color="#B2B2B2"/><stop offset=".434" stop-color="#828282"/><stop offset=".52" stop-color="#5A5A5A"/><stop offset=".608" stop-color="#3A3A3A"/><stop offset=".697" stop-color="#202020"/><stop offset=".79" stop-color="#0E0E0E"/><stop offset=".888" stop-color="#030303"/><stop offset="1"/></linearGradient><linearGradient id="paint38_linear_224_13033" x1="80.539" y1="126.206" x2="106.509" y2="181.533" gradientUnits="userSpaceOnUse"><stop offset=".236" stop-color="#AE6049"/><stop offset=".286" stop-color="#B8715A"/><stop offset=".393" stop-color="#CD9581"/><stop offset=".503" stop-color="#DEB7A7"/><stop offset=".617" stop-color="#EBD3C7"/><stop offset=".735" stop-color="#F5E8E1"/><stop offset=".859" stop-color="#FCF7F5"/><stop offset="1" stop-color="#fff"/></linearGradient><linearGradient id="paint39_linear_224_13033" x1="118.756" y1="108.27" x2="144.725" y2="163.596" gradientUnits="userSpaceOnUse"><stop offset=".236" stop-color="#fff"/><stop offset=".268" stop-color="#E8E8E8"/><stop offset=".35" stop-color="#B2B2B2"/><stop offset=".434" stop-color="#828282"/><stop offset=".52" stop-color="#5A5A5A"/><stop offset=".608" stop-color="#3A3A3A"/><stop offset=".697" stop-color="#202020"/><stop offset=".79" stop-color="#0E0E0E"/><stop offset=".888" stop-color="#030303"/><stop offset="1"/></linearGradient><linearGradient id="paint40_linear_224_13033" x1="118.754" y1="108.27" x2="144.723" y2="163.596" gradientUnits="userSpaceOnUse"><stop offset=".236" stop-color="#AE6049"/><stop offset=".286" stop-color="#B8715A"/><stop offset=".393" stop-color="#CD9581"/><stop offset=".503" stop-color="#DEB7A7"/><stop offset=".617" stop-color="#EBD3C7"/><stop offset=".735" stop-color="#F5E8E1"/><stop offset=".859" stop-color="#FCF7F5"/><stop offset="1" stop-color="#fff"/></linearGradient><linearGradient id="paint41_linear_224_13033" x1="34.233" y1="185.439" x2="57.568" y2="128.982" gradientUnits="userSpaceOnUse"><stop stop-color="#FFF8A3"/><stop offset=".309" stop-color="#FBB040"/><stop offset=".667" stop-color="#C55C18"/><stop offset="1" stop-color="#892E01"/></linearGradient><linearGradient id="paint42_linear_224_13033" x1="54.26" y1="141.343" x2="97.931" y2="141.343" gradientUnits="userSpaceOnUse"><stop/><stop offset=".112" stop-color="#030303"/><stop offset=".21" stop-color="#0E0E0E"/><stop offset=".303" stop-color="#202020"/><stop offset=".392" stop-color="#3A3A3A"/><stop offset=".48" stop-color="#5A5A5A"/><stop offset=".566" stop-color="#828282"/><stop offset=".65" stop-color="#B2B2B2"/><stop offset=".732" stop-color="#E8E8E8"/><stop offset=".764" stop-color="#fff"/></linearGradient><linearGradient id="paint43_linear_224_13033" x1="54.262" y1="141.347" x2="97.933" y2="141.347" gradientUnits="userSpaceOnUse"><stop stop-color="#fff"/><stop offset=".141" stop-color="#FCF7F5"/><stop offset=".266" stop-color="#F5E8E1"/><stop offset=".383" stop-color="#EBD3C7"/><stop offset=".497" stop-color="#DEB7A7"/><stop offset=".607" stop-color="#CD9581"/><stop offset=".714" stop-color="#B8715A"/><stop offset=".764" stop-color="#AE6049"/></linearGradient><linearGradient id="paint44_linear_224_13033" x1="13.666" y1="124.477" x2="58.919" y2="124.477" gradientUnits="userSpaceOnUse"><stop/><stop offset=".112" stop-color="#030303"/><stop offset=".21" stop-color="#0E0E0E"/><stop offset=".303" stop-color="#202020"/><stop offset=".392" stop-color="#3A3A3A"/><stop offset=".48" stop-color="#5A5A5A"/><stop offset=".566" stop-color="#828282"/><stop offset=".65" stop-color="#B2B2B2"/><stop offset=".732" stop-color="#E8E8E8"/><stop offset=".764" stop-color="#fff"/></linearGradient><linearGradient id="paint45_linear_224_13033" x1="13.666" y1="124.477" x2="58.919" y2="124.477" gradientUnits="userSpaceOnUse"><stop stop-color="#fff"/><stop offset=".141" stop-color="#FCF7F5"/><stop offset=".266" stop-color="#F5E8E1"/><stop offset=".383" stop-color="#EBD3C7"/><stop offset=".497" stop-color="#DEB7A7"/><stop offset=".607" stop-color="#CD9581"/><stop offset=".714" stop-color="#B8715A"/><stop offset=".764" stop-color="#AE6049"/></linearGradient><linearGradient id="paint46_linear_224_13033" x1="35.742" y1="120.074" x2="124.942" y2="37.085" gradientUnits="userSpaceOnUse"><stop stop-color="#C55C18"/><stop offset=".182" stop-color="#FBB040"/><stop offset=".382" stop-color="#892E01"/><stop offset=".606" stop-color="#FFF8A3"/><stop offset=".788" stop-color="#FBB040"/><stop offset="1" stop-color="#C35019"/></linearGradient><linearGradient id="paint47_linear_224_13033" x1="35.742" y1="120.074" x2="124.941" y2="37.085" gradientUnits="userSpaceOnUse"><stop stop-color="#C55C18"/><stop offset=".182" stop-color="#FBB040"/><stop offset=".382" stop-color="#892E01"/><stop offset=".606" stop-color="#FFF8A3"/><stop offset=".788" stop-color="#FBB040"/><stop offset="1" stop-color="#C35019"/></linearGradient><linearGradient id="paint48_linear_224_13033" x1="68.101" y1="110.034" x2="98.288" y2="47.759" gradientUnits="userSpaceOnUse"><stop stop-color="#813900"/><stop offset=".279" stop-color="#FFC841"/><stop offset=".539" stop-color="#FFF8A3"/><stop offset=".776" stop-color="#FBB040"/><stop offset="1" stop-color="#C55C18"/></linearGradient><linearGradient id="paint49_linear_224_13033" x1="60.252" y1="77.01" x2="101.57" y2="77.01" gradientUnits="userSpaceOnUse"><stop stop-color="#813900"/><stop offset=".279" stop-color="#FFC841"/><stop offset=".539" stop-color="#FFF8A3"/><stop offset=".776" stop-color="#FBB040"/><stop offset="1" stop-color="#C55C18"/></linearGradient><radialGradient id="paint10_radial_224_13033" cx="0" cy="0" r="1" gradientUnits="userSpaceOnUse" gradientTransform="translate(120.996 36.284) scale(22.4463)"><stop stop-color="#FFF799"/><stop offset=".509" stop-color="#FBB040"/><stop offset="1" stop-color="#C55C18"/></radialGradient><radialGradient id="paint11_radial_224_13033" cx="0" cy="0" r="1" gradientUnits="userSpaceOnUse" gradientTransform="translate(114.068 13.477) scale(7.51546)"><stop stop-color="#FFF799"/><stop offset=".509" stop-color="#FBB040"/><stop offset="1" stop-color="#C55C18"/></radialGradient><radialGradient id="paint12_radial_224_13033" cx="0" cy="0" r="1" gradientUnits="userSpaceOnUse" gradientTransform="translate(119.756 36.683) scale(16.7303)"><stop stop-color="#FFF799"/><stop offset=".509" stop-color="#FBB040"/><stop offset="1" stop-color="#C55C18"/></radialGradient><radialGradient id="paint15_radial_224_13033" cx="0" cy="0" r="1" gradientUnits="userSpaceOnUse" gradientTransform="rotate(180 21.047 18.142) scale(22.4463)"><stop stop-color="#FFF799"/><stop offset=".509" stop-color="#FBB040"/><stop offset="1" stop-color="#C55C18"/></radialGradient><radialGradient id="paint16_radial_224_13033" cx="0" cy="0" r="1" gradientUnits="userSpaceOnUse" gradientTransform="matrix(-7.51545 0 0 -7.51546 49.023 13.477)"><stop stop-color="#FFF799"/><stop offset=".509" stop-color="#FBB040"/><stop offset="1" stop-color="#C55C18"/></radialGradient><radialGradient id="paint17_radial_224_13033" cx="0" cy="0" r="1" gradientUnits="userSpaceOnUse" gradientTransform="rotate(180 21.667 18.341) scale(16.7303)"><stop stop-color="#FFF799"/><stop offset=".509" stop-color="#FBB040"/><stop offset="1" stop-color="#C55C18"/></radialGradient><radialGradient id="paint21_radial_224_13033" cx="0" cy="0" r="1" gradientUnits="userSpaceOnUse" gradientTransform="matrix(13.0151 0 0 11.0521 81.544 125.31)"><stop stop-color="#FFF799"/><stop offset=".509" stop-color="#FBB040"/><stop offset="1" stop-color="#C55C18"/></radialGradient><radialGradient id="paint22_radial_224_13033" cx="0" cy="0" r="1" gradientUnits="userSpaceOnUse" gradientTransform="matrix(19.8502 0 0 19.8503 88.123 100.443)"><stop stop-color="#FFF799"/><stop offset=".509" stop-color="#FBB040"/><stop offset="1" stop-color="#C55C18"/></radialGradient></defs></svg>