<svg width="140" height="140" fill="none" xmlns="http://www.w3.org/2000/svg"><g clip-path="url(#clip0_130_12300)"><path d="M55.147 90.754c-11.42 0-19.572-7.252-25.51-12.548-3.755-3.355-6.995-6.239-9.608-6.253h-2.998l.172-2.998c1.446-25.754 22.74-45.904 48.536-45.924 1.01 0 2.009.029 2.998.086h1.014l.742.685c8.008 7.38 8.165 15.56.485 24.268a101.386 101.386 0 01-10.535 9.85c-4.954 4.283-9.636 8.195-11.22 11.763a4.623 4.623 0 00-.072 4.597c.97 1.742 3.298 3.455 6.924 5.054a32.031 32.031 0 017.808 4.41h.386l1.727 2.228-.914 3.526h-1.698a21.774 21.774 0 01-7.367 1.199l-.87.057z" fill="#CCD33D"/><path d="M65.783 120.319c-26.203.001-47.7-20.75-48.623-46.938l-.1-3.04 3.041.085c3.298.086 6.524 2.97 10.607 6.61 6.067 5.41 13.604 12.134 24.41 12.134h.857c2.483.046 4.95-.391 7.267-1.285.542-.285.856-.585.928-.885.07-.3.114-.457-.472-1.17-.585-.714-2.57-2.499-8.25-5.011a16.456 16.456 0 01-6.882-4.94 6.538 6.538 0 01-.656-6.752c1.741-3.911 6.31-7.808 11.62-12.32a101.046 101.046 0 0010.321-9.65C76.19 39.934 76.99 34.31 72.706 28.6l-4.482-5.995 7.337 1.427a48.363 48.363 0 0119.658 8.85l1.584 1.2-3.711 12.291 3.94 3.94 5.781-10.492 2.627 3.697a48.302 48.302 0 017.851 17.63l.471 2.156-1.955.985c-7.595 3.854-7.852 6.038-8.337 9.993-.528 4.282-1.242 10.306-13.976 20.927a36.672 36.672 0 00-8.85 9.751 16.085 16.085 0 00-1.814 10.849l.443 2.726-2.627.6a48.889 48.889 0 01-10.863 1.185z" fill="#73DDCD"/><path d="M116.474 50.199l2.413-7.98-10.221-9.622L97.388 52.94l-6.096-6.096 7.238-23.826-8.68-8.18a5.84 5.84 0 01-1.498-6.566 7.316 7.316 0 013.868-3.869h.143a5.843 5.843 0 012.084-.385 5.934 5.934 0 014.283 1.941l8.165 8.665 23.855-7.209 6.095 6.096-20.342 11.235 9.622 10.207 7.994-2.413 4.953 4.953-9.693 5.382-1.727.857-.785 1.599-5.496 9.821-4.897-4.953z" fill="#fff"/><path d="M77.116 115.681a17.662 17.662 0 012.085-11.421 38.135 38.135 0 019.336-10.221c12.248-10.221 12.848-15.589 13.419-19.914.471-3.897 1.313-6.924 7.965-10.578l3.698-2.027.457 4.196c.239 1.98.358 3.973.356 5.968a48.334 48.334 0 01-14.275 34.403 48.856 48.856 0 01-19.286 11.849l-3.24 1.056-.515-3.311z" fill="#CCD33D"/><path d="M19.359 115.452a2.142 2.142 0 000 3.027 54.686 54.686 0 004.454 4.04 2.14 2.14 0 102.853-3.184l-.142-.114a61.137 61.137 0 01-4.169-3.769 2.14 2.14 0 00-2.996 0z" fill="url(#paint0_linear_130_12300)"/><path d="M2.243 66.002h.271a2.141 2.141 0 002.127-1.884c.229-1.856.543-3.726.943-5.539a2.14 2.14 0 10-4.126-.898 64.12 64.12 0 00-1 5.924 2.14 2.14 0 001.785 2.397z" fill="url(#paint1_linear_130_12300)"/><path d="M10.024 102.56a2.14 2.14 0 00-.743 2.941 64.835 64.835 0 003.326 5.011 2.142 2.142 0 003.455-2.527 63.143 63.143 0 01-3.098-4.682 2.14 2.14 0 00-2.94-.743z" fill="url(#paint2_linear_130_12300)"/><path d="M4.012 87.729a2.142 2.142 0 00-1.427 2.655 71.046 71.046 0 001.97 5.71 2.176 2.176 0 004.04-1.613 61.343 61.343 0 01-1.842-5.31 2.142 2.142 0 00-2.655-1.428l-.086-.014z" fill="url(#paint3_linear_130_12300)"/><path d="M5.74 50.383a2.142 2.142 0 002.783-1.195l.001-.004a51.3 51.3 0 012.299-5.125 2.142 2.142 0 10-3.826-1.927 63.165 63.165 0 00-2.455 5.496 2.142 2.142 0 001.199 2.755z" fill="url(#paint4_linear_130_12300)"/><path d="M2.528 81.976h.357a2.143 2.143 0 001.857-2.392l-.001-.006a67.169 67.169 0 01-.457-5.596 2.144 2.144 0 00-4.283.157 46.83 46.83 0 00.486 5.996 2.141 2.141 0 002.041 1.841z" fill="url(#paint5_linear_130_12300)"/><path d="M53.607 11.313h.414a61.54 61.54 0 015.567-.814 2.156 2.156 0 10-.414-4.283c-1.984.2-3.983.486-5.953.871a2.156 2.156 0 10.399 4.283l-.013-.057z" fill="url(#paint6_linear_130_12300)"/><path d="M14.092 36.537a2.139 2.139 0 001.741-.885 61.354 61.354 0 013.498-4.397 2.156 2.156 0 10-3.226-2.855c-1.314 1.428-2.57 3.084-3.74 4.711a2.142 2.142 0 001.727 3.398v.028z" fill="url(#paint7_linear_130_12300)"/><path d="M74.99 10.856h.328a2.148 2.148 0 00.314-4.283c-1.97-.3-3.983-.513-5.981-.628a2.146 2.146 0 00-.257 4.283c1.884.143 3.754.343 5.596.628z" fill="url(#paint8_linear_130_12300)"/><path d="M26.368 24.403a57.746 57.746 0 014.482-3.397 2.141 2.141 0 00-2.426-3.526 69.176 69.176 0 00-4.797 3.626 2.144 2.144 0 002.74 3.297z" fill="url(#paint9_linear_130_12300)"/><path d="M38.445 16.28c.317-.003.628-.076.914-.214a61.058 61.058 0 015.182-2.17 2.14 2.14 0 00-1.128-4.126l-.3.1a53.283 53.283 0 00-5.538 2.327 2.14 2.14 0 00.913 4.083h-.043z" fill="url(#paint10_linear_130_12300)"/><path d="M64.027 133.254a2.142 2.142 0 00-.114 4.282h1.785c1.427 0 2.855 0 4.197-.128a2.146 2.146 0 00-.272-4.283c-1.861.142-3.73.185-5.596.129z" fill="url(#paint11_linear_130_12300)"/><path d="M125.025 95.138a2.14 2.14 0 002.738-1.292l.003-.008a70.99 70.99 0 001.756-5.71 2.143 2.143 0 10-4.156-.999 57.984 57.984 0 01-1.641 5.368 2.142 2.142 0 001.3 2.64z" fill="url(#paint12_linear_130_12300)"/><path d="M128.51 63.461h.357a2.142 2.142 0 001.77-2.455 68.782 68.782 0 00-1.242-5.882 2.142 2.142 0 00-4.14 1.085 64.811 64.811 0 011.17 5.496 2.142 2.142 0 002.085 1.756z" fill="url(#paint13_linear_130_12300)"/><path d="M130.18 6.102l-22.741 6.88-7.651-8.122a6.923 6.923 0 00-7.88-1.87h-.129a8.425 8.425 0 00-4.582 4.582 7.744 7.744 0 00-.457 1.685l-.87-.3a2.144 2.144 0 10-1.314 4.082c1.099.357 2.198.757 3.297 1.171a8.18 8.18 0 001.157 1.428l8.094 7.651-2.313 7.638c-22.62-16.134-54.034-10.878-70.17 11.741-16.135 22.62-10.877 54.034 11.742 70.17 22.62 16.135 54.034 10.878 70.17-11.742 12.866-18.037 12.417-42.368-1.107-59.92l3.655-6.595 8.48 7.994-2.042 6.753a2.072 2.072 0 00.471 2.112s4.183 4.14 4.283 4.283a2.07 2.07 0 002.836-.724l.019-.032 5.582-10.236 10.078-5.496a2.084 2.084 0 00.614-3.355l-3.754-3.983a2.072 2.072 0 00-2.07-.514l-6.824 2.07-7.994-8.48 17.944-9.992a2.084 2.084 0 00.614-3.355l-5.039-5.039a2.088 2.088 0 00-2.099-.485zM33.221 39.249A45.84 45.84 0 0165.698 25.83c.952 0 1.903.029 2.855.086 8.094 7.466 5.71 14.275.285 20.414a100.13 100.13 0 01-10.278 9.479c-5.267 4.482-10.178 8.665-12.034 12.848-2.198 4.968-.585 9.464 8.294 13.39 4.44 1.97 6.852 3.498 7.794 4.654.129.157.257 0 .229 0a.859.859 0 00-.286.071 17.742 17.742 0 01-6.738 1.156c-10.763.457-18.43-6.424-24.382-11.748-4.283-3.812-7.837-6.98-11.535-7.01a45.841 45.841 0 0113.32-29.92zm78.515 32.52c-.014 19.911-12.83 37.555-31.763 43.725a14.978 14.978 0 011.756-9.721 35.383 35.383 0 018.566-9.422c13.176-10.992 13.918-17.13 14.489-21.856.357-2.983.628-5.21 6.524-8.45.236 1.894.355 3.8.357 5.71l.071.014zm-2.669-15.446a45.574 45.574 0 011.57 5.496c-8.979 4.568-9.379 7.823-9.921 12.262-.486 3.997-1.114 9.222-13.02 19.158a39.03 39.03 0 00-9.564 10.607 18.934 18.934 0 00-2.142 12.748c-24.763 5.66-49.427-9.825-55.088-34.59a45.937 45.937 0 01-1.128-8.622c2.27 0 5.21 2.698 8.822 5.91C35.134 85.13 43.5 92.582 55.962 92.14c2.936.05 5.852-.504 8.565-1.628a4.282 4.282 0 002.37-2.683 4.082 4.082 0 00-1.028-3.726c-1.342-1.642-4.282-3.584-9.336-5.839-6.038-2.67-7.352-5.268-6.167-7.923 1.428-3.34 6.024-7.138 10.907-11.42a103.922 103.922 0 0010.72-9.993c5.968-6.795 9.037-14.275 2.97-22.313a45.694 45.694 0 0118.558 8.437l-3.284 10.835a2.083 2.083 0 00.5 2.113s5.325 5.282 5.496 5.382a2.07 2.07 0 002.837-.724c.005-.011.013-.021.018-.033l4.154-7.509a45.893 45.893 0 015.825 11.207zm5.31-33.69a2.068 2.068 0 00-.859 2.798l.031.057c.086.157 11.007 11.777 11.007 11.777a2.07 2.07 0 002.112.557l6.895-2.085 1.071 1.071-6.424 3.555-1.841.913a2.056 2.056 0 00-.943.957l-.913 1.856-3.555 6.424-1.042-1.142 2.07-6.838a2.071 2.071 0 00-.671-2.199l-11.263-10.592a2.07 2.07 0 00-2.927 0c-.142.157-10.278 18.415-10.278 18.415l-2.213-2.213 6.91-22.769a2.071 2.071 0 00-.671-2.213l-9.022-8.35a2.97 2.97 0 01-.814-3.427 4.48 4.48 0 012.327-2.313h.071a2.969 2.969 0 013.34.857l8.566 9.05c.538.579 1.357.8 2.113.572l22.84-6.895 2.213 2.212-18.13 9.965z" fill="url(#paint14_linear_130_12300)"/><path d="M122.599 100.52a2.14 2.14 0 00-2.855.842 57 57 0 01-2.941 4.797 2.147 2.147 0 003.512 2.469 72.197 72.197 0 003.14-5.125 2.14 2.14 0 00-.756-2.926l-.1-.057z" fill="url(#paint15_linear_130_12300)"/><path d="M131.364 77.722a64.78 64.78 0 00.271-5.996v-.3a2.14 2.14 0 00-2.141-2.126 2.14 2.14 0 00-2.197 2.082c0 .015 0 .029-.002.045v.328c0 1.87-.085 3.754-.257 5.624a2.142 2.142 0 001.939 2.327h.203a2.141 2.141 0 002.184-1.984z" fill="url(#paint16_linear_130_12300)"/><path d="M48.794 130.926a2.143 2.143 0 00-1.427 4.04h.257a87.763 87.763 0 005.852 1.427h.4a2.156 2.156 0 10.401-4.283 44.006 44.006 0 01-5.483-1.184z" fill="url(#paint17_linear_130_12300)"/><path d="M84.812 130.268a42.611 42.611 0 01-5.41 1.428 2.144 2.144 0 00.942 4.183 68.398 68.398 0 005.796-1.599 2.142 2.142 0 00-1.328-4.069v.057z" fill="url(#paint18_linear_130_12300)"/><path d="M34.606 124.845a2.14 2.14 0 10-2.17 3.681 85.807 85.807 0 005.325 2.855 2.146 2.146 0 101.827-3.883c-1.699-.826-3.369-1.74-4.982-2.653z" fill="url(#paint19_linear_130_12300)"/><path d="M110.622 113.838a51.78 51.78 0 01-4.025 3.926 2.142 2.142 0 102.855 3.198c1.427-1.328 2.941-2.741 4.283-4.197a2.14 2.14 0 00-3.127-2.927h.014z" fill="url(#paint20_linear_130_12300)"/><path d="M98.745 123.688c-1.57 1-3.212 1.942-4.868 2.855a2.143 2.143 0 001.956 3.812 67.294 67.294 0 005.21-2.998 2.141 2.141 0 00-2.198-3.669h-.1z" fill="url(#paint21_linear_130_12300)"/></g><defs><linearGradient id="paint0_linear_130_12300" x1="18.732" y1="116.015" x2="28.034" y2="116.851" gradientUnits="userSpaceOnUse"><stop stop-color="#F1612A"/><stop offset="1" stop-color="#FBAC3E"/></linearGradient><linearGradient id="paint1_linear_130_12300" x1=".439" y1="57.105" x2="6.117" y2="57.353" gradientUnits="userSpaceOnUse"><stop stop-color="#F1612A"/><stop offset="1" stop-color="#FBAC3E"/></linearGradient><linearGradient id="paint2_linear_130_12300" x1="8.977" y1="103.54" x2="16.94" y2="104.099" gradientUnits="userSpaceOnUse"><stop stop-color="#F1612A"/><stop offset="1" stop-color="#FBAC3E"/></linearGradient><linearGradient id="paint3_linear_130_12300" x1="2.496" y1="89.042" x2="9.189" y2="89.407" gradientUnits="userSpaceOnUse"><stop stop-color="#F1612A"/><stop offset="1" stop-color="#FBAC3E"/></linearGradient><linearGradient id="paint4_linear_130_12300" x1="4.398" y1="42.309" x2="11.515" y2="42.731" gradientUnits="userSpaceOnUse"><stop stop-color="#F1612A"/><stop offset="1" stop-color="#FBAC3E"/></linearGradient><linearGradient id="paint5_linear_130_12300" x1="0" y1="73.341" x2="5.1" y2="73.547" gradientUnits="userSpaceOnUse"><stop stop-color="#F1612A"/><stop offset="1" stop-color="#FBAC3E"/></linearGradient><linearGradient id="paint6_linear_130_12300" x1="51.119" y1="6.926" x2="62.117" y2="8.83" gradientUnits="userSpaceOnUse"><stop stop-color="#F1612A"/><stop offset="1" stop-color="#FBAC3E"/></linearGradient><linearGradient id="paint7_linear_130_12300" x1="11.957" y1="28.874" x2="20.462" y2="29.523" gradientUnits="userSpaceOnUse"><stop stop-color="#F1612A"/><stop offset="1" stop-color="#FBAC3E"/></linearGradient><linearGradient id="paint8_linear_130_12300" x1="67.377" y1="6.638" x2="78.037" y2="8.534" gradientUnits="userSpaceOnUse"><stop stop-color="#F1612A"/><stop offset="1" stop-color="#FBAC3E"/></linearGradient><linearGradient id="paint9_linear_130_12300" x1="22.854" y1="18.238" x2="32.283" y2="19.16" gradientUnits="userSpaceOnUse"><stop stop-color="#F1612A"/><stop offset="1" stop-color="#FBAC3E"/></linearGradient><linearGradient id="paint10_linear_130_12300" x1="36.336" y1="10.649" x2="46.56" y2="11.938" gradientUnits="userSpaceOnUse"><stop stop-color="#F1612A"/><stop offset="1" stop-color="#FBAC3E"/></linearGradient><linearGradient id="paint11_linear_130_12300" x1="61.828" y1="133.746" x2="72.248" y2="135.778" gradientUnits="userSpaceOnUse"><stop stop-color="#F1612A"/><stop offset="1" stop-color="#FBAC3E"/></linearGradient><linearGradient id="paint12_linear_130_12300" x1="123.629" y1="86.748" x2="130.043" y2="87.079" gradientUnits="userSpaceOnUse"><stop stop-color="#F1612A"/><stop offset="1" stop-color="#FBAC3E"/></linearGradient><linearGradient id="paint13_linear_130_12300" x1="125.203" y1="54.997" x2="131.052" y2="55.274" gradientUnits="userSpaceOnUse"><stop stop-color="#F1612A"/><stop offset="1" stop-color="#FBAC3E"/></linearGradient><linearGradient id="paint14_linear_130_12300" x1="15.266" y1="19.408" x2="148.098" y2="31.232" gradientUnits="userSpaceOnUse"><stop stop-color="#F1612A"/><stop offset="1" stop-color="#FBAC3E"/></linearGradient><linearGradient id="paint15_linear_130_12300" x1="116.412" y1="101.586" x2="124.252" y2="102.117" gradientUnits="userSpaceOnUse"><stop stop-color="#F1612A"/><stop offset="1" stop-color="#FBAC3E"/></linearGradient><linearGradient id="paint16_linear_130_12300" x1="127.029" y1="70.772" x2="131.966" y2="70.958" gradientUnits="userSpaceOnUse"><stop stop-color="#F1612A"/><stop offset="1" stop-color="#FBAC3E"/></linearGradient><linearGradient id="paint17_linear_130_12300" x1="45.938" y1="131.598" x2="56.869" y2="133.333" gradientUnits="userSpaceOnUse"><stop stop-color="#F1612A"/><stop offset="1" stop-color="#FBAC3E"/></linearGradient><linearGradient id="paint18_linear_130_12300" x1="77.728" y1="130.95" x2="88.045" y2="132.441" gradientUnits="userSpaceOnUse"><stop stop-color="#F1612A"/><stop offset="1" stop-color="#FBAC3E"/></linearGradient><linearGradient id="paint19_linear_130_12300" x1="31.268" y1="125.484" x2="41.387" y2="126.646" gradientUnits="userSpaceOnUse"><stop stop-color="#F1612A"/><stop offset="1" stop-color="#FBAC3E"/></linearGradient><linearGradient id="paint20_linear_130_12300" x1="105.881" y1="114.358" x2="114.845" y2="115.132" gradientUnits="userSpaceOnUse"><stop stop-color="#F1612A"/><stop offset="1" stop-color="#FBAC3E"/></linearGradient><linearGradient id="paint21_linear_130_12300" x1="92.713" y1="124.45" x2="102.552" y2="125.54" gradientUnits="userSpaceOnUse"><stop stop-color="#F1612A"/><stop offset="1" stop-color="#FBAC3E"/></linearGradient><clipPath id="clip0_130_12300"><path fill="#fff" d="M0 0h140v140H0z"/></clipPath></defs></svg>