<svg width="210" height="149" fill="none" xmlns="http://www.w3.org/2000/svg"><path d="M178.205 102.535s19.883-1.041 30.797 12.1c0 0-10.445-2.417-16.985 1.097 0 0 9.489 5.737 12.114 15.716 0 0-13.572-10.508-32.016-6.877 0 0 .03-9.228 6.09-22.036z" fill="url(#paint0_linear_224_13563)"/><path d="M170.785 116.583l1.325 7.99c5.014-.871 8.899-3.041 8.538-5.223-.362-2.182-4.834-3.564-9.863-2.767z" fill="url(#paint1_linear_224_13563)"/><path d="M147.847 96.492s5.48 7.179 11.371 2.605 11.924-11.17 26.77-6.93l-5.342 27.183s-8.738-5.847-16.029-.315c-8.383 6.364-11.387 5.498-21.366 5.498 0 0-.055-2.389 0-4.172.191-5.962 1.061-18.25 4.596-23.87z" fill="url(#paint2_linear_224_13563)"/><path d="M143.252 114.582v9.875c5.093-.05 9.192-2.241 9.192-4.939 0-2.695-4.099-4.89-9.192-4.936z" fill="url(#paint3_linear_224_13563)"/><path d="M31.624 102.535s-19.88-1.041-30.796 12.1c0 0 10.444-2.417 16.984 1.097 0 0-9.486 5.737-12.114 15.716 0 0 13.572-10.508 32.016-6.877 0 0-.023-9.228-6.09-22.036z" fill="url(#paint4_linear_224_13563)"/><path d="M39.046 116.583l-1.324 7.99c-5.014-.871-8.899-3.041-8.537-5.223.359-2.182 4.83-3.564 9.86-2.767z" fill="url(#paint5_linear_224_13563)"/><path d="M61.98 96.492s-5.48 7.179-11.372 2.605c-5.89-4.574-11.922-11.17-26.766-6.93l5.342 27.183s8.734-5.847 16.027-.315c8.385 6.364 11.389 5.498 21.367 5.498 0 0 .056-2.389 0-4.172-.19-5.962-1.06-18.25-4.597-23.87z" fill="url(#paint6_linear_224_13563)"/><path d="M66.58 114.582v9.875c-5.094-.05-9.193-2.241-9.193-4.939 0-2.695 4.1-4.89 9.193-4.936z" fill="url(#paint7_linear_224_13563)"/><path d="M146.913 103.913V17.211h-14.915c-7.543-6.738-16.918-10.734-27.082-10.734-10.162 0-19.54 3.996-27.082 10.734H62.918v86.702a40.607 40.607 0 00-.059 2.179c0 23.224 18.83 42.055 42.057 42.055 23.226 0 42.054-18.831 42.054-42.055 0-.733-.019-1.459-.057-2.179z" fill="url(#paint8_radial_224_13563)"/><path d="M162.281 84.45s-8.127 11.215-20.978 10.094c0 0 6.144-9.85 20.978-10.095z" fill="url(#paint9_linear_224_13563)"/><path d="M161.209 85.074s-6.927 5.304-19.473 9.21c0 0 9.544-4.584 19.473-9.21z" fill="url(#paint10_linear_224_13563)"/><path d="M163.99 66.07s-2.296 13.627-14.322 18.275c0 0 1.125-11.534 14.322-18.275z" fill="url(#paint11_linear_224_13563)"/><path d="M163.305 67.098s-3.852 7.803-13.366 16.825c.001 0 6.522-8.308 13.366-16.825z" fill="url(#paint12_linear_224_13563)"/><path d="M165.297 52.266s-1.273 13.756-12.922 19.248c.001 0 .264-11.584 12.922-19.248z" fill="url(#paint13_linear_224_13563)"/><path d="M164.69 53.34s-3.259 8.06-12.075 17.728c0 0 5.885-8.747 12.075-17.728z" fill="url(#paint14_linear_224_13563)"/><path d="M161.036 35.66s2.427 13.605-7.348 21.934c0 0-2.825-11.25 7.348-21.934z" fill="url(#paint15_linear_224_13563)"/><path d="M160.742 36.852s-1.009 8.626-6.943 20.253c-.001 0 3.353-9.974 6.943-20.253z" fill="url(#paint16_linear_224_13563)"/><path d="M154.432 22.984s6.117 12.431-.95 23.115c-.001 0-5.844-10.047.95-23.115z" fill="url(#paint17_linear_224_13563)"/><path d="M154.48 24.223s1.436 8.57-1.023 21.378c-.001 0 .438-10.508 1.023-21.378z" fill="url(#paint18_linear_224_13563)"/><path d="M141.057 7.695s10.118 9.498 7.281 21.978c0 0-9.021-7.37-7.281-21.978z" fill="url(#paint19_linear_224_13563)"/><path d="M141.539 8.832s4.372 7.523 6.595 20.38c0 0-3.302-9.998-6.595-20.38z" fill="url(#paint20_linear_224_13563)"/><path d="M158.974 91.896s-9.226 10.351-21.898 7.95c0 0 7.114-9.19 21.898-7.95z" fill="url(#paint21_linear_224_13563)"/><path d="M157.842 92.41s-7.43 4.586-20.309 7.22c0 0 9.961-3.607 20.309-7.22z" fill="url(#paint22_linear_224_13563)"/><path d="M164.874 76.106s-6.256 12.322-19.12 13.166c.001 0 4.515-10.676 19.12-13.166z" fill="url(#paint23_linear_224_13563)"/><path d="M163.917 76.883s-6.006 6.299-17.774 12.063c0 0 8.7-5.978 17.774-12.063z" fill="url(#paint24_linear_224_13563)"/><path d="M165.963 60.66s-2.443 13.593-14.52 18.06c0 0 1.254-11.52 14.52-18.06z" fill="url(#paint25_linear_224_13563)"/><path d="M165.272 61.68s-3.938 7.742-13.551 16.615c0 0 6.609-8.21 13.551-16.615z" fill="url(#paint26_linear_224_13563)"/><path d="M163.709 43.945s-.643 13.806-12.021 19.778c0-.001-.268-11.59 12.021-19.778z" fill="url(#paint27_linear_224_13563)"/><path d="M163.154 45.047s-2.887 8.187-11.246 18.222c.001 0 5.473-8.987 11.246-18.222z" fill="url(#paint28_linear_224_13563)"/><path d="M157.746 28.387s5.211 12.814-2.611 22.982c-.001 0-5.11-10.422 2.611-22.982z" fill="url(#paint29_linear_224_13563)"/><path d="M157.707 29.617s.814 8.648-2.564 21.249c0 0 1.198-10.45 2.564-21.249z" fill="url(#paint30_linear_224_13563)"/><path d="M148.07 14.254s8.458 11.006 3.649 22.868c0 0-7.719-8.728-3.649-22.868z" fill="url(#paint31_linear_224_13563)"/><path d="M148.363 15.457s3.103 8.131 3.232 21.174c0 0-1.65-10.397-3.232-21.174z" fill="url(#paint32_linear_224_13563)"/><path d="M131.309.852s11.727 7.489 11.293 20.277c0 .001-10.249-5.596-11.293-20.277z" fill="url(#paint33_linear_224_13563)"/><path d="M131.996 1.879s5.713 6.598 10.322 18.831c-.001 0-5.128-9.226-10.322-18.831z" fill="url(#paint34_linear_224_13563)"/><path d="M47.549 84.45s8.125 11.215 20.981 10.094c0 0-6.146-9.85-20.981-10.095z" fill="url(#paint35_linear_224_13563)"/><path d="M48.621 85.074s6.928 5.304 19.472 9.21c0 0-9.542-4.584-19.472-9.21z" fill="url(#paint36_linear_224_13563)"/><path d="M45.84 66.07s2.296 13.627 14.322 18.275c0 0-1.125-11.534-14.322-18.275z" fill="url(#paint37_linear_224_13563)"/><path d="M46.523 67.098s3.854 7.803 13.368 16.825c0 0-6.518-8.308-13.368-16.825z" fill="url(#paint38_linear_224_13563)"/><path d="M44.533 52.266s1.274 13.756 12.922 19.248c0 0-.264-11.584-12.922-19.248z" fill="url(#paint39_linear_224_13563)"/><path d="M45.135 53.34s3.26 8.06 12.078 17.728c0 0-5.885-8.747-12.078-17.728z" fill="url(#paint40_linear_224_13563)"/><path d="M48.792 35.66s-2.425 13.605 7.351 21.934c0 0 2.825-11.25-7.351-21.934z" fill="url(#paint41_linear_224_13563)"/><path d="M49.09 36.852s1.007 8.626 6.94 20.253c0 0-3.352-9.974-6.94-20.253z" fill="url(#paint42_linear_224_13563)"/><path d="M55.402 22.984S49.28 35.415 56.35 46.1c0 0 5.843-10.047-.948-23.115z" fill="url(#paint43_linear_224_13563)"/><path d="M55.352 24.223s-1.439 8.57 1.02 21.378c0 0-.436-10.508-1.02-21.378z" fill="url(#paint44_linear_224_13563)"/><path d="M68.773 7.695s-10.119 9.498-7.28 21.978c0 0 9.022-7.37 7.28-21.978z" fill="url(#paint45_linear_224_13563)"/><path d="M68.29 8.832s-4.371 7.523-6.597 20.38c0 0 3.305-9.998 6.598-20.38z" fill="url(#paint46_linear_224_13563)"/><path d="M50.853 91.896s9.226 10.351 21.901 7.95c0 0-7.116-9.19-21.9-7.95z" fill="url(#paint47_linear_224_13563)"/><path d="M51.984 92.41s7.433 4.586 20.312 7.22c0 0-9.961-3.607-20.312-7.22z" fill="url(#paint48_linear_224_13563)"/><path d="M44.955 76.106s6.259 12.322 19.122 13.166c0 0-4.515-10.676-19.122-13.166z" fill="url(#paint49_linear_224_13563)"/><path d="M45.916 76.883s6.004 6.299 17.773 12.063c0 0-8.699-5.978-17.773-12.063z" fill="url(#paint50_linear_224_13563)"/><path d="M43.863 60.66s2.448 13.593 14.523 18.06c0 0-1.255-11.52-14.523-18.06z" fill="url(#paint51_linear_224_13563)"/><path d="M44.559 61.68s3.939 7.742 13.55 16.615c0 0-6.609-8.21-13.55-16.615z" fill="url(#paint52_linear_224_13563)"/><path d="M46.121 43.945s.641 13.806 12.018 19.778c0-.001.269-11.59-12.018-19.778z" fill="url(#paint53_linear_224_13563)"/><path d="M46.674 45.047s2.888 8.187 11.245 18.222c0 0-5.47-8.987-11.245-18.222z" fill="url(#paint54_linear_224_13563)"/><path d="M52.083 28.387S46.868 41.2 54.694 51.369c0 0 5.11-10.422-2.611-22.982z" fill="url(#paint55_linear_224_13563)"/><path d="M52.119 29.617s-.813 8.648 2.565 21.249c0 0-1.197-10.45-2.565-21.249z" fill="url(#paint56_linear_224_13563)"/><path d="M61.761 14.254s-8.46 11.006-3.649 22.868c0 0 7.719-8.728 3.65-22.868z" fill="url(#paint57_linear_224_13563)"/><path d="M61.468 15.457s-3.104 8.131-3.232 21.174c0 0 1.651-10.397 3.232-21.174z" fill="url(#paint58_linear_224_13563)"/><path d="M78.522.852S66.792 8.34 67.229 21.129c-.001.001 10.248-5.596 11.293-20.277z" fill="url(#paint59_linear_224_13563)"/><path d="M77.836 1.879s-5.714 6.598-10.32 18.831c0 0 5.126-9.226 10.32-18.831z" fill="url(#paint60_linear_224_13563)"/><path d="M104.915 85.348c-15.955.046-31.974 2.512-47.528 6.852v27.12c15.432-4.982 31.523-7.974 47.528-8.02 16.005.046 32.1 3.038 47.529 8.02V92.2c-15.556-4.34-31.575-6.806-47.529-6.852z" fill="url(#paint61_linear_224_13563)"/><path d="M69.146 96.642a8.164 8.164 0 011.46-.208c.46-.025.942-.017 1.446.023l.363.026c.116.012.238.024.366.04l.087.008.077.025.161.02c.119.018.227.03.323.035.215.025.425.049.63.077.207.026.416.046.629.062l.303.012c.057.007.113.007.163.005a.69.69 0 01.152.006c.046 0 .096-.004.148-.007.051-.004.1-.005.147-.006.06.004.107.002.142-.007a.447.447 0 00.141-.006.092.092 0 01.042-.001h.029c.036-.01.059-.01.071-.003a.453.453 0 01.138-.02c.045-.01.09-.02.136-.026a1.815 1.815 0 00.594-.193.445.445 0 00.144-.083.553.553 0 00.188-.196.381.381 0 00.064-.093c.018-.038.039-.078.056-.12a.72.72 0 00.012-.069c.005-.022.008-.046.013-.066a1.42 1.42 0 01.021-.148l-.005-.026a.233.233 0 01.08-.169.236.236 0 01.177-.065c.087.008.155.05.201.124l.048.08.051.095c.01.046.022.083.034.112a1.266 1.266 0 01.057.564 1.692 1.692 0 01-.116.47c-.02.034-.04.07-.058.107l-.06.108c-.02.032-.042.063-.064.093-.022.028-.046.061-.076.097-.023.025-.047.05-.072.082a.855.855 0 01-.086.084c-.053.06-.107.11-.164.153-.03.026-.061.05-.09.071l-.089.07a.345.345 0 01-.092.06.198.198 0 00-.08.054 2.34 2.34 0 01-.381.191l-.379.149a.588.588 0 00-.099.03.768.768 0 01-.1.031l-.188.045-.195.048c-.06.014-.12.023-.186.03a2.864 2.864 0 01-.383.063 5.773 5.773 0 00-.187.025.942.942 0 01-.19.01c-.477.029-.969.024-1.473-.018a19.204 19.204 0 00-.365-.04l-.087-.007-.089-.007-.163-.033a3.154 3.154 0 00-.325-.043 2.747 2.747 0 01-.323-.044c-.215-.025-.428-.046-.637-.068a20.44 20.44 0 00-.646-.051 7.583 7.583 0 00-.637-.047l-.633-.018a8.447 8.447 0 00-1.584.145c-.103.02-.21.043-.318.07a6.536 6.536 0 01-.298.092c-.102.03-.2.065-.296.107-.408.156-.77.37-1.085.645-.326.26-.596.582-.808.965l-.144.291a1.24 1.24 0 01-.057.15.544.544 0 00-.043.145 2.672 2.672 0 00-.055 1.254c.031.212.093.409.186.596.07.173.164.346.281.518.052.092.104.174.16.246a2.715 2.715 0 00.368.403c.06.057.126.114.197.175.122.113.26.207.41.285.164.084.313.149.447.192.04.009.076.02.107.031.03.012.071.021.12.028.024.014.04.022.056.023.014.001.03.004.053.009l.06.014.06.014.013-.004a.931.931 0 01.622.391c.157.22.214.458.172.714a.929.929 0 01-.396.639.954.954 0 01-.722.173c-.001-.009-.008-.013-.017-.011l-.043-.003-.06-.014c-.047.002-.082-.009-.107-.033a1.615 1.615 0 01-.115-.029c-.036-.009-.074-.02-.114-.029a1.809 1.809 0 01-.409-.157 3.518 3.518 0 01-.77-.472 3.188 3.188 0 01-.602-.61 2.544 2.544 0 01-.248-.355 4.102 4.102 0 01-.467-1.141 3.04 3.04 0 01-.069-.397l-.036-.389a4.901 4.901 0 01.042-.78 7.95 7.95 0 01.12-.742 6.851 6.851 0 01.201-.704l.14-.34c.044-.111.095-.225.152-.344a5.096 5.096 0 01.838-1.2c.359-.37.739-.684 1.142-.944.418-.28.857-.51 1.317-.686.46-.187.934-.329 1.423-.428zm5.704 6.71c.073.107.054.206-.057.298l-4.092 3.194a.771.771 0 00-.008.145.899.899 0 01-.008.144c-.003.19-.014.378-.035.564l-.019.283a3.943 3.943 0 01-.03.286l-.076.573c-.023.1-.042.201-.056.298a2.513 2.513 0 01-.06.286c-.038.199-.09.397-.156.594a1.315 1.315 0 01-.1.295 1.48 1.48 0 01-.115.298c-.016.051-.034.1-.056.148l-.07.153a3.012 3.012 0 00-.086.148 1.776 1.776 0 01-.185.293 1.4 1.4 0 00-.1.145 1.597 1.597 0 01-.118.136 7.74 7.74 0 00-.131.138 2.75 2.75 0 01-.623.436 1.044 1.044 0 01-.173.077 5.65 5.65 0 00-.178.063l-.174.042a.26.26 0 01-.097.009l-.04.011-.014.003-.014.003-.012.004c-.067.005-.128.01-.189.017-.061.004-.12.004-.179 0a.893.893 0 01-.382-.052 1.17 1.17 0 01-.19-.045l-.179-.065a4.893 4.893 0 01-.16-.104 2.886 2.886 0 00-.162-.104 1.902 1.902 0 01-.47-.542 2.47 2.47 0 01-.225-.631 2.124 2.124 0 01.073-.944c.035-.093.079-.186.134-.274.048-.078.115-.094.202-.049.056.034.08.081.076.139l.003.014a.677.677 0 00-.016.117.82.82 0 01-.01.13.3.3 0 01.008.063.536.536 0 00.008.063.304.304 0 00.012.111c.03.164.08.314.152.448a.92.92 0 00.25.338.742.742 0 00.401.24c.03.006.056.017.079.031l.171.001a.783.783 0 00.164-.026l.176-.042.013-.004-.003-.013.014-.004.013-.003.054-.014a.167.167 0 01.038-.023.094.094 0 00.036-.023.736.736 0 00.075-.046l.074-.046c.038-.038.077-.074.115-.113a.704.704 0 00.108-.14.94.94 0 01.053-.076.915.915 0 00.052-.077c.013-.031.023-.061.037-.087a.896.896 0 00.035-.088 2.716 2.716 0 00.175-.519l.03-.114c.009-.04.017-.077.023-.112l.02-.126a9.44 9.44 0 00.054-.484c.013-.136.027-.272.036-.409l.035-.421-.877.681a.664.664 0 01-.513.151.614.614 0 01-.454-.261.694.694 0 01-.153-.52.673.673 0 01.26-.46c.015-.014.027-.022.037-.023a.039.039 0 00.023-.02l1.69-1.034-.004-.134c0-.044-.002-.087-.004-.135l-.007-.269-.008-.269-.034-1.089c.003-.181.003-.362-.002-.541a11.802 11.802 0 01-.004-.555 10.942 10.942 0 01.053-1.139c.019-.195.04-.391.065-.587a5.92 5.92 0 01.107-.595.559.559 0 00.038-.138c.009-.04.026-.091.049-.154a.47.47 0 00.022-.083l.012-.067a.25.25 0 00.031-.078.278.278 0 01.033-.079l.05-.141a.52.52 0 01.063-.157.762.762 0 01.059-.142c.023-.043.046-.092.07-.147.035-.055.063-.105.087-.148a.78.78 0 01.088-.134 3.79 3.79 0 01.19-.275c.14-.167.294-.322.459-.467.157-.132.333-.246.53-.34a3.07 3.07 0 01.576-.21.236.236 0 01.176.022.2.2 0 01.105.139c.02.08.003.15-.048.21l-.173.206-.171.205c-.09.136-.176.275-.255.418a3.673 3.673 0 00-.342 1.309c-.01.154-.02.313-.027.475-.008.164-.01.331-.002.5.008.17.013.339.016.509a25.975 25.975 0 01.056 1.056c.004.179.012.359.02.537.01.179.015.363.013.553l.005.555c.003.094.004.161.004.199l3.838-2.362a.204.204 0 01.164-.025.206.206 0 01.138.094z" fill="#3D1210"/><path d="M74.928 109.307a1.118 1.118 0 01-.074-.232 2.065 2.065 0 00-.057-.223l-.083-.42a6.15 6.15 0 01-.08-.833 9.622 9.622 0 01-.015-.399 11.236 11.236 0 00-.016-.4c.004-.131.005-.266.006-.403 0-.136.007-.273.019-.407a9.416 9.416 0 01.044-.785 13.8 13.8 0 01.035-.39c.013-.123.026-.253.037-.387l.1-.783.05-.392.034-.19a.303.303 0 00.013-.102c0-.028.005-.062.016-.1a.95.95 0 01.408-.625.914.914 0 01.725-.15.978.978 0 01.63.399.88.88 0 01.156.717.051.051 0 00-.005.043l-.014.003-.035.176-.036.178a2.56 2.56 0 00-.072.353 6.28 6.28 0 01-.076.368 6.228 6.228 0 00-.076.369 5.98 5.98 0 00-.063.358c-.018.12-.039.246-.062.371a5.028 5.028 0 00-.055.358 6.136 6.136 0 01-.055.371 2.703 2.703 0 00-.051.356 4.3 4.3 0 01-.046.369 3.679 3.679 0 00-.03.352c-.006.119-.009.24-.013.363a2.579 2.579 0 00-.023.349c0 .119.001.234.004.347.002.055.007.111.013.167.006.056.01.106.01.153.01.055.018.108.023.157.004.051.012.099.021.145a.76.76 0 01.039.126c.008.041.02.078.037.114a.09.09 0 00.013.038.053.053 0 01.013.027.118.118 0 01.025.051l.003.014.002.013c.01-.001.017-.001.021.004a.098.098 0 00.036 0l.027-.007c.01-.001.014 0 .016.005 0 .004.005.006.014.004l.014-.002a.14.14 0 00.064-.029.4.4 0 00.104-.047c.059-.04.131-.101.218-.184.088-.083.16-.164.221-.241l.115-.136c.039-.045.075-.094.113-.15a12.465 12.465 0 00.596-.915c.065-.102.128-.212.19-.327.053-.113.126-.26.216-.438.093-.179.166-.324.218-.439a.939.939 0 00.088-.165.858.858 0 01.087-.165l.08-.172.037-.093a.502.502 0 01.042-.077.254.254 0 01.125-.118.208.208 0 01.176.002c.106.054.145.14.122.258a.618.618 0 00-.03.097.504.504 0 01-.03.097l-.05.18a1.783 1.783 0 01-.109.375c-.04.13-.094.292-.16.484l-.161.47c-.051.122-.1.245-.147.368a11.62 11.62 0 01-.145.367c-.053.122-.105.244-.162.364a9.498 9.498 0 01-.178.352 6.304 6.304 0 00-.097.189 1.5 1.5 0 01-.1.176l-.12.178a2.978 2.978 0 01-.447.527.987.987 0 00-.098.082 1.41 1.41 0 01-.391.239l-.026.006-.014.001-.038.022-.069.014a.959.959 0 01-.484.052c-.058-.008-.118-.013-.18-.019a.713.713 0 01-.186-.048 1.487 1.487 0 01-.318-.178 1.125 1.125 0 01-.244-.235 1.322 1.322 0 01-.176-.247 1.416 1.416 0 01-.126-.244 3.329 3.329 0 00-.093-.221zm1.952-9.382a1.176 1.176 0 01-.918-.179 1.18 1.18 0 01-.514-.782 1.182 1.182 0 01.18-.918c.186-.277.446-.448.781-.513.326-.065.63-.005.912.18.281.185.454.444.521.78.066.335.005.643-.186.92s-.45.45-.776.512z" fill="#3D1210"/><path d="M85.89 104.558c.128.046.17.127.124.246v.013c-.075.218-.154.435-.231.649-.078.214-.157.426-.235.634-.086.219-.174.436-.26.646-.089.21-.181.422-.277.634-.016.031-.026.059-.037.084a.289.289 0 01-.037.069 1.843 1.843 0 00-.085.169c-.03.051-.058.101-.08.153a1.285 1.285 0 01-.095.156c-.03.051-.062.1-.096.148l-.11.152c-.064.113-.148.21-.247.292-.092.117-.2.21-.32.277a.8.8 0 01-.22.104.697.697 0 01-.275.046 1.214 1.214 0 01-.286-.039.586.586 0 01-.257-.113 1.468 1.468 0 01-.207-.148.54.54 0 00-.077-.087.544.544 0 01-.077-.084 1.868 1.868 0 01-.226-.357l-.085-.177c-.029-.056-.055-.119-.087-.189a1 1 0 01-.063-.179c-.016-.058-.03-.118-.051-.181l-.1-.363a8.947 8.947 0 01-.195-1.47c-.008-.28 0-.581.023-.903a4.043 4.043 0 01-.57.133 4.251 4.251 0 01-.91.105 6.176 6.176 0 01-.71-.054.11.11 0 00-.016.031c-.002.01-.009.019-.015.03a1.821 1.821 0 01-.124.371 1.502 1.502 0 01-.06.192c-.024.06-.048.12-.076.18a2.556 2.556 0 01-.14.36l-.04.091c-.015.029-.027.06-.041.091-.013.039-.04.099-.084.181-.012.04-.04.065-.086.077a.222.222 0 01-.126 0c-.072-.045-.103-.115-.09-.21a1.85 1.85 0 00.069-.181l.055-.176c.019-.06.04-.119.064-.179.022-.06.044-.119.062-.178.017-.069.036-.133.052-.191l.056-.178c.037-.127.068-.249.096-.367.008-.01.01-.02.01-.029a6.659 6.659 0 01-.389-.148 2.306 2.306 0 01-.385-.204 1.708 1.708 0 01-.42-.34 1.713 1.713 0 01-.33-.48 1.415 1.415 0 01-.136-.582 1.397 1.397 0 01.096-.62.724.724 0 00.076-.137.443.443 0 01.048-.058.585.585 0 00.046-.057 1.081 1.081 0 01.204-.214.955.955 0 01.232-.136l.236-.094.123-.02.054-.009.014-.002.014-.001.027-.005.11-.018a.603.603 0 01.125-.007.843.843 0 00.113.004.477.477 0 01.128.014c.048.012.09.023.125.036l.127.049a.66.66 0 01.11.073c.034.028.066.057.098.09.034.033.06.065.08.101l.067.114a.354.354 0 01.052.104c.01.037.023.072.04.106a.99.99 0 00.024.117c.01.03.018.064.023.1a.72.72 0 01.013.117.73.73 0 00.01.104.463.463 0 00.002.105.391.391 0 01.003.105 6.676 6.676 0 00-.009.198l.274-.043c.4-.065.806-.187 1.217-.365.107-.037.212-.079.317-.129a9.76 9.76 0 01.314-.142c.103-.054.205-.108.304-.162.1-.053.204-.106.317-.162l.305-.121a.847.847 0 01.69.016.909.909 0 01.489.51c.065.168.08.337.046.505a.892.892 0 01-.218.436c-.11.13-.213.273-.309.427-.043.082-.085.168-.127.254a2.805 2.805 0 00-.112.262 6.55 6.55 0 00-.327 1.19c-.01.105-.023.207-.035.308l-.035.307c-.001.048-.003.099-.003.155 0 .057-.002.108-.003.156-.001.046 0 .097.005.153.003.056.004.107.003.154a1.67 1.67 0 00.022.305l.048.301c.017.045.03.09.035.134.008.047.02.091.035.135.024.082.06.159.109.236a.644.644 0 00.11.15.16.16 0 00.048.048c.012.008.02.013.023.011.005 0 .013.003.022.01a.1.1 0 01.03.001.043.043 0 00.027.004.258.258 0 00.048-.014.12.12 0 01.046-.016.495.495 0 00.102-.058 3.34 3.34 0 01.114-.074.994.994 0 00.222-.204c.072-.069.139-.144.2-.229l.195-.271a.625.625 0 00.046-.071c.015-.025.028-.048.044-.07a1.03 1.03 0 01.09-.14c.237-.395.434-.791.595-1.192a5.541 5.541 0 00.25-.616c.04-.109.078-.216.118-.321.039-.105.073-.21.104-.318.01-.05.041-.086.092-.115a.252.252 0 01.154-.021zm-7.503-1.863c.028.06.065.113.11.157.044.044.092.086.146.124l.184.096a.976.976 0 01.104.04c.03.014.066.026.105.039.06.027.124.048.191.06.069.013.14.022.217.03.003-.095.006-.161.009-.2a.578.578 0 01-.008-.095.672.672 0 00-.006-.084.325.325 0 00-.002-.091 3.64 3.64 0 00-.014-.09.686.686 0 00-.104-.292.825.825 0 00-.087-.099.422.422 0 00-.092-.054.52.52 0 00-.335.005.507.507 0 01-.082.02l.002.013-.013.002-.014.003-.014.002c-.01.001-.017.008-.025.018a.11.11 0 00-.04.014.06.06 0 01-.026.011.492.492 0 00-.181.184.132.132 0 00-.026.102.23.23 0 000 .085z" fill="#3D1210"/><path d="M91.306 103.96c.05.03.086.074.107.126a.17.17 0 01-.017.156l-1.775 2.867c-.07.195-.177.385-.322.569a1.871 1.871 0 01-.254.269c-.088.076-.18.147-.274.214a2.587 2.587 0 01-.295.153 2.693 2.693 0 01-.301.115 3.959 3.959 0 01-.616.102 2.08 2.08 0 01-.633-.049 1.655 1.655 0 01-.319-.087 2.66 2.66 0 01-.434-.249 2.141 2.141 0 01-.349-.342 2.921 2.921 0 01-.172-.272 2.33 2.33 0 01-.22-.559c-.02-.092-.043-.181-.063-.272l-.034-.289a1.27 1.27 0 01-.006-.278l.023-.275c.008-.09.016-.181.022-.275a.792.792 0 00.026-.136.858.858 0 01.025-.137c.014-.048.024-.091.034-.13l.032-.128a.836.836 0 01.048-.131 1.259 1.259 0 00.068-.184 1.72 1.72 0 01.02-.065l.01-.028.023-.031.022-.059.195-.47.389-.926a27.576 27.576 0 00.363-.924c.065-.166.123-.324.181-.476.056-.15.111-.307.165-.473.014-.048.028-.077.046-.09l.026-.128a.23.23 0 00.023-.086.21.21 0 01.025-.087l.031-.088c0-.009.001-.017.005-.022.004-.004.004-.017.003-.035l.01-.03.013-.015.01-.015c.117-.274.31-.466.582-.573.27-.107.544-.099.819.027.266.117.451.31.559.581.106.272.102.544-.013.819l-.001-.014-.014.001c.001.019-.001.028-.01.029a.128.128 0 01-.017.038.139.139 0 00-.015.036l-.02.079a.474.474 0 01-.032.08c-.042.118-.07.236-.082.359-.03.134-.045.257-.04.367a2.82 2.82 0 00.017.376.908.908 0 00.017.193c.013.063.027.127.044.19l.05.189c.018.063.04.127.066.189a.233.233 0 00.039.092l.021.054.002.013v.013l.017.013.057.132a.537.537 0 00.07.118l.115.264c.04.09.073.177.102.267.068.178.127.365.173.56.046.195.082.397.108.608.002.018.005.06.008.125s.006.106.008.124l1.225-1.991c.063-.109.158-.138.284-.088zm-2.88 2.386a1.194 1.194 0 00-.043-.357 11.568 11.568 0 00-.051-.196 2.32 2.32 0 00-.067-.195 1.71 1.71 0 00-.17-.371 2.213 2.213 0 00-.213-.378.924.924 0 00-.052-.092l-.034-.052-.036-.051-.001-.014-.016-.012-.017-.027-.036-.065a.86.86 0 01-.085-.13 2.25 2.25 0 01-.15-.261c-.043-.086-.09-.179-.14-.275-.038-.099-.076-.196-.11-.294a7.402 7.402 0 01-.1-.295 2.178 2.178 0 01-.07-.306 8.366 8.366 0 00-.059-.307l-.017-.137-.282.788c-.054.165-.11.322-.166.474-.056.15-.112.309-.166.473l-.151.479-.028.116a.209.209 0 00-.013.057.5.5 0 01-.014.057.569.569 0 00-.057.231 2.225 2.225 0 00-.07.454c-.009.161-.005.314.013.461 0 .074.005.145.02.213.012.068.028.139.046.21.026.072.051.141.074.209.022.066.05.131.085.191a.786.786 0 00.097.17c.04.051.08.098.123.139a.728.728 0 00.139.109l.15.094c.048.022.1.036.153.043.05.008.106.019.163.03a.963.963 0 00.373-.031.982.982 0 00.363-.114 1.173 1.173 0 00.3-.175.922.922 0 00.285-.523.82.82 0 00.023-.156c.004-.057.005-.119.007-.184z" fill="#3D1210"/><path d="M100.44 97.161a.196.196 0 01.15.052.206.206 0 01.076.152.19.19 0 01-.05.158.272.272 0 01-.139.08l-6.156.716a.22.22 0 01-.022.071 15.146 15.146 0 01-.282.929l-.31.936c-.105.311-.217.619-.34.926a65.166 65.166 0 01-.352.935l-.091.236c-.03.082-.065.161-.105.239l-.091.231-.047.114-.021.071a.081.081 0 00-.024.058c-.01 0-.014.005-.013.014a.702.702 0 01.002.105 8.435 8.435 0 00.027.561c.012.147.025.294.036.442a8.82 8.82 0 00.309 1.671c.095.242.204.446.33.612a.783.783 0 00.196.178.613.613 0 00.23.091c.02.008.044.01.071.009a.138.138 0 01.07.008l.137-.013c.092-.017.192-.052.297-.108a1.79 1.79 0 00.147-.081.569.569 0 00.142-.124 1.28 1.28 0 00.148-.138c.046-.049.091-.101.135-.15a7.385 7.385 0 00.262-.343c.042-.059.08-.119.116-.184l.116-.196a3.2 3.2 0 00.108-.197c.033-.064.064-.129.095-.196.04-.078.074-.149.1-.217l.087-.216.171-.432c.016-.038.03-.074.04-.108.01-.032.023-.069.039-.107l.032-.114.01-.057.025-.043-.001-.014a.274.274 0 01.137-.172.286.286 0 01.22-.026.292.292 0 01.157.119c.037.057.05.123.037.199l-.007.07-.01.057a.385.385 0 01-.017.126 1.402 1.402 0 01-.017.119 1.767 1.767 0 00-.019.121c-.01.083-.026.166-.048.247-.021.08-.042.164-.061.249a9.76 9.76 0 00-.065.235l-.063.249-.168.473-.21.476a8.47 8.47 0 01-.266.468c-.05.078-.102.152-.156.221a5.076 5.076 0 01-.183.223 7.53 7.53 0 01-.205.206 2.06 2.06 0 01-.233.193c-.174.135-.37.232-.588.287a.672.672 0 01-.163.048c-.054.009-.11.02-.164.035l-.165.014a1.085 1.085 0 01-.18 0l-.17-.012a1.005 1.005 0 01-.168-.029 1.572 1.572 0 01-.343-.109 1.721 1.721 0 01-.322-.169 2.97 2.97 0 01-.99-1.196 1.29 1.29 0 01-.06-.126 4.109 4.109 0 00-.06-.128.967.967 0 01-.104-.254 4.173 4.173 0 01-.169-.515 7.6 7.6 0 01-.234-1.023 11.356 11.356 0 01-.106-1.021 24.093 24.093 0 01-.03-2c.027-.66.082-1.323.165-1.989.02-.113.036-.227.055-.344l.052-.36-5.19.62a.7.7 0 01-.513-.152.681.681 0 01-.263-.464.653.653 0 01.146-.506.636.636 0 01.46-.254l.053-.004 5.525-.301.02-.091a13.22 13.22 0 01.278-1.068c.098-.318.204-.635.317-.95.06-.165.125-.322.196-.476.07-.155.145-.31.224-.464.04-.08.085-.154.134-.227.05-.075.1-.15.147-.23a3.404 3.404 0 01.325-.445l.198-.203a6.6 6.6 0 01.212-.206c.045-.03.087-.063.126-.094l.124-.095c.044-.021.094-.046.147-.074a1.357 1.357 0 01.33-.133 1.48 1.48 0 01.198-.03l.028-.001.027-.004h.014c.01-.001.014.004.015.013l.013-.001a.378.378 0 01.113.004c.046.005.117.023.213.051a.36.36 0 01.116.06c.03.026.06.052.09.076.05.051.101.107.152.169.055.107.097.218.127.337a.706.706 0 01.025.144l.012.145a.63.63 0 00-.001.13.821.821 0 01-.003.134 5.81 5.81 0 00-.026.266 4.184 4.184 0 01-.125.748 2.574 2.574 0 00-.017.113c-.006.038-.017.08-.031.128a.456.456 0 00-.025.12.694.694 0 01-.025.121c-.034.16-.071.315-.114.469-.042.151-.086.306-.127.47l-.127.469-.065.227-.061.243 5.869-.303zm-7.158 1.872a7.5 7.5 0 01.148-.313c.052-.1.1-.204.147-.31l-.578.062c-.03.187-.059.378-.085.57a16.98 16.98 0 01-.083.57 1.788 1.788 0 00-.026.183c-.005.056-.01.117-.013.182.09-.156.173-.312.253-.466.08-.154.158-.314.237-.478zm.23-3.038c-.071.247-.136.5-.192.76a33.21 33.21 0 00-.163.787l.788-.053a.695.695 0 00.033-.1.917.917 0 01.034-.1 16.81 16.81 0 00.555-1.827.56.56 0 00.033-.115.522.522 0 01.03-.114l.02-.113.018-.113c.012-.074.022-.15.03-.231.007-.079.017-.156.029-.233.016-.14.017-.288.003-.444a.713.713 0 00-.016-.104.673.673 0 01-.015-.102 2.67 2.67 0 00-.057-.176.217.217 0 00-.063-.107l-.028.003v.014l-.012.014h-.014l-.014.002.001.014H94.5a1.055 1.055 0 00-.32.403 1.04 1.04 0 01-.042.087 1.06 1.06 0 00-.082.174 7.149 7.149 0 00-.147.402 1.822 1.822 0 00-.08.201l-.067.215c-.043.143-.084.286-.123.429-.04.142-.082.284-.126.427zm10.385 8.498a.198.198 0 01-.01.055.264.264 0 00-.011.056c-.018.165-.012.322.016.473.016.074.034.145.059.212.023.065.052.126.086.183a.689.689 0 00.248.292.595.595 0 00.147.105c.027.011.077.029.15.05a.76.76 0 00.165.023l.181.01h.013v-.014l.014.002h.014l.056.003c.019-.008.032-.013.042-.011a.134.134 0 00.043-.012l.083-.023.086-.024.143-.075a.768.768 0 00.144-.102c.039-.026.087-.065.145-.117a.512.512 0 01.066-.073.506.506 0 00.067-.072.996.996 0 00.126-.168l.115-.181a1.56 1.56 0 01.062-.1l.06-.1c.02-.037.039-.07.054-.102l.056-.114c.031-.073.065-.145.102-.217a10.66 10.66 0 00.287-.7c.061-.157.118-.32.174-.482l.151-.492c.023-.082.048-.164.075-.245a3.33 3.33 0 00.078-.26.512.512 0 00.042-.123c.006-.036.016-.078.028-.122a.67.67 0 00.042-.13c.006-.042.016-.085.028-.131l.069-.26.07-.26.294-1.052.14-.52c.047-.173.098-.35.155-.532.055-.183.114-.362.175-.54.06-.176.128-.355.202-.536.076-.181.153-.362.232-.543.079-.18.174-.361.286-.54a.607.607 0 01.077-.121.474.474 0 01.076-.135c.02-.036.051-.08.091-.133a.197.197 0 00.045-.066.17.17 0 01.046-.068l.089-.12c.02-.027.037-.05.052-.073a.569.569 0 01.051-.06l.223-.237.109-.119c.035-.035.077-.07.124-.105.05-.043.093-.08.132-.11.038-.03.082-.063.13-.097a2.517 2.517 0 01.587-.315c.199-.09.4-.148.605-.174.215-.035.414-.046.6-.036.156.008.23.087.223.233a.225.225 0 01-.109.19c-.076.05-.15.1-.222.146a4.008 4.008 0 00-.21.148 2.098 2.098 0 00-.365.328 3.02 3.02 0 00-.525.735 4.716 4.716 0 00-.34.87 5.432 5.432 0 00-.144.477c-.042.164-.085.33-.131.493l-.265 1.026c-.046.173-.091.347-.133.521-.042.173-.091.35-.148.534l-.139.532a5.239 5.239 0 01-.169.532c-.012.046-.023.09-.035.13l-.034.13-.086.273a.898.898 0 00-.049.137.622.622 0 01-.048.135.563.563 0 00-.043.136.577.577 0 01-.042.138l-.196.53a4.349 4.349 0 00-.112.265 3.565 3.565 0 01-.111.264l-.238.529c-.051.09-.098.18-.139.27-.043.09-.09.177-.139.257l-.154.261-.154.262c-.029.046-.06.087-.089.127-.03.04-.06.082-.089.127a1.58 1.58 0 01-.098.127c-.035.04-.068.082-.098.126a17.511 17.511 0 00-.222.252 1.477 1.477 0 01-.118.119l-.131.118a1.61 1.61 0 01-.137.11c-.043.029-.09.066-.138.109a1.421 1.421 0 01-.151.096c-.053.029-.108.062-.166.096a2.28 2.28 0 01-.719.238c-.067.014-.13.024-.191.025-.06 0-.122.005-.187.009l-.18-.009a.188.188 0 01-.082-.018l-.056-.004h-.014l-.014-.001h-.012l-.179-.039a1.6 1.6 0 01-.178-.051.932.932 0 01-.352-.157 3.978 3.978 0 01-.307-.212 1.245 1.245 0 01-.138-.147 5.076 5.076 0 00-.124-.145 1.926 1.926 0 01-.297-.655 2.372 2.372 0 01-.032-.668 2.083 2.083 0 01.339-.884 1.6 1.6 0 01.206-.224c.078-.051.151-.048.223.012.052.059.059.11.018.153v.014a.56.56 0 00-.048.108.838.838 0 01-.048.124.317.317 0 01-.01.062.198.198 0 00-.011.058zm12.781-8.526c.129.34.206.704.23 1.095.036.37.005.75-.089 1.133a3.275 3.275 0 01-.162.54c-.07.175-.145.345-.229.508l-.152.233c-.051.076-.1.15-.151.22a2.12 2.12 0 01-.355.41 1.325 1.325 0 01-.192.191c-.068.057-.136.116-.204.176l-.216.155-.216.154a3.591 3.591 0 01-.444.247c-.153.07-.309.137-.469.202a3.72 3.72 0 01-.481.161c-.159.043-.32.083-.479.121a4.776 4.776 0 01-.469.084c-.153.019-.31.034-.467.044a7.33 7.33 0 01-1.854-.088c-.156-.027-.221-.115-.195-.26.025-.119.099-.186.22-.196a6.449 6.449 0 001.681-.283c.262-.07.517-.165.765-.291.258-.134.482-.275.675-.422.212-.154.402-.324.57-.51l.058-.072a.734.734 0 00.061-.073.579.579 0 00.058-.066l.061-.081c.029-.045.061-.091.097-.141.035-.048.068-.1.099-.154.253-.412.42-.822.497-1.235a2.25 2.25 0 00.063-.635 6.93 6.93 0 00-.017-.314 2.982 2.982 0 00-.246-.964.381.381 0 01-.037-.078.354.354 0 00-.036-.079c-.027-.047-.056-.1-.09-.157a2.557 2.557 0 00-.192-.303 2.666 2.666 0 00-.51-.555 4.485 4.485 0 00-1.012-.652 17.353 17.353 0 00-.373-.16 4.754 4.754 0 00-.395-.147 6.91 6.91 0 00-.41-.12 5.277 5.277 0 00-.409-.113c-.138-.03-.275-.06-.413-.086a5.803 5.803 0 00-.213-.032 3.085 3.085 0 01-.213-.033l-.443-.024-.429-.023a1.696 1.696 0 01-.216 0 1.623 1.623 0 00-.216.004l-.431.031-.433.033a7.96 7.96 0 00-.848.16 5.17 5.17 0 00-.813.275 6.132 6.132 0 00-.758.388c-.114.078-.228.16-.34.246-.11.087-.219.178-.327.274-.186.193-.36.411-.521.652a3.664 3.664 0 00-.306.76l-.033.206a4.38 4.38 0 00-.017.193l-.002.055-.001.043-.007.097c.008.036.01.07.008.103a.27.27 0 00.009.092c.022.27.077.522.167.759a4.7 4.7 0 00.337.67c.137.212.298.405.482.583.043.048.09.09.139.124.049.036.096.073.139.112l.155.113c.047.035.1.068.153.099.107.08.215.14.323.184.027.02.054.034.082.038a.24.24 0 01.08.04.474.474 0 00.096.032l.012.016.028.002.041.015a.775.775 0 01.422.412.713.713 0 01.009.569.767.767 0 01-.981.433l-.081-.046-.054-.031-.026-.016-.028-.015a.54.54 0 01-.12-.062c-.038-.02-.073-.044-.109-.068a1.14 1.14 0 00-.107-.069c-.072-.05-.14-.1-.206-.151-.067-.049-.136-.1-.208-.149a4.544 4.544 0 01-.198-.178 31.609 31.609 0 00-.185-.177 12.39 12.39 0 01-.176-.197 3.907 3.907 0 01-.683-1.085 6.667 6.667 0 01-.175-.482 3.525 3.525 0 01-.119-.491 6.563 6.563 0 01-.034-.509c-.004-.171.007-.34.034-.505l.056-.247a.302.302 0 01.009-.054.216.216 0 00.011-.056l.017-.068.017-.055a3.978 3.978 0 01.163-.462c.074-.153.149-.3.226-.44.077-.138.165-.27.266-.395.17-.24.376-.468.619-.686.108-.114.223-.218.343-.308a5.9 5.9 0 01.383-.264 5.662 5.662 0 011.678-.74 5.9 5.9 0 01.444-.122c.145-.033.294-.063.441-.093.291-.05.593-.088.909-.117l.224-.016.223-.016.459-.016c.074-.004.15-.005.228-.002.079.005.155.004.229 0a3.742 3.742 0 00.46-.004l.456.026c.148.008.3.02.456.039.156.018.313.038.469.06.157.024.311.057.466.102.156.028.309.066.458.117.151.049.302.101.456.156.3.119.597.26.893.425.28.144.56.335.844.573.072.05.138.107.198.17.062.064.128.126.198.186a.57.57 0 00.085.1.851.851 0 01.085.102c.034.04.065.076.091.11.026.034.051.07.077.108.22.285.396.608.533.978zm4.5 9.282a7.47 7.47 0 01-.233.445l-.246.431a9.512 9.512 0 01-.287.422 5.27 5.27 0 01-.327.405c-.05.071-.107.138-.17.198-.064.062-.13.124-.199.184l-.223.175a2.474 2.474 0 01-.807.408 1.537 1.537 0 01-.323.065.24.24 0 01-.083.009.323.323 0 00-.086.009l-.081-.004-.042-.001-.014-.002h-.014l-.027-.001a1.291 1.291 0 01-.801-.35l-.13-.147a1.14 1.14 0 01-.205-.294 5.34 5.34 0 00-.075-.151 2.333 2.333 0 01-.069-.143c-.021-.046-.038-.095-.055-.141a2.277 2.277 0 00-.048-.134c-.016-.044-.033-.088-.048-.135a6.626 6.626 0 01-.062-.275 4.31 4.31 0 01-.046-.273 6.991 6.991 0 01-.109-1.033 8.51 8.51 0 010-1.014l.027-.497a2.08 2.08 0 00.026-.249c.005-.084.014-.161.028-.235a.922.922 0 01.014-.137c.008-.047.012-.092.016-.138-.005-.102.01-.212.044-.331.031-.23.066-.454.107-.674.04-.221.081-.445.121-.674.128-.641.278-1.273.451-1.897a21.1 21.1 0 01.617-1.874 8.97 8.97 0 01.383-.91 5.97 5.97 0 00.096-.23 1.98 1.98 0 01.109-.23 1.93 1.93 0 00.11-.224 1.86 1.86 0 01.11-.222 6.37 6.37 0 01.546-.871 4.61 4.61 0 01.711-.795l.109-.097a.632.632 0 01.122-.085c.039-.034.078-.065.116-.09.039-.026.083-.051.128-.078l.144-.074a.726.726 0 01.156-.062c.105-.05.217-.08.339-.093a.528.528 0 01.104-.008l.091.005.095.007h.014l.014.001.028.001c.018 0 .032.006.042.016a.652.652 0 01.217.068c.063.03.13.076.201.136.026.03.049.06.071.095l.057.092a.626.626 0 01.072.186c.031.103.045.21.039.321.003.102-.001.196-.015.283a3.144 3.144 0 01-.056.253c-.025.092-.044.177-.063.254a5.083 5.083 0 01-.062.24 1.867 1.867 0 01-.082.237c-.032.078-.06.153-.082.226a.464.464 0 00-.042.122.375.375 0 01-.04.11l-.096.23c-.056.155-.113.304-.171.448-.059.145-.119.295-.184.448-.031.073-.064.145-.094.217a8.947 8.947 0 00-.096.218l-.192.446a39.81 39.81 0 01-.804 1.746 43.302 43.302 0 01-.887 1.742c-.082.143-.162.287-.239.431-.078.143-.156.288-.238.431a1.35 1.35 0 00-.13.223 3.936 3.936 0 01-.118.222l-.135.215-.062.107a.543.543 0 00-.02.11.714.714 0 01-.02.125 1.64 1.64 0 00-.026.227 1.96 1.96 0 01-.027.227 4.216 4.216 0 00-.034.221 2.384 2.384 0 01-.033.22c-.018.156-.032.306-.044.448a11.57 11.57 0 00-.033.45l-.023.43a2.68 2.68 0 00.005.429l.009.209c0 .065.008.131.023.196.016.066.027.127.039.182a.97.97 0 00.04.155c.015.066.03.108.047.128.008.046.02.076.038.085.016.02.026.034.026.043l.026.016h.014l.041.003.07.003a.603.603 0 00.153-.005c.074-.004.178-.037.31-.094.122-.057.233-.121.33-.19.057-.044.116-.084.173-.123.057-.038.111-.078.159-.123a5.159 5.159 0 00.607-.645c.097-.116.192-.235.282-.361.089-.124.176-.248.257-.374.049-.061.092-.125.128-.187.035-.063.078-.13.13-.2l.053-.102c.016-.031.033-.065.055-.101l.06-.094.047-.094.016-.014a.295.295 0 01.166-.142.252.252 0 01.214.025c.143.082.188.201.134.354l-.017.055-.018.069a.746.746 0 00-.048.108c-.02.045-.038.083-.048.116-.011.031-.026.07-.048.115l-.19.445zm-2.268-5.718a2.786 2.786 0 00-.068.232 3.52 3.52 0 00.226-.307c.071-.107.14-.209.212-.308a19.55 19.55 0 00.962-1.625c.289-.549.556-1.117.802-1.705a.805.805 0 00.048-.101l.034-.117a.696.696 0 00.046-.101c.011-.031.023-.07.034-.116.023-.073.044-.145.068-.218a1.91 1.91 0 00.054-.22 2.04 2.04 0 00.054-.218 2.04 2.04 0 00.025-.222l.012-.206a.387.387 0 01-.008-.105.167.167 0 00-.023-.091.347.347 0 00-.048-.14c.002-.02-.008-.03-.026-.03 0-.01-.001-.014-.006-.014-.005-.001-.008.003-.008.012v.014h-.014l-.016.013h-.014l-.013.012c-.01 0-.025.008-.044.026-.036.007-.071.033-.101.078-.019.017-.039.034-.057.052-.02.017-.041.034-.059.053a7.873 7.873 0 00-.099.147 2.423 2.423 0 01-.113.16l-.187.363c-.031.073-.063.14-.094.196a2.952 2.952 0 00-.093.197c-.023.072-.049.14-.082.204-.031.063-.061.13-.094.202l-.175.408c-.117.28-.226.563-.324.85l-.297.864c-.19.59-.361 1.177-.514 1.761z" fill="#3D1210"/><path d="M126.921 108.734c-.107.096-.21.166-.309.208a.875.875 0 01-.182.1c-.07.026-.144.049-.22.066a.895.895 0 01-.244.036.047.047 0 01-.029.009l-.041-.006-.013-.001-.014-.004-.001.014-.028-.003a.14.14 0 00-.05 0 1.569 1.569 0 01-.46-.059 4.41 4.41 0 01-.215-.066 1.16 1.16 0 01-.223-.108 1.471 1.471 0 01-.388-.322 1.532 1.532 0 01-.262-.416 1.242 1.242 0 01-.135-.426 1.795 1.795 0 01-.071-.388 1.029 1.029 0 01-.008-.19c.004-.06.006-.122.006-.187a1.9 1.9 0 01.02-.334 1.584 1.584 0 01-.073.116l-.071.102-.142.21a1.979 1.979 0 01-.156.208 2.892 2.892 0 01-.337.401c-.065.065-.13.128-.195.189-.065.06-.139.122-.222.185a1.175 1.175 0 01-.124.08c-.04.022-.087.048-.138.079a2.83 2.83 0 01-.31.122 1.854 1.854 0 01-.16.034.967.967 0 01-.183.016c-.009-.002-.017 0-.022.005-.006.003-.017.003-.035.001l-.014-.001-.028-.005-.013-.002-.027-.005-.042-.006a.24.24 0 01-.098-.006.44.44 0 00-.094-.02 3.327 3.327 0 01-.174-.06 1 1 0 01-.183-.09 1.05 1.05 0 01-.298-.266.938.938 0 01-.193-.309.947.947 0 01-.076-.164 3.392 3.392 0 01-.046-.161 1.749 1.749 0 01-.061-.303 5.217 5.217 0 01-.021-.296 2.175 2.175 0 01.005-.28c.009-.092.016-.183.018-.277l.039-.269a2.41 2.41 0 01.052-.264 7.55 7.55 0 01.121-.509c.048-.165.103-.332.164-.502.051-.161.111-.32.181-.478.068-.157.137-.317.207-.474.169-.331.338-.637.51-.921.096-.145.196-.289.3-.433.105-.143.217-.286.341-.428a4.5 4.5 0 01.395-.405l.222-.186c.074-.059.154-.12.236-.182.147-.11.33-.215.549-.314.19-.094.415-.16.672-.198.126-.029.254-.04.384-.035.13.003.259.015.387.034.244.054.485.139.719.256.19.103.382.237.572.404.04.043.079.085.116.122.037.039.071.079.102.121a.838.838 0 01.109.112.08.08 0 01.046.063l.049.048a.941.941 0 01.208.702.937.937 0 01-.343.638.988.988 0 01-.7.2.834.834 0 01-.623-.348.07.07 0 01-.03-.033.085.085 0 00-.03-.032l-.01-.03-.012-.015-.023-.031c-.008-.021-.014-.033-.023-.039a.118.118 0 01-.025-.025l-.094-.124a1.485 1.485 0 00-.199-.183.683.683 0 00-.089-.054.288.288 0 00-.08-.026.665.665 0 00-.192-.027.46.46 0 00-.26.047.968.968 0 00-.297.126 1.82 1.82 0 00-.318.213l-.309.257a8.211 8.211 0 00-.289.301 5.186 5.186 0 00-.533.694c-.079.125-.16.245-.241.365-.16.267-.296.531-.408.796a4.51 4.51 0 00-.315.823 1.053 1.053 0 00-.063.199 2.43 2.43 0 01-.051.204l-.029.206c-.01.063-.014.133-.016.207a1.218 1.218 0 00-.013.187c0 .062.007.116.019.164a.706.706 0 00.056.198c.005.015.013.032.019.051a.302.302 0 01.061.065l.078.04c.01.001.015.004.02.009.003.007.014.009.033.012l.014.002.013.001.014.001.014.004a.51.51 0 00.127-.011.682.682 0 00.31-.109c.052-.039.106-.076.162-.11a.96.96 0 00.165-.122l.161-.145c.053-.048.107-.102.163-.159l.3-.335c.091-.117.183-.24.277-.366.092-.127.185-.259.279-.394.165-.237.329-.504.493-.798l.075-.135c.025-.048.049-.093.076-.136.031-.089.059-.155.083-.198l.048-.141c.017-.048.039-.099.065-.151a6.19 6.19 0 00.062-.145l.04-.079a.133.133 0 00.019-.039.088.088 0 01.02-.039l.003-.027a.983.983 0 01.565-.479.947.947 0 01.744.049.936.936 0 01.494.555.942.942 0 01-.051.742.214.214 0 00-.039.079l-.035.049-.036.051-.059.119-.064.116-.067.116-.117.237c-.04.077-.079.16-.121.248a1.95 1.95 0 01-.104.236 2.486 2.486 0 00-.105.251c-.017.045-.03.085-.046.121-.013.035-.029.074-.044.119l-.076.241a2.346 2.346 0 00-.122.459.384.384 0 00-.03.205c-.014.091-.018.156-.014.195a.51.51 0 00.008.14.212.212 0 01.016.087c.006.02.022.045.045.076a.444.444 0 00.088.07.533.533 0 00.16.051.054.054 0 01.04.018l.014.003.014.002-.014-.002.014.002.04.006a.24.24 0 01.071-.011.214.214 0 00.088-.023c.03-.014.061-.027.09-.043a.854.854 0 01.103-.04 1.571 1.571 0 00.407-.293c.146-.109.284-.225.414-.348l.204-.2c.07-.07.133-.138.19-.204l.098-.099c.032-.033.066-.07.1-.112a.897.897 0 00.184-.212c.034-.042.068-.079.1-.111a.57.57 0 00.087-.115.903.903 0 00.183-.21c.034-.041.065-.08.093-.112.027-.035.059-.071.092-.113l.087-.114.087-.113.001-.014a.303.303 0 01.151-.077.215.215 0 01.162.036c.101.08.126.173.073.277l-.037.065-.039.079-.062.131a1.987 1.987 0 00-.066.13 1.455 1.455 0 01-.068.13l-.074.13a5.526 5.526 0 00-.076.13 2.766 2.766 0 01-.148.258l-.074.129c-.025.044-.049.087-.075.13a2.497 2.497 0 01-.08.129c-.03.041-.058.085-.082.128l-.175.247c-.059.081-.117.164-.177.249a6.054 6.054 0 01-.406.487c-.119.15-.28.3-.479.449z" fill="#3D1210"/><path d="M128.224 107.729a2.032 2.032 0 01-.02-.413c.009-.14.02-.273.036-.403.034-.266.095-.518.188-.755l.063-.178c.02-.057.04-.113.06-.165.03-.06.057-.118.082-.175.026-.055.053-.109.081-.16.06-.111.117-.218.174-.319.058-.101.119-.204.187-.303.274-.398.571-.765.889-1.098.091-.077.179-.155.264-.232.085-.078.173-.154.263-.232.092-.075.183-.148.275-.215.093-.066.192-.127.297-.183.098-.066.203-.125.317-.179.094-.048.203-.097.325-.148.228-.107.46-.189.696-.246.249-.066.509-.1.784-.104l.026.005.014.003.015-.01.014.002.014.002.014.003a.21.21 0 00.056.003c.018 0 .036.002.055.005.036.006.073.012.11.014a.336.336 0 01.108.027c.082.016.16.039.233.066.076.03.152.061.23.095a.845.845 0 00.115.063.589.589 0 01.1.062.85.85 0 01.111.085c.031.031.063.057.096.083.065.059.122.124.174.195.053.073.104.145.154.221a2.417 2.417 0 01.208.464c.021.08.042.159.06.238.017.079.028.156.032.232a2.95 2.95 0 01-.05.922 3.405 3.405 0 01-.348.851c-.158.28-.369.521-.635.723a2.453 2.453 0 01-.448.282 2.68 2.68 0 01-.244.092.53.53 0 01-.136.045c-.011.008-.022.011-.03.009-.01-.003-.02 0-.031.008l-.043.007-.014-.004-.015.011a.905.905 0 01-.714-.173 1.011 1.011 0 01-.4-.636c-.029-.24.019-.461.143-.664a.987.987 0 01.519-.422l.014.003.016-.011.017-.01c.021-.016.037-.022.046-.02l.098-.065c.078-.06.148-.136.213-.227.067-.1.124-.207.175-.32.049-.113.086-.227.109-.347.019-.098.025-.2.018-.305a.652.652 0 00-.079-.256.36.36 0 00-.051-.06c-.02-.018-.044-.039-.067-.062a.685.685 0 00-.086-.058c-.019-.005-.031-.011-.039-.022l-.014-.003-.014-.003-.01-.015-.026-.007a1.348 1.348 0 00-.496-.137 1.035 1.035 0 00-.258.02 3.338 3.338 0 01-.139.023 1.901 1.901 0 00-.262.076 1.492 1.492 0 00-.139.065c-.042.019-.082.042-.119.061a3.08 3.08 0 00-.121.076 2.702 2.702 0 00-.82.816 3.738 3.738 0 00-.304.505 4.622 4.622 0 00-.222.537c-.063.176-.11.357-.14.544a6.744 6.744 0 00-.073.557c-.006.178-.005.348.006.51.013.162.042.314.09.455a1.641 1.641 0 00.14.366c.066.098.134.181.206.252.071.07.159.128.262.178.05.027.107.055.167.081.06.025.125.054.195.087l.11.021.01.016.014.003.026.005.014.003.027.005.027.006.231.045.259.049c.048 0 .089.004.124.011a4.167 4.167 0 00.685-.003 5.68 5.68 0 00.574-.079l.147-.028.147-.029c.048-.009.096-.021.14-.036.045-.013.093-.031.144-.05.099-.027.198-.058.294-.092.096-.032.19-.068.281-.107a6.71 6.71 0 00.574-.228c.191-.086.376-.177.555-.274.052-.027.124-.073.216-.134.092-.063.164-.107.216-.135.053-.028.101-.059.145-.092.044-.035.093-.063.145-.092a1.972 1.972 0 01.271-.159l.126-.074.065-.046.065-.043.014.001c.054-.035.105-.045.154-.032.05.014.089.044.118.085.051.077.044.161-.021.251l-.054.06-.055.06-.061.067a.477.477 0 01-.06.051c-.036.04-.075.08-.115.119-.04.04-.079.078-.114.118a2.283 2.283 0 00-.242.223c-.044.038-.112.1-.205.185a4.902 4.902 0 01-.204.187c-.34.292-.697.557-1.072.795a7.96 7.96 0 00-.287.178 4.283 4.283 0 01-.304.174l-.149.084c-.048.027-.097.057-.15.083a2.043 2.043 0 01-.157.076 3.69 3.69 0 00-.156.076.25.25 0 01-.077.035.252.252 0 00-.078.034 1.1 1.1 0 00-.084.04c-.026.014-.054.026-.086.04a.95.95 0 01-.162.066c-.053.019-.112.04-.174.067a3.487 3.487 0 01-.702.202c-.06.017-.122.031-.185.042-.063.011-.128.02-.195.027-.068.004-.133.01-.195.018l-.195.019a1.31 1.31 0 01-.198.005 12.866 12.866 0 00-.196-.011c-.026-.004-.046-.003-.057.003l-.055-.009-.027-.007-.013-.001-.013-.004-.014-.003-.03.009-.204-.04a4.7 4.7 0 01-.419-.101 2.083 2.083 0 01-.417-.174 3.133 3.133 0 01-.405-.247 2.488 2.488 0 01-.36-.323 2.458 2.458 0 01-.509-.805 1.947 1.947 0 01-.142-.436 10.89 10.89 0 01-.067-.435z" fill="#3D1210"/><path d="M143.826 109.735c-.105.078-.21.157-.314.237l-.315.237c-.216.147-.437.291-.661.432a7.87 7.87 0 01-.707.391 5.903 5.903 0 01-.755.344c-.255.11-.519.203-.795.278a4.87 4.87 0 01-1.329.248 3.125 3.125 0 01-.235-.006 5.994 5.994 0 00-.247-.011.972.972 0 01-.235-.028l-.243-.059a2.369 2.369 0 01-.499-.179 1.707 1.707 0 01-.471-.286 2.204 2.204 0 01-.227-.182 2.399 2.399 0 01-.532-.686 2.746 2.746 0 01-.122-.265 4.841 4.841 0 01-.093-.257 1.722 1.722 0 01-.065-.259 3.27 3.27 0 01-.039-.78 2.33 2.33 0 01.05-.473c.034-.153.072-.306.118-.456a4.764 4.764 0 01.343-.829c.275-.504.61-.965 1.006-1.382.094-.109.19-.211.288-.307.1-.095.203-.186.309-.274.107-.088.214-.174.321-.258a3.51 3.51 0 01.343-.239c.057-.043.119-.082.186-.118.065-.036.126-.071.182-.105.065-.032.128-.062.193-.088a4.604 4.604 0 01.609-.251 4.2 4.2 0 01.894-.189 4.64 4.64 0 01.236 0l.248.003c.086.001.171.01.258.026.087.017.171.045.258.085.087.031.176.067.266.107.089.042.179.096.267.166.183.139.33.298.439.477.12.172.205.373.253.603.043.21.064.404.057.584a3.822 3.822 0 01-.09.548 3.137 3.137 0 01-.162.488 2.416 2.416 0 01-.117.221c-.04.071-.079.141-.115.209a5.571 5.571 0 01-.288.4c-.104.127-.22.246-.351.357-.114.115-.249.22-.405.315-.152.115-.315.2-.49.252a2.475 2.475 0 01-.282.102.23.23 0 00-.074.011l-.043.005c-.011.006-.022.007-.029.006a1.05 1.05 0 01-.119.014c-.147.022-.3.027-.459.017a3.08 3.08 0 01-.946-.158l-.232-.1a1.389 1.389 0 01-.109-.054 1.32 1.32 0 01-.103-.069 1.982 1.982 0 01-.384-.307.754.754 0 01-.154-.179.364.364 0 01-.065-.088.587.587 0 01-.075-.104l-.095-.195a3.113 3.113 0 01-.093-.207c-.006-.011-.009-.022-.006-.031.002-.008 0-.018-.007-.03l-.052.215a2.57 2.57 0 00-.059.335 5.075 5.075 0 00-.028.314c-.006.103-.005.207.005.308.007.101.019.198.036.287.023.178.072.332.144.464a.75.75 0 00.099.18c.037.047.078.095.122.144a.578.578 0 00.135.125c.052.037.112.072.179.108.066.044.138.084.215.117.077.032.164.071.258.112.045.012.092.025.14.041.049.017.095.03.14.041a.825.825 0 00.297.072c.216.045.438.07.665.077.115-.001.229-.006.347-.015a4.589 4.589 0 00.705-.114l.341-.089a9.62 9.62 0 00.705-.228c.235-.086.465-.181.691-.289.054-.025.11-.05.167-.073.059-.025.116-.052.171-.087.054-.024.109-.053.171-.088.059-.032.118-.065.173-.1a3.76 3.76 0 01.248-.132c.107-.055.19-.099.246-.133.066-.042.12-.071.163-.09l.07-.054.085-.051c.111-.068.205-.049.286.056.06.1.049.188-.035.262l-.037.035-.038.034-.086.063a.936.936 0 01-.072.061 1.012 1.012 0 00-.072.061 2.467 2.467 0 01-.229.18l-.243.177zm-5.199-3.959a2.286 2.286 0 00-.217.277 9.326 9.326 0 00-.193.295c-.107.164-.201.36-.284.586l.009.017c.092.098.178.186.265.264.077.076.17.141.279.196.017.014.027.02.031.022.005.001.014.009.031.022a.11.11 0 01.039.017.097.097 0 00.038.017.234.234 0 00.072.031.231.231 0 01.071.03c.201.069.393.096.578.084a3.046 3.046 0 00.578-.089c.051-.015.1-.032.146-.049.048-.017.096-.034.148-.049a.136.136 0 01.031-.014.06.06 0 00.032-.014l.017-.009.018-.01a.093.093 0 00.04-.019.152.152 0 01.043-.033.614.614 0 00.079-.058l.082-.073a.68.68 0 00.176-.201c.062-.06.118-.13.165-.208.048-.08.092-.161.132-.246.019-.044.038-.084.057-.122a.605.605 0 00.045-.126.654.654 0 00.043-.117l.03-.121a.346.346 0 00.034-.113.698.698 0 01.018-.103.708.708 0 00.016-.096.4.4 0 01.009-.07.319.319 0 01.005-.077.123.123 0 00.001-.063.246.246 0 00-.014-.118.507.507 0 01-.038-.074.309.309 0 00-.067-.08.798.798 0 00-.202-.162.5.5 0 00-.135-.067 1.679 1.679 0 01-.136-.056.84.84 0 00-.296-.071c-.213-.023-.428 0-.645.071a1.317 1.317 0 00-.318.137c-.098.051-.193.11-.284.173a3.062 3.062 0 00-.529.469z" fill="#3D1210"/><path d="M104.912 127.929v-10.304l3.349 6.781-3.349 3.523z" fill="url(#paint62_linear_224_13563)"/><path d="M104.912 127.929v-10.304l-3.346 6.781 3.346 3.523z" fill="url(#paint63_linear_224_13563)"/><path d="M115.745 125.497l-10.833 2.433 3.349-3.524 7.484 1.091z" fill="url(#paint64_linear_224_13563)"/><path d="M94.08 125.497l10.833 2.433-3.346-3.524-7.487 1.091z" fill="url(#paint65_linear_224_13563)"/><path d="M111.608 138.227l-1.278-7.451-5.418-2.846 6.696 10.297z" fill="url(#paint66_linear_224_13563)"/><path d="M104.912 127.93v6.78l6.696 3.517-6.696-10.297z" fill="url(#paint67_linear_224_13563)"/><path d="M98.217 138.227l1.281-7.451 5.414-2.846-6.695 10.297z" fill="url(#paint68_linear_224_13563)"/><path d="M104.912 127.93v6.78l-6.695 3.517 6.695-10.297z" fill="url(#paint69_linear_224_13563)"/><path d="M115.745 125.496l-5.415 5.279-5.418-2.847 10.833-2.432z" fill="url(#paint70_linear_224_13563)"/><path d="M94.08 125.496l5.418 5.279 5.415-2.847-10.833-2.432z" fill="url(#paint71_linear_224_13563)"/><path d="M105.107 127.708l10.639-2.21-10.526 2.547 6.389 10.183-6.676-9.967-6.716 9.912 6.424-10.122-10.56-2.553 10.668 2.213.164-10.008.194 10.005z" fill="url(#paint72_radial_224_13563)"/><mask id="a" style="mask-type:alpha" maskUnits="userSpaceOnUse" x="94" y="124" width="18" height="15"><path d="M104.913 134.711l6.414 3.375a3.12 3.12 0 00.214-.254l-.368-2.126c-9.606-2.476-9.606-11.3-9.606-11.3l-7.487 1.091 5.418 5.28-1.281 7.451 6.696-3.517z" fill="url(#paint73_linear_224_13563)"/></mask><g mask="url(#a)"><path d="M104.913 134.711l6.414 3.375a3.12 3.12 0 00.214-.254l-.368-2.126c-9.606-2.476-9.606-11.3-9.606-11.3l-7.487 1.091 5.418 5.28-1.281 7.451 6.696-3.517z" fill="url(#paint74_linear_224_13563)"/></g><path d="M126.951 123.518v-6.534l2.121 4.303-2.121 2.231z" fill="url(#paint75_linear_224_13563)"/><path d="M126.951 123.518v-6.534l-2.127 4.303 2.127 2.231z" fill="url(#paint76_linear_224_13563)"/><path d="M133.821 121.977l-6.87 1.54 2.121-2.232 4.749.692z" fill="url(#paint77_linear_224_13563)"/><path d="M120.08 121.977l6.871 1.54-2.127-2.232-4.744.692z" fill="url(#paint78_linear_224_13563)"/><path d="M131.196 130.053l-.811-4.729-3.434-1.808 4.245 6.537z" fill="url(#paint79_linear_224_13563)"/><path d="M126.951 123.516v4.305l4.245 2.232-4.245-6.537z" fill="url(#paint80_linear_224_13563)"/><path d="M122.701 130.053l.812-4.729 3.437-1.808-4.249 6.537z" fill="url(#paint81_linear_224_13563)"/><path d="M126.95 123.516v4.305l-4.249 2.232 4.249-6.537z" fill="url(#paint82_linear_224_13563)"/><path d="M133.821 121.977l-3.436 3.347-3.434-1.808 6.87-1.539z" fill="url(#paint83_linear_224_13563)"/><path d="M120.08 121.977l3.434 3.347 3.437-1.808-6.871-1.539z" fill="url(#paint84_linear_224_13563)"/><path d="M127.072 123.377l6.749-1.401-6.676 1.617 4.051 6.46-4.235-6.324-4.258 6.284 4.071-6.417-6.694-1.62 6.764 1.404.107-6.349.121 6.346z" fill="url(#paint85_radial_224_13563)"/><mask id="b" style="mask-type:alpha" maskUnits="userSpaceOnUse" x="120" y="121" width="12" height="10"><path d="M126.951 127.822l4.067 2.139c.048-.05.091-.102.134-.157l-.232-1.355c-6.096-1.57-6.096-7.164-6.096-7.164l-4.744.692 3.434 3.347-.811 4.729 4.248-2.231z" fill="url(#paint86_linear_224_13563)"/></mask><g mask="url(#b)"><path d="M126.951 127.822l4.067 2.139c.048-.05.091-.102.134-.157l-.232-1.355c-6.096-1.57-6.096-7.164-6.096-7.164l-4.744.692 3.434 3.347-.811 4.729 4.248-2.231z" fill="url(#paint87_linear_224_13563)"/></g><path d="M82.875 123.518v-6.534l2.123 4.303-2.123 2.231z" fill="url(#paint88_linear_224_13563)"/><path d="M82.875 123.518v-6.534l-2.123 4.303 2.123 2.231z" fill="url(#paint89_linear_224_13563)"/><path d="M89.75 121.977l-6.875 1.54 2.123-2.232 4.751.692z" fill="url(#paint90_linear_224_13563)"/><path d="M76.006 121.977l6.87 1.54-2.123-2.232-4.747.692z" fill="url(#paint91_linear_224_13563)"/><path d="M87.122 130.053l-.81-4.729-3.437-1.808 4.247 6.537z" fill="url(#paint92_linear_224_13563)"/><path d="M82.875 123.516v4.305l4.247 2.232-4.247-6.537z" fill="url(#paint93_linear_224_13563)"/><path d="M78.63 130.053l.812-4.729 3.434-1.808-4.245 6.537z" fill="url(#paint94_linear_224_13563)"/><path d="M82.876 123.516v4.305l-4.245 2.232 4.245-6.537z" fill="url(#paint95_linear_224_13563)"/><path d="M89.75 121.977l-3.438 3.347-3.437-1.808 6.874-1.539z" fill="url(#paint96_linear_224_13563)"/><path d="M76.006 121.977l3.436 3.347 3.434-1.808-6.87-1.539z" fill="url(#paint97_linear_224_13563)"/><path d="M83 123.377l6.75-1.401-6.678 1.617 4.051 6.46-4.235-6.324-4.257 6.284 4.072-6.417-6.697-1.62 6.767 1.404.103-6.349.124 6.346z" fill="url(#paint98_radial_224_13563)"/><mask id="c" style="mask-type:alpha" maskUnits="userSpaceOnUse" x="76" y="121" width="12" height="10"><path d="M82.876 127.822l4.07 2.139c.045-.05.09-.102.134-.157l-.233-1.355c-6.094-1.57-6.094-7.164-6.094-7.164l-4.747.692 3.436 3.347-.811 4.729 4.245-2.231z" fill="url(#paint99_linear_224_13563)"/></mask><g mask="url(#c)"><path d="M82.876 127.822l4.07 2.139c.045-.05.09-.102.134-.157l-.233-1.355c-6.094-1.57-6.094-7.164-6.094-7.164l-4.747.692 3.436 3.347-.811 4.729 4.245-2.231z" fill="url(#paint100_linear_224_13563)"/></g><path d="M130.272 51.498c-1.521 1.777-3.042 2.897-3.78 2.84-.345-.024-1.097-.157-.983-1.68.358-4.741.065-4.741.457-20.093 0 0-4.614 8.567-9.519 18.992-.547 1.16-.916 2.102-1.758 2.102-.937 0-1.119-.748-1.583-2.064-1.888-5.344-8.371-20.773-8.379-20.751-.009-.022-6.495 15.407-8.382 20.75-.464 1.318-.641 2.065-1.58 2.065-.843 0-1.214-.942-1.761-2.102a440.384 440.384 0 00-9.518-18.992c.391 15.352.102 15.352.459 20.093.112 1.523-.638 1.656-.984 1.68-.74.056-2.258-1.062-3.78-2.84-5.468-6.372-10.083-9.874-10.083-9.874 5.508 16.062 7.697 22.308 7.697 22.308h55.86s2.194-6.246 7.699-22.308c-.001 0-4.612 3.502-10.082 9.874z" fill="url(#paint101_linear_224_13563)"/><mask id="d" style="mask-type:alpha" maskUnits="userSpaceOnUse" x="94" y="31" width="11" height="32"><path d="M104.617 31.984c-2.749 6.973-5.028 15.337-7.124 21.017-.36.967-2.208 3.106-2.659 3.344 1.832 4.077 2.73 6.438 2.73 6.438h7.052V31.984h.001z" fill="url(#paint102_linear_224_13563)"/></mask><g mask="url(#d)"><path d="M104.619 31.988c-2.749 6.973-5.028 15.336-7.124 21.017-.36.967-2.208 3.106-2.66 3.344 1.833 4.077 2.732 6.438 2.732 6.438h7.051V31.988h.001z" fill="url(#paint103_linear_224_13563)"/><path d="M133.751 65.526a165.16 165.16 0 00-56.392-.03v13.413c19.046-2.152 38.068-1.536 56.392.03V65.527z" fill="url(#paint104_linear_224_13563)"/></g><mask id="e" style="mask-type:alpha" maskUnits="userSpaceOnUse" x="77" y="76" width="57" height="3"><path d="M133.753 76.758H77.361v2.133h2.117c4.305-.64 17.002-1.706 54.275-2.117v-.016z" fill="url(#paint105_linear_224_13563)"/></mask><g mask="url(#e)"><path d="M133.751 76.758H77.359v2.133h2.117c4.305-.64 17.002-1.706 54.275-2.117v-.016z" fill="url(#paint106_linear_224_13563)"/></g><mask id="f" style="mask-type:alpha" maskUnits="userSpaceOnUse" x="117" y="34" width="23" height="29"><path d="M127.537 55.302c-2.405 2.34-3.08-1.072-2.991-2.234.278-3.73.028-10.178 1.377-18.869l-8.114 27.983s6.178 1.554 10.962-3.208c3.491-3.477 6.494-8.812 10.961-16.291 0 0-8.828 9.34-12.195 12.619z" fill="url(#paint107_linear_224_13563)"/></mask><g mask="url(#f)"><path d="M127.537 55.302c-2.405 2.34-3.08-1.072-2.991-2.234.278-3.73.028-10.178 1.377-18.869l-8.114 27.983s6.178 1.554 10.962-3.208c3.491-3.477 6.494-8.812 10.961-16.291 0 0-8.828 9.34-12.195 12.619z" fill="url(#paint108_linear_224_13563)"/></g><mask id="g" style="mask-type:alpha" maskUnits="userSpaceOnUse" x="69" y="34" width="27" height="29"><path d="M81.903 55.432c2.405 2.34 3.935-.454 3.824-2.364-.212-3.737-.025-10.178-1.377-18.869l11.236 27.983s-9.3 1.554-14.083-3.208c-3.492-3.477-7.553-8.75-12.02-16.23-.001.001 9.051 9.406 12.42 12.688z" fill="url(#paint109_linear_224_13563)"/></mask><g mask="url(#g)"><path d="M81.905 55.432c2.405 2.34 3.935-.454 3.824-2.364-.212-3.737-.025-10.178-1.377-18.869l11.236 27.983s-9.3 1.554-14.083-3.208c-3.492-3.477-7.553-8.75-12.02-16.23-.001.001 9.051 9.406 12.42 12.688z" fill="url(#paint110_linear_224_13563)"/><path d="M81.586 33.649a2.267 2.267 0 004.372-1.199 2.268 2.268 0 00-4.372 1.199z" fill="url(#paint111_radial_224_13563)"/><path d="M69.475 43.648a2.094 2.094 0 100-4.187 2.094 2.094 0 000 4.187z" fill="url(#paint112_radial_224_13563)"/><mask id="h" style="mask-type:alpha" maskUnits="userSpaceOnUse" x="67" y="39" width="5" height="4"><path d="M71.033 41.257a1.907 1.907 0 00-2.56-.834 1.891 1.891 0 00-.889.954 1.895 1.895 0 011.03-1.545 1.906 1.906 0 012.563.834c.262.52.266 1.104.052 1.604a1.9 1.9 0 00-.196-1.013z" fill="url(#paint113_linear_224_13563)"/></mask><g mask="url(#h)"><path d="M71.033 41.257a1.907 1.907 0 00-2.56-.834 1.891 1.891 0 00-.889.954 1.895 1.895 0 011.03-1.545 1.906 1.906 0 012.563.834c.262.52.266 1.104.052 1.604a1.9 1.9 0 00-.196-1.013z" fill="url(#paint114_linear_224_13563)"/></g><path d="M133.46 63.347a155.63 155.63 0 00-27.904-2.535c-9.342.004-18.68.85-27.906 2.535-.665.12-1.1.748-.977 1.397v2.306s.425-1.36 1.405-1.36a153.396 153.396 0 0127.478-2.498c9.198.007 18.392.837 27.478 2.497.979 0 1.405 1.36 1.405 1.36v-2.305a1.203 1.203 0 00-.979-1.397z" fill="url(#paint115_linear_224_13563)"/></g><mask id="i" style="mask-type:alpha" maskUnits="userSpaceOnUse" x="76" y="60" width="59" height="7"><path d="M133.46 63.347a155.63 155.63 0 00-27.904-2.535c-9.342.004-18.68.85-27.906 2.535-.665.12-1.1.748-.977 1.397v1.796c-.02-3.675 40.943-6.868 57.567-2.695a1.223 1.223 0 00-.78-.498z" fill="url(#paint116_linear_224_13563)"/></mask><g mask="url(#i)"><path d="M133.46 63.347a155.63 155.63 0 00-27.904-2.535c-9.342.004-18.68.85-27.906 2.535-.665.12-1.1.748-.977 1.397v1.796c-.02-3.675 40.943-6.868 57.567-2.695a1.223 1.223 0 00-.78-.498z" fill="url(#paint117_linear_224_13563)"/></g><defs><linearGradient id="paint0_linear_224_13563" x1="172.116" y1="116.982" x2="209.003" y2="116.982" gradientUnits="userSpaceOnUse"><stop stop-color="#813900"/><stop offset=".327" stop-color="#C55C18"/><stop offset=".648" stop-color="#FFC841"/><stop offset="1" stop-color="#FFF8A3"/></linearGradient><linearGradient id="paint1_linear_224_13563" x1="170.785" y1="120.464" x2="180.67" y2="120.464" gradientUnits="userSpaceOnUse"><stop stop-color="#C34D19"/><stop offset="1" stop-color="#761800"/></linearGradient><linearGradient id="paint2_linear_224_13563" x1="143.227" y1="107.689" x2="185.988" y2="107.689" gradientUnits="userSpaceOnUse"><stop stop-color="#813900"/><stop offset=".327" stop-color="#C55C18"/><stop offset=".648" stop-color="#FFC841"/><stop offset="1" stop-color="#FFF8A3"/></linearGradient><linearGradient id="paint3_linear_224_13563" x1="143.252" y1="119.519" x2="152.444" y2="119.519" gradientUnits="userSpaceOnUse"><stop stop-color="#C34D19"/><stop offset="1" stop-color="#761800"/></linearGradient><linearGradient id="paint4_linear_224_13563" x1=".828" y1="116.982" x2="37.714" y2="116.982" gradientUnits="userSpaceOnUse"><stop stop-color="#FFF8A3"/><stop offset=".351" stop-color="#FFC841"/><stop offset=".673" stop-color="#C55C18"/><stop offset="1" stop-color="#813900"/></linearGradient><linearGradient id="paint5_linear_224_13563" x1="29.162" y1="120.464" x2="39.046" y2="120.464" gradientUnits="userSpaceOnUse"><stop stop-color="#761800"/><stop offset="1" stop-color="#C34D19"/></linearGradient><linearGradient id="paint6_linear_224_13563" x1="23.842" y1="107.689" x2="66.603" y2="107.689" gradientUnits="userSpaceOnUse"><stop stop-color="#FFF8A3"/><stop offset=".351" stop-color="#FFC841"/><stop offset=".673" stop-color="#C55C18"/><stop offset="1" stop-color="#813900"/></linearGradient><linearGradient id="paint7_linear_224_13563" x1="57.387" y1="119.519" x2="66.579" y2="119.519" gradientUnits="userSpaceOnUse"><stop stop-color="#761800"/><stop offset="1" stop-color="#C34D19"/></linearGradient><linearGradient id="paint9_linear_224_13563" x1="141.508" y1="89.121" x2="162.076" y2="89.897" gradientUnits="userSpaceOnUse"><stop stop-color="#8A3E01"/><stop offset=".285" stop-color="#C55C18"/><stop offset=".709" stop-color="#FBB040"/><stop offset="1" stop-color="#FFF8A3"/></linearGradient><linearGradient id="paint10_linear_224_13563" x1="141.924" y1="89.319" x2="161.022" y2="90.039" gradientUnits="userSpaceOnUse"><stop stop-color="#612600"/><stop offset=".491" stop-color="#8F4103"/><stop offset="1" stop-color="#FBB040"/></linearGradient><linearGradient id="paint11_linear_224_13563" x1="148.843" y1="75.997" x2="164.816" y2="74.418" gradientUnits="userSpaceOnUse"><stop stop-color="#8A3E01"/><stop offset=".285" stop-color="#C55C18"/><stop offset=".709" stop-color="#FBB040"/><stop offset="1" stop-color="#FFF8A3"/></linearGradient><linearGradient id="paint12_linear_224_13563" x1="149.181" y1="76.246" x2="164.065" y2="74.775" gradientUnits="userSpaceOnUse"><stop stop-color="#612600"/><stop offset=".491" stop-color="#8F4103"/><stop offset="1" stop-color="#FBB040"/></linearGradient><linearGradient id="paint13_linear_224_13563" x1="152.747" y1="61.66" x2="164.926" y2="62.119" gradientUnits="userSpaceOnUse"><stop stop-color="#8A3E01"/><stop offset=".285" stop-color="#C55C18"/><stop offset=".709" stop-color="#FBB040"/><stop offset="1" stop-color="#FFF8A3"/></linearGradient><linearGradient id="paint14_linear_224_13563" x1="152.958" y1="61.989" x2="164.348" y2="62.419" gradientUnits="userSpaceOnUse"><stop stop-color="#612600"/><stop offset=".491" stop-color="#8F4103"/><stop offset="1" stop-color="#FBB040"/></linearGradient><linearGradient id="paint15_linear_224_13563" x1="154.107" y1="46.214" x2="160.581" y2="47.036" gradientUnits="userSpaceOnUse"><stop stop-color="#8A3E01"/><stop offset=".285" stop-color="#C55C18"/><stop offset=".709" stop-color="#FBB040"/><stop offset="1" stop-color="#FFF8A3"/></linearGradient><linearGradient id="paint16_linear_224_13563" x1="155.118" y1="46.705" x2="159.422" y2="47.251" gradientUnits="userSpaceOnUse"><stop stop-color="#612600"/><stop offset=".491" stop-color="#8F4103"/><stop offset="1" stop-color="#FBB040"/></linearGradient><linearGradient id="paint17_linear_224_13563" x1="151.11" y1="34.105" x2="157.066" y2="35.019" gradientUnits="userSpaceOnUse"><stop stop-color="#8A3E01"/><stop offset=".285" stop-color="#C55C18"/><stop offset=".709" stop-color="#FBB040"/><stop offset="1" stop-color="#FFF8A3"/></linearGradient><linearGradient id="paint18_linear_224_13563" x1="153.988" y1="45.204" x2="154.582" y2="25.073" gradientUnits="userSpaceOnUse"><stop stop-color="#612600"/><stop offset=".491" stop-color="#8F4103"/><stop offset="1" stop-color="#FBB040"/></linearGradient><linearGradient id="paint19_linear_224_13563" x1="140.543" y1="18.528" x2="149.095" y2="18.85" gradientUnits="userSpaceOnUse"><stop stop-color="#8A3E01"/><stop offset=".285" stop-color="#C55C18"/><stop offset=".709" stop-color="#FBB040"/><stop offset="1" stop-color="#FFF8A3"/></linearGradient><linearGradient id="paint20_linear_224_13563" x1="148.155" y1="28.21" x2="142.316" y2="9.835" gradientUnits="userSpaceOnUse"><stop stop-color="#612600"/><stop offset=".491" stop-color="#8F4103"/><stop offset="1" stop-color="#FBB040"/></linearGradient><linearGradient id="paint21_linear_224_13563" x1="137.238" y1="95.562" x2="158.805" y2="96.376" gradientUnits="userSpaceOnUse"><stop stop-color="#C55C18"/><stop offset=".491" stop-color="#FBB040"/><stop offset="1" stop-color="#FFF799"/></linearGradient><linearGradient id="paint22_linear_224_13563" x1="137.684" y1="95.643" x2="157.692" y2="96.398" gradientUnits="userSpaceOnUse"><stop stop-color="#8A3E01"/><stop offset=".285" stop-color="#C55C18"/><stop offset=".709" stop-color="#FBB040"/><stop offset="1" stop-color="#FFF8A3"/></linearGradient><linearGradient id="paint23_linear_224_13563" x1="147.75" y1="80.888" x2="162.879" y2="84.489" gradientUnits="userSpaceOnUse"><stop stop-color="#C55C18"/><stop offset=".491" stop-color="#FBB040"/><stop offset="1" stop-color="#FFF799"/></linearGradient><linearGradient id="paint24_linear_224_13563" x1="147.978" y1="81.235" x2="162.081" y2="84.593" gradientUnits="userSpaceOnUse"><stop stop-color="#8A3E01"/><stop offset=".285" stop-color="#C55C18"/><stop offset=".709" stop-color="#FBB040"/><stop offset="1" stop-color="#FFF8A3"/></linearGradient><linearGradient id="paint25_linear_224_13563" x1="153.147" y1="68.737" x2="164.252" y2="70.641" gradientUnits="userSpaceOnUse"><stop stop-color="#C55C18"/><stop offset=".491" stop-color="#FBB040"/><stop offset="1" stop-color="#FFF799"/></linearGradient><linearGradient id="paint26_linear_224_13563" x1="153.298" y1="69.096" x2="163.694" y2="70.879" gradientUnits="userSpaceOnUse"><stop stop-color="#8A3E01"/><stop offset=".285" stop-color="#C55C18"/><stop offset=".709" stop-color="#FBB040"/><stop offset="1" stop-color="#FFF8A3"/></linearGradient><linearGradient id="paint27_linear_224_13563" x1="154.112" y1="52.844" x2="161.205" y2="54.802" gradientUnits="userSpaceOnUse"><stop stop-color="#C55C18"/><stop offset=".491" stop-color="#FBB040"/><stop offset="1" stop-color="#FFF799"/></linearGradient><linearGradient id="paint28_linear_224_13563" x1="154.644" y1="53.361" x2="160.419" y2="54.955" gradientUnits="userSpaceOnUse"><stop stop-color="#8A3E01"/><stop offset=".285" stop-color="#C55C18"/><stop offset=".709" stop-color="#FBB040"/><stop offset="1" stop-color="#FFF8A3"/></linearGradient><linearGradient id="paint29_linear_224_13563" x1="153.571" y1="39.77" x2="159.392" y2="39.989" gradientUnits="userSpaceOnUse"><stop stop-color="#C55C18"/><stop offset=".491" stop-color="#FBB040"/><stop offset="1" stop-color="#FFF799"/></linearGradient><linearGradient id="paint30_linear_224_13563" x1="155.879" y1="49.235" x2="157.576" y2="30.801" gradientUnits="userSpaceOnUse"><stop stop-color="#8A3E01"/><stop offset=".285" stop-color="#C55C18"/><stop offset=".709" stop-color="#FBB040"/><stop offset="1" stop-color="#FFF8A3"/></linearGradient><linearGradient id="paint31_linear_224_13563" x1="145.744" y1="24.805" x2="154.27" y2="26.619" gradientUnits="userSpaceOnUse"><stop stop-color="#C55C18"/><stop offset=".491" stop-color="#FBB040"/><stop offset="1" stop-color="#FFF799"/></linearGradient><linearGradient id="paint32_linear_224_13563" x1="146.279" y1="25.257" x2="153.679" y2="26.831" gradientUnits="userSpaceOnUse"><stop stop-color="#8A3E01"/><stop offset=".285" stop-color="#C55C18"/><stop offset=".709" stop-color="#FBB040"/><stop offset="1" stop-color="#FFF8A3"/></linearGradient><linearGradient id="paint33_linear_224_13563" x1="129.563" y1="9.498" x2="144.347" y2="12.483" gradientUnits="userSpaceOnUse"><stop stop-color="#C55C18"/><stop offset=".491" stop-color="#FBB040"/><stop offset="1" stop-color="#FFF799"/></linearGradient><linearGradient id="paint34_linear_224_13563" x1="130.371" y1="9.925" x2="143.942" y2="12.665" gradientUnits="userSpaceOnUse"><stop stop-color="#8A3E01"/><stop offset=".285" stop-color="#C55C18"/><stop offset=".709" stop-color="#FBB040"/><stop offset="1" stop-color="#FFF8A3"/></linearGradient><linearGradient id="paint35_linear_224_13563" x1="68.325" y1="89.121" x2="47.754" y2="89.897" gradientUnits="userSpaceOnUse"><stop stop-color="#8A3E01"/><stop offset=".285" stop-color="#C55C18"/><stop offset=".709" stop-color="#FBB040"/><stop offset="1" stop-color="#FFF8A3"/></linearGradient><linearGradient id="paint36_linear_224_13563" x1="67.905" y1="89.319" x2="48.808" y2="90.039" gradientUnits="userSpaceOnUse"><stop stop-color="#612600"/><stop offset=".491" stop-color="#8F4103"/><stop offset="1" stop-color="#FBB040"/></linearGradient><linearGradient id="paint37_linear_224_13563" x1="60.988" y1="75.997" x2="45.015" y2="74.418" gradientUnits="userSpaceOnUse"><stop stop-color="#8A3E01"/><stop offset=".285" stop-color="#C55C18"/><stop offset=".709" stop-color="#FBB040"/><stop offset="1" stop-color="#FFF8A3"/></linearGradient><linearGradient id="paint38_linear_224_13563" x1="60.65" y1="76.247" x2="45.764" y2="74.775" gradientUnits="userSpaceOnUse"><stop stop-color="#612600"/><stop offset=".491" stop-color="#8F4103"/><stop offset="1" stop-color="#FBB040"/></linearGradient><linearGradient id="paint39_linear_224_13563" x1="57.084" y1="61.66" x2="44.905" y2="62.119" gradientUnits="userSpaceOnUse"><stop stop-color="#8A3E01"/><stop offset=".285" stop-color="#C55C18"/><stop offset=".709" stop-color="#FBB040"/><stop offset="1" stop-color="#FFF8A3"/></linearGradient><linearGradient id="paint40_linear_224_13563" x1="56.871" y1="61.989" x2="45.477" y2="62.419" gradientUnits="userSpaceOnUse"><stop stop-color="#612600"/><stop offset=".491" stop-color="#8F4103"/><stop offset="1" stop-color="#FBB040"/></linearGradient><linearGradient id="paint41_linear_224_13563" x1="55.724" y1="46.214" x2="49.248" y2="47.036" gradientUnits="userSpaceOnUse"><stop stop-color="#8A3E01"/><stop offset=".285" stop-color="#C55C18"/><stop offset=".709" stop-color="#FBB040"/><stop offset="1" stop-color="#FFF8A3"/></linearGradient><linearGradient id="paint42_linear_224_13563" x1="54.71" y1="46.705" x2="50.41" y2="47.251" gradientUnits="userSpaceOnUse"><stop stop-color="#612600"/><stop offset=".491" stop-color="#8F4103"/><stop offset="1" stop-color="#FBB040"/></linearGradient><linearGradient id="paint43_linear_224_13563" x1="58.722" y1="34.105" x2="52.764" y2="35.019" gradientUnits="userSpaceOnUse"><stop stop-color="#8A3E01"/><stop offset=".285" stop-color="#C55C18"/><stop offset=".709" stop-color="#FBB040"/><stop offset="1" stop-color="#FFF8A3"/></linearGradient><linearGradient id="paint44_linear_224_13563" x1="55.841" y1="45.204" x2="55.247" y2="25.073" gradientUnits="userSpaceOnUse"><stop stop-color="#612600"/><stop offset=".491" stop-color="#8F4103"/><stop offset="1" stop-color="#FBB040"/></linearGradient><linearGradient id="paint45_linear_224_13563" x1="69.287" y1="18.528" x2="60.736" y2="18.85" gradientUnits="userSpaceOnUse"><stop stop-color="#8A3E01"/><stop offset=".285" stop-color="#C55C18"/><stop offset=".709" stop-color="#FBB040"/><stop offset="1" stop-color="#FFF8A3"/></linearGradient><linearGradient id="paint46_linear_224_13563" x1="61.674" y1="28.21" x2="67.513" y2="9.835" gradientUnits="userSpaceOnUse"><stop stop-color="#612600"/><stop offset=".491" stop-color="#8F4103"/><stop offset="1" stop-color="#FBB040"/></linearGradient><linearGradient id="paint47_linear_224_13563" x1="72.592" y1="95.562" x2="51.023" y2="96.376" gradientUnits="userSpaceOnUse"><stop stop-color="#C55C18"/><stop offset=".491" stop-color="#FBB040"/><stop offset="1" stop-color="#FFF799"/></linearGradient><linearGradient id="paint48_linear_224_13563" x1="72.146" y1="95.643" x2="52.135" y2="96.398" gradientUnits="userSpaceOnUse"><stop stop-color="#8A3E01"/><stop offset=".285" stop-color="#C55C18"/><stop offset=".709" stop-color="#FBB040"/><stop offset="1" stop-color="#FFF8A3"/></linearGradient><linearGradient id="paint49_linear_224_13563" x1="62.081" y1="80.887" x2="46.951" y2="84.489" gradientUnits="userSpaceOnUse"><stop stop-color="#C55C18"/><stop offset=".491" stop-color="#FBB040"/><stop offset="1" stop-color="#FFF799"/></linearGradient><linearGradient id="paint50_linear_224_13563" x1="61.854" y1="81.235" x2="47.752" y2="84.593" gradientUnits="userSpaceOnUse"><stop stop-color="#8A3E01"/><stop offset=".285" stop-color="#C55C18"/><stop offset=".709" stop-color="#FBB040"/><stop offset="1" stop-color="#FFF8A3"/></linearGradient><linearGradient id="paint51_linear_224_13563" x1="56.683" y1="68.737" x2="45.575" y2="70.641" gradientUnits="userSpaceOnUse"><stop stop-color="#C55C18"/><stop offset=".491" stop-color="#FBB040"/><stop offset="1" stop-color="#FFF799"/></linearGradient><linearGradient id="paint52_linear_224_13563" x1="56.531" y1="69.096" x2="46.136" y2="70.878" gradientUnits="userSpaceOnUse"><stop stop-color="#8A3E01"/><stop offset=".285" stop-color="#C55C18"/><stop offset=".709" stop-color="#FBB040"/><stop offset="1" stop-color="#FFF8A3"/></linearGradient><linearGradient id="paint53_linear_224_13563" x1="55.716" y1="52.844" x2="48.624" y2="54.801" gradientUnits="userSpaceOnUse"><stop stop-color="#C55C18"/><stop offset=".491" stop-color="#FBB040"/><stop offset="1" stop-color="#FFF799"/></linearGradient><linearGradient id="paint54_linear_224_13563" x1="55.184" y1="53.361" x2="49.409" y2="54.955" gradientUnits="userSpaceOnUse"><stop stop-color="#8A3E01"/><stop offset=".285" stop-color="#C55C18"/><stop offset=".709" stop-color="#FBB040"/><stop offset="1" stop-color="#FFF8A3"/></linearGradient><linearGradient id="paint55_linear_224_13563" x1="56.257" y1="39.77" x2="50.435" y2="39.989" gradientUnits="userSpaceOnUse"><stop stop-color="#C55C18"/><stop offset=".491" stop-color="#FBB040"/><stop offset="1" stop-color="#FFF799"/></linearGradient><linearGradient id="paint56_linear_224_13563" x1="53.948" y1="49.235" x2="52.251" y2="30.801" gradientUnits="userSpaceOnUse"><stop stop-color="#8A3E01"/><stop offset=".285" stop-color="#C55C18"/><stop offset=".709" stop-color="#FBB040"/><stop offset="1" stop-color="#FFF8A3"/></linearGradient><linearGradient id="paint57_linear_224_13563" x1="64.087" y1="24.805" x2="55.56" y2="26.619" gradientUnits="userSpaceOnUse"><stop stop-color="#C55C18"/><stop offset=".491" stop-color="#FBB040"/><stop offset="1" stop-color="#FFF799"/></linearGradient><linearGradient id="paint58_linear_224_13563" x1="63.552" y1="25.257" x2="56.153" y2="26.831" gradientUnits="userSpaceOnUse"><stop stop-color="#8A3E01"/><stop offset=".285" stop-color="#C55C18"/><stop offset=".709" stop-color="#FBB040"/><stop offset="1" stop-color="#FFF8A3"/></linearGradient><linearGradient id="paint59_linear_224_13563" x1="80.267" y1="9.498" x2="65.483" y2="12.483" gradientUnits="userSpaceOnUse"><stop stop-color="#C55C18"/><stop offset=".491" stop-color="#FBB040"/><stop offset="1" stop-color="#FFF799"/></linearGradient><linearGradient id="paint60_linear_224_13563" x1="79.46" y1="9.925" x2="65.891" y2="12.664" gradientUnits="userSpaceOnUse"><stop stop-color="#8A3E01"/><stop offset=".285" stop-color="#C55C18"/><stop offset=".709" stop-color="#FBB040"/><stop offset="1" stop-color="#FFF8A3"/></linearGradient><linearGradient id="paint61_linear_224_13563" x1="104.915" y1="119.32" x2="104.915" y2="85.348" gradientUnits="userSpaceOnUse"><stop stop-color="#813900"/><stop offset=".327" stop-color="#C55C18"/><stop offset=".648" stop-color="#FFC841"/><stop offset="1" stop-color="#FFF8A3"/></linearGradient><linearGradient id="paint62_linear_224_13563" x1="106.608" y1="126.266" x2="104.742" y2="117.585" gradientUnits="userSpaceOnUse"><stop stop-color="#C55C18"/><stop offset=".479" stop-color="#FFC841"/><stop offset="1" stop-color="#FFF8A3"/></linearGradient><linearGradient id="paint63_linear_224_13563" x1="103.218" y1="126.266" x2="105.083" y2="117.585" gradientUnits="userSpaceOnUse"><stop stop-color="#FFF8A3"/><stop offset=".521" stop-color="#FFC841"/><stop offset="1" stop-color="#C55C18"/></linearGradient><linearGradient id="paint64_linear_224_13563" x1="115.525" y1="125.774" x2="106.971" y2="126.151" gradientUnits="userSpaceOnUse"><stop stop-color="#F78E1E"/><stop offset="1" stop-color="#FFF8A3"/></linearGradient><linearGradient id="paint65_linear_224_13563" x1="94.3" y1="125.774" x2="102.854" y2="126.151" gradientUnits="userSpaceOnUse"><stop stop-color="#F78E1E"/><stop offset="1" stop-color="#FFF8A3"/></linearGradient><linearGradient id="paint66_linear_224_13563" x1="112.214" y1="136.007" x2="105.544" y2="127.939" gradientUnits="userSpaceOnUse"><stop stop-color="#C55C18"/><stop offset=".479" stop-color="#FFC841"/><stop offset="1" stop-color="#FFF8A3"/></linearGradient><linearGradient id="paint67_linear_224_13563" x1="104.011" y1="130.292" x2="111.272" y2="138.575" gradientUnits="userSpaceOnUse"><stop stop-color="#C55C18"/><stop offset=".479" stop-color="#FFC841"/><stop offset="1" stop-color="#FFF8A3"/></linearGradient><linearGradient id="paint68_linear_224_13563" x1="97.612" y1="136.008" x2="104.282" y2="127.94" gradientUnits="userSpaceOnUse"><stop stop-color="#C55C18"/><stop offset=".479" stop-color="#FFC841"/><stop offset="1" stop-color="#FFF8A3"/></linearGradient><linearGradient id="paint69_linear_224_13563" x1="105.814" y1="130.292" x2="98.553" y2="138.574" gradientUnits="userSpaceOnUse"><stop stop-color="#FFF8A3"/><stop offset=".521" stop-color="#FFC841"/><stop offset="1" stop-color="#C55C18"/></linearGradient><linearGradient id="paint70_linear_224_13563" x1="115.279" y1="125.483" x2="108.321" y2="128.998" gradientUnits="userSpaceOnUse"><stop stop-color="#C55C18"/><stop offset=".479" stop-color="#FFC841"/><stop offset="1" stop-color="#FFF8A3"/></linearGradient><linearGradient id="paint71_linear_224_13563" x1="94.547" y1="125.483" x2="101.505" y2="128.998" gradientUnits="userSpaceOnUse"><stop stop-color="#C55C18"/><stop offset=".479" stop-color="#FFC841"/><stop offset="1" stop-color="#FFF8A3"/></linearGradient><linearGradient id="paint73_linear_224_13563" x1="105.106" y1="129.124" x2="98.096" y2="136.91" gradientUnits="userSpaceOnUse"><stop stop-color="#fff"/><stop offset=".044" stop-color="#DDD"/><stop offset=".152" stop-color="#909090"/><stop offset=".249" stop-color="#525252"/><stop offset=".33" stop-color="#262626"/><stop offset=".393" stop-color="#0A0A0A"/><stop offset=".429"/></linearGradient><linearGradient id="paint74_linear_224_13563" x1="105.106" y1="129.124" x2="98.096" y2="136.91" gradientUnits="userSpaceOnUse"><stop stop-color="#fff"/><stop offset=".429" stop-color="#fff"/></linearGradient><linearGradient id="paint75_linear_224_13563" x1="128.025" y1="122.464" x2="126.842" y2="116.959" gradientUnits="userSpaceOnUse"><stop stop-color="#C55C18"/><stop offset=".479" stop-color="#FFC841"/><stop offset="1" stop-color="#FFF8A3"/></linearGradient><linearGradient id="paint76_linear_224_13563" x1="125.874" y1="122.463" x2="127.057" y2="116.959" gradientUnits="userSpaceOnUse"><stop stop-color="#FFF8A3"/><stop offset=".521" stop-color="#FFC841"/><stop offset="1" stop-color="#C55C18"/></linearGradient><linearGradient id="paint77_linear_224_13563" x1="133.682" y1="122.151" x2="128.257" y2="122.39" gradientUnits="userSpaceOnUse"><stop stop-color="#F78E1E"/><stop offset="1" stop-color="#FFF8A3"/></linearGradient><linearGradient id="paint78_linear_224_13563" x1="120.22" y1="122.151" x2="125.645" y2="122.39" gradientUnits="userSpaceOnUse"><stop stop-color="#F78E1E"/><stop offset="1" stop-color="#FFF8A3"/></linearGradient><linearGradient id="paint79_linear_224_13563" x1="131.58" y1="128.644" x2="127.349" y2="123.524" gradientUnits="userSpaceOnUse"><stop stop-color="#C55C18"/><stop offset=".479" stop-color="#FFC841"/><stop offset="1" stop-color="#FFF8A3"/></linearGradient><linearGradient id="paint80_linear_224_13563" x1="126.378" y1="125.015" x2="130.985" y2="130.27" gradientUnits="userSpaceOnUse"><stop stop-color="#C55C18"/><stop offset=".479" stop-color="#FFC841"/><stop offset="1" stop-color="#FFF8A3"/></linearGradient><linearGradient id="paint81_linear_224_13563" x1="122.317" y1="128.643" x2="126.55" y2="123.523" gradientUnits="userSpaceOnUse"><stop stop-color="#C55C18"/><stop offset=".479" stop-color="#FFC841"/><stop offset="1" stop-color="#FFF8A3"/></linearGradient><linearGradient id="paint82_linear_224_13563" x1="127.522" y1="125.015" x2="122.914" y2="130.272" gradientUnits="userSpaceOnUse"><stop stop-color="#FFF8A3"/><stop offset=".521" stop-color="#FFC841"/><stop offset="1" stop-color="#C55C18"/></linearGradient><linearGradient id="paint83_linear_224_13563" x1="133.525" y1="121.967" x2="129.113" y2="124.195" gradientUnits="userSpaceOnUse"><stop stop-color="#C55C18"/><stop offset=".479" stop-color="#FFC841"/><stop offset="1" stop-color="#FFF8A3"/></linearGradient><linearGradient id="paint84_linear_224_13563" x1="120.377" y1="121.967" x2="124.789" y2="124.196" gradientUnits="userSpaceOnUse"><stop stop-color="#C55C18"/><stop offset=".479" stop-color="#FFC841"/><stop offset="1" stop-color="#FFF8A3"/></linearGradient><linearGradient id="paint86_linear_224_13563" x1="127.072" y1="124.279" x2="122.625" y2="129.217" gradientUnits="userSpaceOnUse"><stop stop-color="#fff"/><stop offset=".044" stop-color="#DDD"/><stop offset=".152" stop-color="#909090"/><stop offset=".249" stop-color="#525252"/><stop offset=".33" stop-color="#262626"/><stop offset=".393" stop-color="#0A0A0A"/><stop offset=".429"/></linearGradient><linearGradient id="paint87_linear_224_13563" x1="127.072" y1="124.279" x2="122.625" y2="129.217" gradientUnits="userSpaceOnUse"><stop stop-color="#fff"/><stop offset=".429" stop-color="#fff"/></linearGradient><linearGradient id="paint88_linear_224_13563" x1="83.95" y1="122.463" x2="82.767" y2="116.959" gradientUnits="userSpaceOnUse"><stop stop-color="#C55C18"/><stop offset=".479" stop-color="#FFC841"/><stop offset="1" stop-color="#FFF8A3"/></linearGradient><linearGradient id="paint89_linear_224_13563" x1="81.8" y1="122.463" x2="82.983" y2="116.959" gradientUnits="userSpaceOnUse"><stop stop-color="#FFF8A3"/><stop offset=".521" stop-color="#FFC841"/><stop offset="1" stop-color="#C55C18"/></linearGradient><linearGradient id="paint90_linear_224_13563" x1="89.609" y1="122.151" x2="84.181" y2="122.39" gradientUnits="userSpaceOnUse"><stop stop-color="#F78E1E"/><stop offset="1" stop-color="#FFF8A3"/></linearGradient><linearGradient id="paint91_linear_224_13563" x1="76.145" y1="122.151" x2="81.571" y2="122.39" gradientUnits="userSpaceOnUse"><stop stop-color="#F78E1E"/><stop offset="1" stop-color="#FFF8A3"/></linearGradient><linearGradient id="paint92_linear_224_13563" x1="87.506" y1="128.643" x2="83.274" y2="123.523" gradientUnits="userSpaceOnUse"><stop stop-color="#C55C18"/><stop offset=".479" stop-color="#FFC841"/><stop offset="1" stop-color="#FFF8A3"/></linearGradient><linearGradient id="paint93_linear_224_13563" x1="82.302" y1="125.015" x2="86.91" y2="130.271" gradientUnits="userSpaceOnUse"><stop stop-color="#C55C18"/><stop offset=".479" stop-color="#FFC841"/><stop offset="1" stop-color="#FFF8A3"/></linearGradient><linearGradient id="paint94_linear_224_13563" x1="78.247" y1="128.644" x2="82.479" y2="123.525" gradientUnits="userSpaceOnUse"><stop stop-color="#C55C18"/><stop offset=".479" stop-color="#FFC841"/><stop offset="1" stop-color="#FFF8A3"/></linearGradient><linearGradient id="paint95_linear_224_13563" x1="83.449" y1="125.015" x2="78.842" y2="130.27" gradientUnits="userSpaceOnUse"><stop stop-color="#FFF8A3"/><stop offset=".521" stop-color="#FFC841"/><stop offset="1" stop-color="#C55C18"/></linearGradient><linearGradient id="paint96_linear_224_13563" x1="89.451" y1="121.966" x2="85.038" y2="124.196" gradientUnits="userSpaceOnUse"><stop stop-color="#C55C18"/><stop offset=".479" stop-color="#FFC841"/><stop offset="1" stop-color="#FFF8A3"/></linearGradient><linearGradient id="paint97_linear_224_13563" x1="76.303" y1="121.966" x2="80.715" y2="124.195" gradientUnits="userSpaceOnUse"><stop stop-color="#C55C18"/><stop offset=".479" stop-color="#FFC841"/><stop offset="1" stop-color="#FFF8A3"/></linearGradient><linearGradient id="paint99_linear_224_13563" x1="82.999" y1="124.278" x2="78.553" y2="129.216" gradientUnits="userSpaceOnUse"><stop stop-color="#fff"/><stop offset=".044" stop-color="#DDD"/><stop offset=".152" stop-color="#909090"/><stop offset=".249" stop-color="#525252"/><stop offset=".33" stop-color="#262626"/><stop offset=".393" stop-color="#0A0A0A"/><stop offset=".429"/></linearGradient><linearGradient id="paint100_linear_224_13563" x1="82.999" y1="124.278" x2="78.553" y2="129.216" gradientUnits="userSpaceOnUse"><stop stop-color="#fff"/><stop offset=".429" stop-color="#fff"/></linearGradient><linearGradient id="paint101_linear_224_13563" x1="72.648" y1="47.291" x2="136.716" y2="47.634" gradientUnits="userSpaceOnUse"><stop stop-color="#C55C18"/><stop offset=".182" stop-color="#FBB040"/><stop offset=".382" stop-color="#892E01"/><stop offset=".606" stop-color="#FFF8A3"/><stop offset=".788" stop-color="#FBB040"/><stop offset="1" stop-color="#C35019"/></linearGradient><linearGradient id="paint102_linear_224_13563" x1="94.834" y1="47.383" x2="105.533" y2="47.383" gradientUnits="userSpaceOnUse"><stop offset=".455"/><stop offset=".501" stop-color="#0A0A0A"/><stop offset=".581" stop-color="#262626"/><stop offset=".684" stop-color="#525252"/><stop offset=".807" stop-color="#909090"/><stop offset=".944" stop-color="#DDD"/><stop offset="1" stop-color="#fff"/></linearGradient><linearGradient id="paint103_linear_224_13563" x1="94.836" y1="47.387" x2="105.535" y2="47.387" gradientUnits="userSpaceOnUse"><stop offset=".455" stop-color="#fff"/><stop offset="1" stop-color="#fff"/></linearGradient><linearGradient id="paint104_linear_224_13563" x1="77.359" y1="71.013" x2="133.751" y2="71.013" gradientUnits="userSpaceOnUse"><stop stop-color="#C55C18"/><stop offset=".182" stop-color="#FBB040"/><stop offset=".382" stop-color="#8A3E01"/><stop offset=".606" stop-color="#FFF8A3"/><stop offset=".788" stop-color="#FBB040"/><stop offset="1" stop-color="#C55C18"/></linearGradient><linearGradient id="paint105_linear_224_13563" x1="105.239" y1="76.679" x2="102.583" y2="67.117" gradientUnits="userSpaceOnUse"><stop offset=".216" stop-color="#fff"/><stop offset=".29" stop-color="#DDD"/><stop offset=".474" stop-color="#909090"/><stop offset=".638" stop-color="#525252"/><stop offset=".777" stop-color="#262626"/><stop offset=".883" stop-color="#0A0A0A"/><stop offset=".946"/></linearGradient><linearGradient id="paint106_linear_224_13563" x1="105.237" y1="76.679" x2="102.581" y2="67.117" gradientUnits="userSpaceOnUse"><stop offset=".216" stop-color="#fff"/><stop offset=".946" stop-color="#fff"/></linearGradient><linearGradient id="paint107_linear_224_13563" x1="117.557" y1="47.149" x2="141.106" y2="52.842" gradientUnits="userSpaceOnUse"><stop stop-color="#fff"/><stop offset=".138" stop-color="#B9B9B9"/><stop offset=".28" stop-color="#787878"/><stop offset=".408" stop-color="#444"/><stop offset=".52" stop-color="#1F1F1F"/><stop offset=".61" stop-color="#080808"/><stop offset=".667"/></linearGradient><linearGradient id="paint108_linear_224_13563" x1="117.557" y1="47.149" x2="141.106" y2="52.842" gradientUnits="userSpaceOnUse"><stop stop-color="#7C2D1F"/><stop offset=".667" stop-color="#7C2D1F"/></linearGradient><linearGradient id="paint109_linear_224_13563" x1="96.646" y1="46.577" x2="67.357" y2="53.658" gradientUnits="userSpaceOnUse"><stop stop-color="#fff"/><stop offset=".056" stop-color="#DDD"/><stop offset=".193" stop-color="#909090"/><stop offset=".316" stop-color="#525252"/><stop offset=".419" stop-color="#262626"/><stop offset=".499" stop-color="#0A0A0A"/><stop offset=".545"/></linearGradient><linearGradient id="paint110_linear_224_13563" x1="96.648" y1="46.577" x2="67.359" y2="53.658" gradientUnits="userSpaceOnUse"><stop stop-color="#fff"/><stop offset=".545" stop-color="#fff"/></linearGradient><linearGradient id="paint113_linear_224_13563" x1="71.293" y1="41.469" x2="68.265" y2="40.337" gradientUnits="userSpaceOnUse"><stop offset=".455"/><stop offset=".501" stop-color="#0A0A0A"/><stop offset=".581" stop-color="#262626"/><stop offset=".684" stop-color="#525252"/><stop offset=".807" stop-color="#909090"/><stop offset=".944" stop-color="#DDD"/><stop offset="1" stop-color="#fff"/></linearGradient><linearGradient id="paint114_linear_224_13563" x1="71.293" y1="41.469" x2="68.265" y2="40.337" gradientUnits="userSpaceOnUse"><stop offset=".455" stop-color="#fff"/><stop offset="1" stop-color="#fff"/></linearGradient><linearGradient id="paint115_linear_224_13563" x1="76.653" y1="63.932" x2="192.632" y2="63.932" gradientUnits="userSpaceOnUse"><stop stop-color="#C55C18"/><stop offset=".182" stop-color="#FBB040"/><stop offset=".382" stop-color="#8A3E01"/><stop offset=".606" stop-color="#FFF8A3"/><stop offset=".788" stop-color="#FBB040"/><stop offset="1" stop-color="#C55C18"/></linearGradient><linearGradient id="paint116_linear_224_13563" x1="105.033" y1="63.665" x2="102.285" y2="53.773" gradientUnits="userSpaceOnUse"><stop offset=".054"/><stop offset=".117" stop-color="#0A0A0A"/><stop offset=".223" stop-color="#262626"/><stop offset=".361" stop-color="#525252"/><stop offset=".526" stop-color="#909090"/><stop offset=".71" stop-color="#DDD"/><stop offset=".784" stop-color="#fff"/></linearGradient><linearGradient id="paint117_linear_224_13563" x1="105.033" y1="63.665" x2="102.285" y2="53.773" gradientUnits="userSpaceOnUse"><stop offset=".054" stop-color="#fff"/><stop offset=".784" stop-color="#fff"/></linearGradient><radialGradient id="paint8_radial_224_13563" cx="0" cy="0" r="1" gradientUnits="userSpaceOnUse" gradientTransform="matrix(58.2506 0 0 58.2507 104.915 77.312)"><stop stop-color="#414042"/><stop offset=".392" stop-color="#3A393B"/><stop offset=".815" stop-color="#1D1D1E"/><stop offset="1"/></radialGradient><radialGradient id="paint72_radial_224_13563" cx="0" cy="0" r="1" gradientUnits="userSpaceOnUse" gradientTransform="rotate(35.464 -150.934 227.978) scale(10.5587)"><stop stop-color="#813900"/><stop offset=".206" stop-color="#C55C18"/><stop offset=".533" stop-color="#FBB040"/><stop offset="1" stop-color="#FFF8A3"/></radialGradient><radialGradient id="paint85_radial_224_13563" cx="0" cy="0" r="1" gradientUnits="userSpaceOnUse" gradientTransform="rotate(35.464 -131.79 260.246) scale(6.6964)"><stop stop-color="#813900"/><stop offset=".206" stop-color="#C55C18"/><stop offset=".533" stop-color="#FBB040"/><stop offset="1" stop-color="#FFF8A3"/></radialGradient><radialGradient id="paint98_radial_224_13563" cx="0" cy="0" r="1" gradientUnits="userSpaceOnUse" gradientTransform="rotate(35.464 -153.828 191.33) scale(6.69635)"><stop stop-color="#813900"/><stop offset=".206" stop-color="#C55C18"/><stop offset=".533" stop-color="#FBB040"/><stop offset="1" stop-color="#FFF8A3"/></radialGradient><radialGradient id="paint111_radial_224_13563" cx="0" cy="0" r="1" gradientUnits="userSpaceOnUse" gradientTransform="rotate(164.639 39.582 22.011) scale(2.26561 2.26562)"><stop stop-color="#FFF799"/><stop offset=".509" stop-color="#FBB040"/><stop offset="1" stop-color="#C55C18"/></radialGradient><radialGradient id="paint112_radial_224_13563" cx="0" cy="0" r="1" gradientUnits="userSpaceOnUse" gradientTransform="matrix(-1.8617 .95839 -.9584 -1.86171 69.245 41.32)"><stop stop-color="#FFF799"/><stop offset=".509" stop-color="#FBB040"/><stop offset="1" stop-color="#C55C18"/></radialGradient></defs></svg>